NunitoSans-M1000CondensedHeavy.ufo
<glyph name="numbersign" format="2">
  <advance width="534"/>
  <unicode hex="0023"/>
  <outline>
    <contour>
      <point x="66" y="0" type="line"/>
      <point x="183" y="0" type="line"/>
      <point x="208" y="156" type="line"/>
      <point x="264" y="156" type="line"/>
      <point x="239" y="0" type="line"/>
      <point x="357" y="0" type="line"/>
      <point x="382" y="156" type="line"/>
      <point x="477" y="156" type="line"/>
      <point x="477" y="269" type="line"/>
      <point x="399" y="269" type="line"/>
      <point x="427" y="444" type="line"/>
      <point x="496" y="444" type="line"/>
      <point x="496" y="557" type="line"/>
      <point x="445" y="557" type="line"/>
      <point x="468" y="705" type="line"/>
      <point x="350" y="705" type="line"/>
      <point x="327" y="557" type="line"/>
      <point x="271" y="557" type="line"/>
      <point x="294" y="705" type="line"/>
      <point x="177" y="705" type="line"/>
      <point x="154" y="557" type="line"/>
      <point x="57" y="557" type="line"/>
      <point x="57" y="444" type="line"/>
      <point x="136" y="444" type="line"/>
      <point x="108" y="269" type="line"/>
      <point x="38" y="269" type="line"/>
      <point x="38" y="156" type="line"/>
      <point x="91" y="156" type="line"/>
    </contour>
    <contour>
      <point x="225" y="269" type="line"/>
      <point x="253" y="444" type="line"/>
      <point x="309" y="444" type="line"/>
      <point x="281" y="269" type="line"/>
    </contour>
  </outline>
</glyph>
<glyph name="dollar" format="2">
  <advance width="498"/>
  <unicode hex="0024"/>
  <outline>
    <contour>
      <point x="184" y="-115" type="line"/>
      <point x="328" y="-115" type="line"/>
      <point x="328" y="22" type="line"/>
      <point x="278" y="-6" type="line"/>
      <point x="412" y="8"/>
      <point x="496" y="96"/>
      <point x="496" y="226" type="curve" smooth="yes"/>
      <point x="496" y="326"/>
      <point x="446" y="391"/>
      <point x="349" y="416" type="curve" smooth="yes"/>
      <point x="251" y="441" type="line" smooth="yes"/>
      <point x="222" y="448"/>
      <point x="206" y="467"/>
      <point x="206" y="493" type="curve" smooth="yes"/>
      <point x="206" y="529"/>
      <point x="234" y="551"/>
      <point x="281" y="551" type="curve" smooth="yes"/>
      <point x="326" y="551"/>
      <point x="387" y="530"/>
      <point x="420" y="502" type="curve"/>
      <point x="468" y="646" type="line"/>
      <point x="429" y="680"/>
      <point x="370" y="704"/>
      <point x="306" y="711" type="curve"/>
      <point x="328" y="692" type="line"/>
      <point x="328" y="820" type="line"/>
      <point x="184" y="820" type="line"/>
      <point x="184" y="692" type="line"/>
      <point x="206" y="707" type="line"/>
      <point x="91" y="684"/>
      <point x="18" y="597"/>
      <point x="18" y="476" type="curve" smooth="yes"/>
      <point x="18" y="374"/>
      <point x="68" y="309"/>
      <point x="167" y="283" type="curve" smooth="yes"/>
      <point x="265" y="257" type="line" smooth="yes"/>
      <point x="294" y="249"/>
      <point x="309" y="231"/>
      <point x="309" y="205" type="curve" smooth="yes"/>
      <point x="309" y="171"/>
      <point x="285" y="154"/>
      <point x="238" y="154" type="curve" smooth="yes"/>
      <point x="182" y="154"/>
      <point x="104" y="179"/>
      <point x="57" y="213" type="curve"/>
      <point x="9" y="59" type="line"/>
      <point x="61" y="23"/>
      <point x="138" y="-2"/>
      <point x="212" y="-7" type="curve"/>
      <point x="184" y="22" type="line"/>
    </contour>
  </outline>
</glyph>
<glyph name="percent" format="2">
  <advance width="806"/>
  <unicode hex="0025"/>
  <outline>
    <contour>
      <point x="296" y="-34" type="line"/>
      <point x="626" y="686" type="line"/>
      <point x="510" y="738" type="line"/>
      <point x="180" y="18" type="line"/>
    </contour>
    <contour>
      <point x="177" y="285" type="curve" smooth="yes"/>
      <point x="279" y="285"/>
      <point x="338" y="360"/>
      <point x="338" y="501" type="curve" smooth="yes"/>
      <point x="338" y="642"/>
      <point x="279" y="717"/>
      <point x="177" y="717" type="curve" smooth="yes"/>
      <point x="76" y="717"/>
      <point x="16" y="642"/>
      <point x="16" y="501" type="curve" smooth="yes"/>
      <point x="16" y="360"/>
      <point x="76" y="285"/>
    </contour>
    <contour>
      <point x="177" y="400" type="curve" smooth="yes"/>
      <point x="160" y="400"/>
      <point x="154" y="426"/>
      <point x="154" y="501" type="curve" smooth="yes"/>
      <point x="154" y="576"/>
      <point x="160" y="602"/>
      <point x="177" y="602" type="curve" smooth="yes"/>
      <point x="194" y="602"/>
      <point x="200" y="576"/>
      <point x="200" y="501" type="curve" smooth="yes"/>
      <point x="200" y="426"/>
      <point x="194" y="400"/>
    </contour>
    <contour>
      <point x="629" y="-13" type="curve" smooth="yes"/>
      <point x="731" y="-13"/>
      <point x="790" y="62"/>
      <point x="790" y="203" type="curve" smooth="yes"/>
      <point x="790" y="344"/>
      <point x="731" y="419"/>
      <point x="629" y="419" type="curve" smooth="yes"/>
      <point x="528" y="419"/>
      <point x="468" y="344"/>
      <point x="468" y="203" type="curve" smooth="yes"/>
      <point x="468" y="62"/>
      <point x="528" y="-13"/>
    </contour>
    <contour>
      <point x="629" y="102" type="curve" smooth="yes"/>
      <point x="612" y="102"/>
      <point x="606" y="128"/>
      <point x="606" y="203" type="curve" smooth="yes"/>
      <point x="606" y="278"/>
      <point x="612" y="304"/>
      <point x="629" y="304" type="curve" smooth="yes"/>
      <point x="646" y="304"/>
      <point x="652" y="278"/>
      <point x="652" y="203" type="curve" smooth="yes"/>
      <point x="652" y="128"/>
      <point x="646" y="102"/>
    </contour>
  </outline>
</glyph>
<glyph name="quotesingle" format="2">
  <advance width="248"/>
  <unicode hex="0027"/>
  <outline>
    <contour>
      <point x="62" y="394" type="line"/>
      <point x="186" y="394" type="line"/>
      <point x="230" y="705" type="line"/>
      <point x="18" y="705" type="line"/>
    </contour>
  </outline>
</glyph>
<glyph name="plus" format="2">
  <advance width="498"/>
  <unicode hex="002B"/>
  <outline>
    <contour>
      <point x="184" y="67" type="line"/>
      <point x="314" y="67" type="line"/>
      <point x="314" y="225" type="line"/>
      <point x="466" y="225" type="line"/>
      <point x="466" y="349" type="line"/>
      <point x="314" y="349" type="line"/>
      <point x="314" y="501" type="line"/>
      <point x="184" y="501" type="line"/>
      <point x="184" y="349" type="line"/>
      <point x="32" y="349" type="line"/>
      <point x="32" y="225" type="line"/>
      <point x="184" y="225" type="line"/>
    </contour>
  </outline>
</glyph>
<glyph name="period" format="2">
  <advance width="249"/>
  <unicode hex="002E"/>
  <outline>
    <contour>
      <point x="30" y="0" type="line"/>
      <point x="219" y="0" type="line"/>
      <point x="219" y="193" type="line"/>
      <point x="30" y="193" type="line"/>
    </contour>
  </outline>
</glyph>
<glyph name="zero" format="2">
  <advance width="498"/>
  <unicode hex="0030"/>
  <outline>
    <contour>
      <point x="249" y="-12" type="curve" smooth="yes"/>
      <point x="404" y="-12"/>
      <point x="478" y="106"/>
      <point x="478" y="353" type="curve" smooth="yes"/>
      <point x="478" y="599"/>
      <point x="404" y="717"/>
      <point x="249" y="717" type="curve" smooth="yes"/>
      <point x="94" y="717"/>
      <point x="20" y="599"/>
      <point x="20" y="352" type="curve" smooth="yes"/>
      <point x="20" y="106"/>
      <point x="94" y="-12"/>
    </contour>
    <contour>
      <point x="249" y="145" type="curve" smooth="yes"/>
      <point x="216" y="145"/>
      <point x="204" y="201"/>
      <point x="204" y="352" type="curve" smooth="yes"/>
      <point x="204" y="504"/>
      <point x="216" y="560"/>
      <point x="249" y="560" type="curve" smooth="yes"/>
      <point x="282" y="560"/>
      <point x="294" y="504"/>
      <point x="294" y="353" type="curve" smooth="yes"/>
      <point x="294" y="201"/>
      <point x="282" y="145"/>
    </contour>
  </outline>
</glyph>
<glyph name="four" format="2">
  <advance width="498"/>
  <unicode hex="0034"/>
  <outline>
    <contour>
      <point x="249" y="0" type="line"/>
      <point x="422" y="0" type="line"/>
      <point x="422" y="115" type="line"/>
      <point x="489" y="115" type="line"/>
      <point x="489" y="260" type="line"/>
      <point x="422" y="260" type="line"/>
      <point x="422" y="705" type="line"/>
      <point x="265" y="705" type="line"/>
      <point x="15" y="251" type="line"/>
      <point x="15" y="115" type="line"/>
      <point x="249" y="115" type="line"/>
    </contour>
    <contour>
      <point x="249" y="260" type="line"/>
      <point x="151" y="260" type="line"/>
      <point x="151" y="228" type="line"/>
      <point x="276" y="468" type="line"/>
      <point x="249" y="468" type="line"/>
    </contour>
  </outline>
</glyph>
<glyph name="six" format="2">
  <advance width="498"/>
  <unicode hex="0036"/>
  <outline>
    <contour>
      <point x="262" y="-12" type="curve" smooth="yes"/>
      <point x="401" y="-12"/>
      <point x="481" y="83"/>
      <point x="481" y="236" type="curve" smooth="yes"/>
      <point x="481" y="374"/>
      <point x="416" y="466"/>
      <point x="319" y="466" type="curve" smooth="yes"/>
      <point x="249" y="466"/>
      <point x="207" y="423"/>
      <point x="193" y="336" type="curve"/>
      <point x="208" y="336" type="line"/>
      <point x="208" y="383" type="line" smooth="yes"/>
      <point x="208" y="448"/>
      <point x="208" y="555"/>
      <point x="310" y="555" type="curve" smooth="yes"/>
      <point x="350" y="555"/>
      <point x="395" y="539"/>
      <point x="432" y="509" type="curve"/>
      <point x="486" y="653" type="line"/>
      <point x="437" y="694"/>
      <point x="375" y="717"/>
      <point x="301" y="717" type="curve" smooth="yes"/>
      <point x="125" y="717"/>
      <point x="26" y="589"/>
      <point x="26" y="336" type="curve" smooth="yes"/>
      <point x="26" y="112"/>
      <point x="104" y="-12"/>
    </contour>
    <contour>
      <point x="264" y="138" type="curve" smooth="yes"/>
      <point x="238" y="138"/>
      <point x="225" y="167"/>
      <point x="225" y="227" type="curve" smooth="yes"/>
      <point x="225" y="289"/>
      <point x="239" y="317"/>
      <point x="264" y="317" type="curve" smooth="yes"/>
      <point x="290" y="317"/>
      <point x="304" y="289"/>
      <point x="304" y="228" type="curve" smooth="yes"/>
      <point x="304" y="169"/>
      <point x="291" y="138"/>
    </contour>
  </outline>
</glyph>
<glyph name="seven" format="2">
  <advance width="498"/>
  <unicode hex="0037"/>
  <outline>
    <contour>
      <point x="22" y="0" type="line"/>
      <point x="237" y="0" type="line"/>
      <point x="474" y="557" type="line"/>
      <point x="474" y="705" type="line"/>
      <point x="25" y="705" type="line"/>
      <point x="25" y="535" type="line"/>
      <point x="295" y="535" type="line"/>
      <point x="295" y="600" type="line"/>
    </contour>
  </outline>
</glyph>
<glyph name="eight" format="2">
  <advance width="498"/>
  <unicode hex="0038"/>
  <outline>
    <contour>
      <point x="249" y="-12" type="curve" smooth="yes"/>
      <point x="398" y="-12"/>
      <point x="483" y="64"/>
      <point x="483" y="192" type="curve" smooth="yes"/>
      <point x="483" y="305"/>
      <point x="418" y="383"/>
      <point x="326" y="378" type="curve"/>
      <point x="326" y="342" type="line"/>
      <point x="410" y="346"/>
      <point x="467" y="420"/>
      <point x="467" y="519" type="curve" smooth="yes"/>
      <point x="467" y="643"/>
      <point x="385" y="717"/>
      <point x="249" y="717" type="curve" smooth="yes"/>
      <point x="113" y="717"/>
      <point x="31" y="643"/>
      <point x="31" y="519" type="curve" smooth="yes"/>
      <point x="31" y="420"/>
      <point x="88" y="346"/>
      <point x="172" y="342" type="curve"/>
      <point x="172" y="378" type="line"/>
      <point x="80" y="383"/>
      <point x="15" y="305"/>
      <point x="15" y="192" type="curve" smooth="yes"/>
      <point x="15" y="64"/>
      <point x="100" y="-12"/>
    </contour>
    <contour>
      <point x="249" y="136" type="curve" smooth="yes"/>
      <point x="211" y="136"/>
      <point x="191" y="161"/>
      <point x="191" y="209" type="curve" smooth="yes"/>
      <point x="191" y="257"/>
      <point x="211" y="282"/>
      <point x="249" y="282" type="curve" smooth="yes"/>
      <point x="287" y="282"/>
      <point x="307" y="257"/>
      <point x="307" y="209" type="curve" smooth="yes"/>
      <point x="307" y="161"/>
      <point x="287" y="136"/>
    </contour>
    <contour>
      <point x="249" y="430" type="curve" smooth="yes"/>
      <point x="222" y="430"/>
      <point x="208" y="453"/>
      <point x="208" y="500" type="curve" smooth="yes"/>
      <point x="208" y="546"/>
      <point x="222" y="569"/>
      <point x="249" y="569" type="curve" smooth="yes"/>
      <point x="276" y="569"/>
      <point x="290" y="546"/>
      <point x="290" y="500" type="curve" smooth="yes"/>
      <point x="290" y="453"/>
      <point x="276" y="430"/>
    </contour>
  </outline>
</glyph>
<glyph name="semicolon" format="2">
  <advance width="249"/>
  <unicode hex="003B"/>
  <outline>
    <contour>
      <point x="117" y="-168" type="line"/>
      <point x="190" y="-91"/>
      <point x="219" y="-25"/>
      <point x="219" y="65" type="curve" smooth="yes"/>
      <point x="219" y="193" type="line"/>
      <point x="30" y="193" type="line"/>
      <point x="30" y="0" type="line"/>
      <point x="161" y="0" type="line"/>
      <point x="119" y="39" type="line"/>
      <point x="119" y="-13"/>
      <point x="98" y="-57"/>
      <point x="47" y="-112" type="curve"/>
    </contour>
    <contour>
      <point x="30" y="301" type="line"/>
      <point x="219" y="301" type="line"/>
      <point x="219" y="494" type="line"/>
      <point x="30" y="494" type="line"/>
    </contour>
  </outline>
</glyph>
<glyph name="less" format="2">
  <advance width="498"/>
  <unicode hex="003C"/>
  <outline>
    <contour>
      <point x="466" y="29" type="line"/>
      <point x="466" y="167" type="line"/>
      <point x="73" y="333" type="line"/>
      <point x="73" y="241" type="line"/>
      <point x="466" y="407" type="line"/>
      <point x="466" y="545" type="line"/>
      <point x="32" y="357" type="line"/>
      <point x="32" y="217" type="line"/>
    </contour>
  </outline>
</glyph>
<glyph name="equal" format="2">
  <advance width="498"/>
  <unicode hex="003D"/>
  <outline>
    <contour>
      <point x="32" y="326" type="line"/>
      <point x="466" y="326" type="line"/>
      <point x="466" y="450" type="line"/>
      <point x="32" y="450" type="line"/>
    </contour>
    <contour>
      <point x="32" y="124" type="line"/>
      <point x="466" y="124" type="line"/>
      <point x="466" y="248" type="line"/>
      <point x="32" y="248" type="line"/>
    </contour>
  </outline>
</glyph>
<glyph name="question" format="2">
  <advance width="412"/>
  <unicode hex="003F"/>
  <outline>
    <contour>
      <point x="154" y="245" type="line"/>
      <point x="265" y="245" type="line"/>
      <point x="270" y="281" type="line" smooth="yes"/>
      <point x="275" y="315"/>
      <point x="292" y="342"/>
      <point x="335" y="380" type="curve" smooth="yes"/>
      <point x="392" y="431"/>
      <point x="413" y="475"/>
      <point x="413" y="534" type="curve" smooth="yes"/>
      <point x="413" y="648"/>
      <point x="333" y="717"/>
      <point x="210" y="717" type="curve" smooth="yes"/>
      <point x="133" y="717"/>
      <point x="56" y="690"/>
      <point x="5" y="648" type="curve"/>
      <point x="58" y="504" type="line"/>
      <point x="105" y="540"/>
      <point x="141" y="555"/>
      <point x="175" y="555" type="curve" smooth="yes"/>
      <point x="208" y="555"/>
      <point x="221" y="540"/>
      <point x="221" y="510" type="curve" smooth="yes"/>
      <point x="221" y="491"/>
      <point x="216" y="474"/>
      <point x="197" y="444" type="curve" smooth="yes"/>
      <point x="162" y="389"/>
      <point x="154" y="342"/>
      <point x="154" y="302" type="curve" smooth="yes"/>
    </contour>
    <contour>
      <point x="115" y="0" type="line"/>
      <point x="304" y="0" type="line"/>
      <point x="304" y="193" type="line"/>
      <point x="115" y="193" type="line"/>
    </contour>
  </outline>
</glyph>
<glyph name="B" format="2">
  <advance width="589"/>
  <unicode hex="0042"/>
  <anchor x="292" y="0" name="bottom"/>
  <anchor x="292" y="705" name="top"/>
  <outline>
    <contour>
      <point x="45" y="0" type="line"/>
      <point x="345" y="0" type="line" smooth="yes"/>
      <point x="475" y="0"/>
      <point x="563" y="79"/>
      <point x="563" y="205" type="curve" smooth="yes"/>
      <point x="563" y="293"/>
      <point x="520" y="356"/>
      <point x="445" y="374" type="curve"/>
      <point x="445" y="357" type="line"/>
      <point x="507" y="377"/>
      <point x="546" y="441"/>
      <point x="546" y="520" type="curve" smooth="yes"/>
      <point x="546" y="635"/>
      <point x="464" y="705"/>
      <point x="338" y="705" type="curve" smooth="yes"/>
      <point x="45" y="705" type="line"/>
    </contour>
    <contour>
      <point x="232" y="144" type="line"/>
      <point x="232" y="286" type="line"/>
      <point x="315" y="286" type="line" smooth="yes"/>
      <point x="354" y="286"/>
      <point x="377" y="259"/>
      <point x="377" y="215" type="curve" smooth="yes"/>
      <point x="377" y="171"/>
      <point x="354" y="144"/>
      <point x="315" y="144" type="curve" smooth="yes"/>
    </contour>
    <contour>
      <point x="232" y="430" type="line"/>
      <point x="232" y="561" type="line"/>
      <point x="299" y="561" type="line" smooth="yes"/>
      <point x="339" y="561"/>
      <point x="360" y="538"/>
      <point x="360" y="496" type="curve" smooth="yes"/>
      <point x="360" y="453"/>
      <point x="339" y="430"/>
      <point x="299" y="430" type="curve" smooth="yes"/>
    </contour>
  </outline>
</glyph>
<glyph name="F" format="2">
  <advance width="491"/>
  <unicode hex="0046"/>
  <anchor x="254" y="0" name="bottom"/>
  <anchor x="259" y="705" name="top"/>
  <outline>
    <contour>
      <point x="45" y="0" type="line"/>
      <point x="242" y="0" type="line"/>
      <point x="242" y="274" type="line"/>
      <point x="451" y="274" type="line"/>
      <point x="451" y="425" type="line"/>
      <point x="242" y="425" type="line"/>
      <point x="242" y="554" type="line"/>
      <point x="470" y="554" type="line"/>
      <point x="470" y="705" type="line"/>
      <point x="45" y="705" type="line"/>
    </contour>
  </outline>
</glyph>
<glyph name="M" format="2">
  <advance width="746"/>
  <unicode hex="004D"/>
  <anchor x="373" y="0" name="bottom"/>
  <anchor x="373" y="705" name="top"/>
  <outline>
    <contour>
      <point x="47" y="0" type="line"/>
      <point x="228" y="0" type="line"/>
      <point x="228" y="412" type="line"/>
      <point x="210" y="412" type="line"/>
      <point x="322" y="120" type="line"/>
      <point x="421" y="120" type="line"/>
      <point x="533" y="412" type="line"/>
      <point x="518" y="412" type="line"/>
      <point x="518" y="0" type="line"/>
      <point x="699" y="0" type="line"/>
      <point x="699" y="705" type="line"/>
      <point x="506" y="705" type="line"/>
      <point x="350" y="303" type="line"/>
      <point x="400" y="303" type="line"/>
      <point x="244" y="705" type="line"/>
      <point x="47" y="705" type="line"/>
    </contour>
  </outline>
</glyph>
<glyph name="R" format="2">
  <advance width="598"/>
  <unicode hex="0052"/>
  <anchor x="302" y="0" name="bottom"/>
  <anchor x="302" y="705" name="top"/>
  <outline>
    <contour>
      <point x="45" y="0" type="line"/>
      <point x="242" y="0" type="line"/>
      <point x="242" y="250" type="line"/>
      <point x="253" y="250" type="line" smooth="yes"/>
      <point x="270" y="250"/>
      <point x="281" y="239"/>
      <point x="291" y="216" type="curve" smooth="yes"/>
      <point x="383" y="0" type="line"/>
      <point x="601" y="0" type="line"/>
      <point x="522" y="188" type="line" smooth="yes"/>
      <point x="499" y="242"/>
      <point x="459" y="271"/>
      <point x="410" y="271" type="curve" smooth="yes"/>
      <point x="354" y="271" type="line"/>
      <point x="344" y="252" type="line"/>
      <point x="478" y="252"/>
      <point x="558" y="337"/>
      <point x="558" y="479" type="curve" smooth="yes"/>
      <point x="558" y="618"/>
      <point x="475" y="705"/>
      <point x="341" y="705" type="curve" smooth="yes"/>
      <point x="45" y="705" type="line"/>
    </contour>
    <contour>
      <point x="242" y="389" type="line"/>
      <point x="242" y="554" type="line"/>
      <point x="304" y="554" type="line" smooth="yes"/>
      <point x="347" y="554"/>
      <point x="372" y="524"/>
      <point x="372" y="472" type="curve" smooth="yes"/>
      <point x="372" y="419"/>
      <point x="347" y="389"/>
      <point x="304" y="389" type="curve" smooth="yes"/>
    </contour>
  </outline>
</glyph>
<glyph name="S" format="2">
  <advance width="553"/>
  <unicode hex="0053"/>
  <anchor x="279" y="0" name="bottom"/>
  <anchor x="289" y="705" name="top"/>
  <outline>
    <contour>
      <point x="272" y="-12" type="curve" smooth="yes"/>
      <point x="428" y="-12"/>
      <point x="533" y="78"/>
      <point x="533" y="223" type="curve" smooth="yes"/>
      <point x="533" y="324"/>
      <point x="481" y="390"/>
      <point x="380" y="416" type="curve" smooth="yes"/>
      <point x="283" y="441" type="line" smooth="yes"/>
      <point x="252" y="449"/>
      <point x="235" y="468"/>
      <point x="235" y="495" type="curve" smooth="yes"/>
      <point x="235" y="532"/>
      <point x="264" y="555"/>
      <point x="312" y="555" type="curve" smooth="yes"/>
      <point x="360" y="555"/>
      <point x="424" y="534"/>
      <point x="459" y="506" type="curve"/>
      <point x="507" y="650" type="line"/>
      <point x="461" y="691"/>
      <point x="382" y="717"/>
      <point x="302" y="717" type="curve" smooth="yes"/>
      <point x="147" y="717"/>
      <point x="43" y="621"/>
      <point x="43" y="478" type="curve" smooth="yes"/>
      <point x="43" y="376"/>
      <point x="95" y="310"/>
      <point x="198" y="283" type="curve" smooth="yes"/>
      <point x="296" y="257" type="line" smooth="yes"/>
      <point x="326" y="249"/>
      <point x="342" y="230"/>
      <point x="342" y="203" type="curve" smooth="yes"/>
      <point x="342" y="168"/>
      <point x="317" y="150"/>
      <point x="269" y="150" type="curve" smooth="yes"/>
      <point x="212" y="150"/>
      <point x="131" y="176"/>
      <point x="82" y="209" type="curve"/>
      <point x="34" y="55" type="line"/>
      <point x="91" y="15"/>
      <point x="186" y="-12"/>
    </contour>
  </outline>
</glyph>
<glyph name="V" format="2">
  <advance width="634"/>
  <unicode hex="0056"/>
  <anchor x="317" y="0" name="bottom"/>
  <anchor x="317" y="705" name="top"/>
  <outline>
    <contour>
      <point x="241" y="0" type="line"/>
      <point x="393" y="0" type="line"/>
      <point x="659" y="705" type="line"/>
      <point x="459" y="705" type="line"/>
      <point x="290" y="194" type="line"/>
      <point x="352" y="194" type="line"/>
      <point x="183" y="705" type="line"/>
      <point x="-25" y="705" type="line"/>
    </contour>
  </outline>
</glyph>
<glyph name="W" format="2">
  <advance width="934"/>
  <unicode hex="0057"/>
  <anchor x="467" y="0" name="bottom"/>
  <anchor x="467" y="705" name="top"/>
  <outline>
    <contour>
      <point x="209" y="0" type="line"/>
      <point x="368" y="0" type="line"/>
      <point x="477" y="439" type="line"/>
      <point x="457" y="439" type="line"/>
      <point x="566" y="0" type="line"/>
      <point x="725" y="0" type="line"/>
      <point x="930" y="705" type="line"/>
      <point x="742" y="705" type="line"/>
      <point x="630" y="212" type="line"/>
      <point x="665" y="212" type="line"/>
      <point x="543" y="705" type="line"/>
      <point x="403" y="705" type="line"/>
      <point x="281" y="212" type="line"/>
      <point x="316" y="212" type="line"/>
      <point x="204" y="705" type="line"/>
      <point x="4" y="705" type="line"/>
    </contour>
  </outline>
</glyph>
<glyph name="X" format="2">
  <advance width="596"/>
  <unicode hex="0058"/>
  <anchor x="299" y="0" name="bottom"/>
  <anchor x="298" y="705" name="top"/>
  <outline>
    <contour>
      <point x="-33" y="0" type="line"/>
      <point x="195" y="0" type="line"/>
      <point x="328" y="259" type="line"/>
      <point x="268" y="259" type="line"/>
      <point x="401" y="0" type="line"/>
      <point x="629" y="0" type="line"/>
      <point x="379" y="400" type="line"/>
      <point x="379" y="310" type="line"/>
      <point x="628" y="705" type="line"/>
      <point x="400" y="705" type="line"/>
      <point x="265" y="449" type="line"/>
      <point x="330" y="449" type="line"/>
      <point x="197" y="705" type="line"/>
      <point x="-31" y="705" type="line"/>
      <point x="217" y="310" type="line"/>
      <point x="217" y="400" type="line"/>
    </contour>
  </outline>
</glyph>
<glyph name="Z" format="2">
  <advance width="531"/>
  <unicode hex="005A"/>
  <anchor x="271" y="0" name="bottom"/>
  <anchor x="271" y="705" name="top"/>
  <outline>
    <contour>
      <point x="39" y="0" type="line"/>
      <point x="511" y="0" type="line"/>
      <point x="511" y="160" type="line"/>
      <point x="219" y="160" type="line"/>
      <point x="219" y="109" type="line"/>
      <point x="497" y="561" type="line"/>
      <point x="497" y="705" type="line"/>
      <point x="39" y="705" type="line"/>
      <point x="39" y="545" type="line"/>
      <point x="317" y="545" type="line"/>
      <point x="317" y="596" type="line"/>
      <point x="39" y="144" type="line"/>
    </contour>
  </outline>
</glyph>
<glyph name="bracketright" format="2">
  <advance width="373"/>
  <unicode hex="005D"/>
  <outline>
    <contour>
      <point x="22" y="-180" type="line"/>
      <point x="290" y="-180" type="line"/>
      <point x="290" y="705" type="line"/>
      <point x="22" y="705" type="line"/>
      <point x="22" y="565" type="line"/>
      <point x="100" y="565" type="line"/>
      <point x="100" y="-40" type="line"/>
      <point x="22" y="-40" type="line"/>
    </contour>
  </outline>
</glyph>
<glyph name="asciicircum" format="2">
  <advance width="498"/>
  <unicode hex="005E"/>
  <outline>
    <contour>
      <point x="-8" y="157" type="line"/>
      <point x="136" y="157" type="line"/>
      <point x="293" y="583" type="line"/>
      <point x="205" y="583" type="line"/>
      <point x="362" y="157" type="line"/>
      <point x="506" y="157" type="line"/>
      <point x="319" y="628" type="line"/>
      <point x="179" y="628" type="line"/>
    </contour>
  </outline>
</glyph>
<glyph name="a" format="2">
  <advance width="487"/>
  <unicode hex="0061"/>
  <anchor x="241" y="0" name="bottom"/>
  <anchor x="404" y="0" name="ogonek"/>
  <anchor x="245" y="484" name="top"/>
  <outline>
    <contour>
      <point x="172" y="-12" type="curve" smooth="yes"/>
      <point x="238" y="-12"/>
      <point x="267" y="25"/>
      <point x="280" y="92" type="curve"/>
      <point x="278" y="92" type="line"/>
      <point x="278" y="0" type="line"/>
      <point x="454" y="0" type="line"/>
      <point x="454" y="290" type="line" smooth="yes"/>
      <point x="454" y="432"/>
      <point x="382" y="506"/>
      <point x="243" y="506" type="curve" smooth="yes"/>
      <point x="168" y="506"/>
      <point x="87" y="484"/>
      <point x="32" y="449" type="curve"/>
      <point x="83" y="322" type="line"/>
      <point x="126" y="351"/>
      <point x="179" y="363"/>
      <point x="221" y="363" type="curve" smooth="yes"/>
      <point x="259" y="363"/>
      <point x="275" y="350"/>
      <point x="275" y="317" type="curve" smooth="yes"/>
      <point x="275" y="174" type="line" smooth="yes"/>
      <point x="275" y="136"/>
      <point x="256" y="115"/>
      <point x="235" y="115" type="curve" smooth="yes"/>
      <point x="211" y="115"/>
      <point x="195" y="134"/>
      <point x="195" y="156" type="curve" smooth="yes"/>
      <point x="195" y="188"/>
      <point x="216" y="206"/>
      <point x="258" y="206" type="curve" smooth="yes"/>
      <point x="291" y="206" type="line"/>
      <point x="291" y="296" type="line"/>
      <point x="234" y="296" type="line" smooth="yes"/>
      <point x="93" y="296"/>
      <point x="16" y="252"/>
      <point x="16" y="154" type="curve" smooth="yes"/>
      <point x="16" y="56"/>
      <point x="96" y="-12"/>
    </contour>
  </outline>
</glyph>
<glyph name="c" format="2">
  <advance width="410"/>
  <unicode hex="0063"/>
  <anchor x="245" y="0" name="bottom"/>
  <anchor x="245" y="484" name="top"/>
  <outline>
    <contour>
      <point x="265" y="-12" type="curve" smooth="yes"/>
      <point x="318" y="-12"/>
      <point x="379" y="4"/>
      <point x="413" y="32" type="curve"/>
      <point x="364" y="163" type="line"/>
      <point x="341" y="145"/>
      <point x="307" y="131"/>
      <point x="284" y="131" type="curve" smooth="yes"/>
      <point x="242" y="131"/>
      <point x="214" y="163"/>
      <point x="214" y="247" type="curve" smooth="yes"/>
      <point x="214" y="331"/>
      <point x="242" y="363"/>
      <point x="282" y="363" type="curve" smooth="yes"/>
      <point x="307" y="363"/>
      <point x="339" y="350"/>
      <point x="364" y="331" type="curve"/>
      <point x="413" y="462" type="line"/>
      <point x="379" y="490"/>
      <point x="318" y="506"/>
      <point x="265" y="506" type="curve" smooth="yes"/>
      <point x="112" y="506"/>
      <point x="20" y="409"/>
      <point x="20" y="247" type="curve" smooth="yes"/>
      <point x="20" y="85"/>
      <point x="112" y="-12"/>
    </contour>
  </outline>
</glyph>
<glyph name="h" format="2">
  <advance width="517"/>
  <unicode hex="0068"/>
  <anchor x="260" y="0" name="bottom"/>
  <anchor x="260" y="249" name="center"/>
  <anchor x="355" y="350" name="dot"/>
  <anchor x="170" y="593" name="stroke"/>
  <anchor x="259" y="705" name="top"/>
  <anchor x="236" y="705" name="topright"/>
  <outline>
    <contour>
      <point x="34" y="0" type="line"/>
      <point x="224" y="0" type="line"/>
      <point x="224" y="304" type="line" smooth="yes"/>
      <point x="224" y="338"/>
      <point x="239" y="360"/>
      <point x="264" y="360" type="curve" smooth="yes"/>
      <point x="282" y="360"/>
      <point x="294" y="348"/>
      <point x="294" y="312" type="curve" smooth="yes"/>
      <point x="294" y="0" type="line"/>
      <point x="484" y="0" type="line"/>
      <point x="484" y="329" type="line" smooth="yes"/>
      <point x="484" y="442"/>
      <point x="440" y="506"/>
      <point x="350" y="506" type="curve" smooth="yes"/>
      <point x="285" y="506"/>
      <point x="239" y="470"/>
      <point x="217" y="411" type="curve"/>
      <point x="224" y="411" type="line"/>
      <point x="224" y="705" type="line"/>
      <point x="34" y="705" type="line"/>
    </contour>
  </outline>
</glyph>
<glyph name="j" format="2">
  <advance width="265"/>
  <unicode hex="006A"/>
  <outline>
    <contour>
      <point x="38" y="573" type="line"/>
      <point x="231" y="573" type="line"/>
      <point x="231" y="743" type="line"/>
      <point x="38" y="743" type="line"/>
    </contour>
    <contour>
      <point x="-22" y="-193" type="line"/>
      <point x="14" y="-190" type="line" smooth="yes"/>
      <point x="193" y="-175"/>
      <point x="230" y="-120"/>
      <point x="230" y="17" type="curve" smooth="yes"/>
      <point x="230" y="494" type="line"/>
      <point x="40" y="494" type="line"/>
      <point x="40" y="-11" type="line" smooth="yes"/>
      <point x="40" y="-39"/>
      <point x="29" y="-50"/>
      <point x="7" y="-53" type="curve" smooth="yes"/>
      <point x="-35" y="-59" type="line"/>
    </contour>
  </outline>
</glyph>
<glyph name="t" format="2">
  <advance width="388"/>
  <unicode hex="0074"/>
  <anchor x="219" y="0" name="bottom"/>
  <anchor x="180" y="251" name="center"/>
  <anchor x="167" y="635" name="top"/>
  <anchor x="280" y="705" name="topright"/>
  <outline>
    <contour>
      <point x="267" y="-12" type="curve" smooth="yes"/>
      <point x="308" y="-12"/>
      <point x="347" y="-3"/>
      <point x="379" y="13" type="curve"/>
      <point x="354" y="151" type="line"/>
      <point x="339" y="145"/>
      <point x="317" y="141"/>
      <point x="303" y="141" type="curve" smooth="yes"/>
      <point x="279" y="141"/>
      <point x="262" y="153"/>
      <point x="262" y="185" type="curve" smooth="yes"/>
      <point x="262" y="356" type="line"/>
      <point x="370" y="356" type="line"/>
      <point x="370" y="494" type="line"/>
      <point x="262" y="494" type="line"/>
      <point x="262" y="635" type="line"/>
      <point x="72" y="635" type="line"/>
      <point x="72" y="494" type="line"/>
      <point x="-1" y="494" type="line"/>
      <point x="-1" y="356" type="line"/>
      <point x="72" y="356" type="line"/>
      <point x="72" y="182" type="line" smooth="yes"/>
      <point x="72" y="51"/>
      <point x="135" y="-12"/>
    </contour>
  </outline>
</glyph>
<glyph name="x" format="2">
  <advance width="494"/>
  <unicode hex="0078"/>
  <anchor x="247" y="0" name="bottom"/>
  <anchor x="247" y="484" name="top"/>
  <outline>
    <contour>
      <point x="-33" y="0" type="line"/>
      <point x="181" y="0" type="line"/>
      <point x="280" y="168" type="line"/>
      <point x="215" y="168" type="line"/>
      <point x="308" y="0" type="line"/>
      <point x="528" y="0" type="line"/>
      <point x="323" y="297" type="line"/>
      <point x="323" y="211" type="line"/>
      <point x="516" y="494" type="line"/>
      <point x="302" y="494" type="line"/>
      <point x="215" y="338" type="line"/>
      <point x="280" y="338" type="line"/>
      <point x="199" y="494" type="line"/>
      <point x="-21" y="494" type="line"/>
      <point x="170" y="212" type="line"/>
      <point x="170" y="295" type="line"/>
    </contour>
  </outline>
</glyph>
<glyph name="y" format="2">
  <advance width="459"/>
  <unicode hex="0079"/>
  <anchor x="378" y="0" name="bottom"/>
  <anchor x="230" y="484" name="top"/>
  <outline>
    <contour>
      <point x="51" y="-180" type="line"/>
      <point x="243" y="-180" type="line"/>
      <point x="486" y="494" type="line"/>
      <point x="301" y="494" type="line"/>
      <point x="218" y="184" type="line"/>
      <point x="249" y="184" type="line"/>
      <point x="172" y="494" type="line"/>
      <point x="-27" y="494" type="line"/>
      <point x="156" y="-14" type="line"/>
      <point x="156" y="74" type="line"/>
    </contour>
  </outline>
</glyph>
<glyph name="z" format="2">
  <advance width="413"/>
  <unicode hex="007A"/>
  <anchor x="209" y="0" name="bottom"/>
  <anchor x="209" y="484" name="top"/>
  <outline>
    <contour>
      <point x="32" y="0" type="line"/>
      <point x="395" y="0" type="line"/>
      <point x="395" y="138" type="line"/>
      <point x="193" y="138" type="line"/>
      <point x="193" y="90" type="line"/>
      <point x="387" y="372" type="line"/>
      <point x="387" y="494" type="line"/>
      <point x="32" y="494" type="line"/>
      <point x="32" y="356" type="line"/>
      <point x="220" y="356" type="line"/>
      <point x="220" y="404" type="line"/>
      <point x="32" y="122" type="line"/>
    </contour>
  </outline>
</glyph>
<glyph name="exclamdown" format="2">
  <advance width="248"/>
  <unicode hex="00A1"/>
  <outline>
    <contour>
      <point x="8" y="-180" type="line"/>
      <point x="241" y="-180" type="line"/>
      <point x="181" y="249" type="line"/>
      <point x="68" y="249" type="line"/>
    </contour>
    <contour>
      <point x="30" y="301" type="line"/>
      <point x="219" y="301" type="line"/>
      <point x="219" y="494" type="line"/>
      <point x="30" y="494" type="line"/>
    </contour>
  </outline>
</glyph>
<glyph name="yen" format="2">
  <advance width="498"/>
  <unicode hex="00A5"/>
  <outline>
    <contour>
      <point x="150" y="0" type="line"/>
      <point x="347" y="0" type="line"/>
      <point x="347" y="156" type="line"/>
      <point x="445" y="156" type="line"/>
      <point x="445" y="260" type="line"/>
      <point x="347" y="260" type="line"/>
      <point x="347" y="300" type="line"/>
      <point x="445" y="300" type="line"/>
      <point x="445" y="404" type="line"/>
      <point x="367" y="404" type="line"/>
      <point x="367" y="390" type="line"/>
      <point x="527" y="705" type="line"/>
      <point x="319" y="705" type="line"/>
      <point x="229" y="467" type="line"/>
      <point x="267" y="467" type="line"/>
      <point x="179" y="705" type="line"/>
      <point x="-29" y="705" type="line"/>
      <point x="131" y="390" type="line"/>
      <point x="131" y="404" type="line"/>
      <point x="53" y="404" type="line"/>
      <point x="53" y="300" type="line"/>
      <point x="150" y="300" type="line"/>
      <point x="150" y="260" type="line"/>
      <point x="53" y="260" type="line"/>
      <point x="53" y="156" type="line"/>
      <point x="150" y="156" type="line"/>
    </contour>
  </outline>
</glyph>
<glyph name="section" format="2">
  <advance width="519"/>
  <unicode hex="00A7"/>
  <outline>
    <contour>
      <point x="233" y="-192" type="curve" smooth="yes"/>
      <point x="377" y="-192"/>
      <point x="467" y="-123"/>
      <point x="467" y="-9" type="curve" smooth="yes"/>
      <point x="467" y="46"/>
      <point x="448" y="91"/>
      <point x="411" y="121" type="curve"/>
      <point x="398" y="72" type="line"/>
      <point x="467" y="114"/>
      <point x="501" y="170"/>
      <point x="501" y="242" type="curve" smooth="yes"/>
      <point x="501" y="320"/>
      <point x="461" y="384"/>
      <point x="388" y="420" type="curve" smooth="yes"/>
      <point x="269" y="479" type="line" smooth="yes"/>
      <point x="244" y="491"/>
      <point x="230" y="511"/>
      <point x="230" y="538" type="curve" smooth="yes"/>
      <point x="230" y="571"/>
      <point x="252" y="590"/>
      <point x="292" y="590" type="curve" smooth="yes"/>
      <point x="328" y="590"/>
      <point x="376" y="575"/>
      <point x="419" y="550" type="curve"/>
      <point x="459" y="670" type="line"/>
      <point x="410" y="700"/>
      <point x="344" y="717"/>
      <point x="276" y="717" type="curve" smooth="yes"/>
      <point x="138" y="717"/>
      <point x="52" y="647"/>
      <point x="52" y="534" type="curve" smooth="yes"/>
      <point x="52" y="479"/>
      <point x="71" y="434"/>
      <point x="108" y="404" type="curve"/>
      <point x="121" y="453" type="line"/>
      <point x="52" y="411"/>
      <point x="18" y="355"/>
      <point x="18" y="283" type="curve" smooth="yes"/>
      <point x="18" y="205"/>
      <point x="58" y="141"/>
      <point x="131" y="105" type="curve" smooth="yes"/>
      <point x="250" y="46" type="line" smooth="yes"/>
      <point x="276" y="33"/>
      <point x="289" y="15"/>
      <point x="289" y="-11" type="curve" smooth="yes"/>
      <point x="289" y="-46"/>
      <point x="263" y="-65"/>
      <point x="223" y="-65" type="curve" smooth="yes"/>
      <point x="180" y="-65"/>
      <point x="118" y="-42"/>
      <point x="81" y="-15" type="curve"/>
      <point x="42" y="-138" type="line"/>
      <point x="86" y="-172"/>
      <point x="155" y="-192"/>
    </contour>
    <contour>
      <point x="183" y="318" type="curve" smooth="yes"/>
      <point x="183" y="337"/>
      <point x="187" y="356"/>
      <point x="196" y="378" type="curve"/>
      <point x="144" y="371" type="line"/>
      <point x="153" y="362"/>
      <point x="166" y="352"/>
      <point x="177" y="346" type="curve" smooth="yes"/>
      <point x="280" y="294" type="line" smooth="yes"/>
      <point x="320" y="274"/>
      <point x="336" y="243"/>
      <point x="336" y="207" type="curve" smooth="yes"/>
      <point x="336" y="188"/>
      <point x="332" y="169"/>
      <point x="323" y="147" type="curve"/>
      <point x="375" y="154" type="line"/>
      <point x="366" y="163"/>
      <point x="353" y="173"/>
      <point x="342" y="179" type="curve" smooth="yes"/>
      <point x="239" y="231" type="line" smooth="yes"/>
      <point x="199" y="251"/>
      <point x="183" y="282"/>
    </contour>
  </outline>
</glyph>
<glyph name="copyright" format="2">
  <advance width="668"/>
  <unicode hex="00A9"/>
  <outline>
    <contour>
      <point x="334" y="-12" type="curve" smooth="yes"/>
      <point x="515" y="-12"/>
      <point x="642" y="135"/>
      <point x="642" y="353" type="curve" smooth="yes"/>
      <point x="642" y="571"/>
      <point x="515" y="717"/>
      <point x="334" y="717" type="curve" smooth="yes"/>
      <point x="153" y="717"/>
      <point x="26" y="570"/>
      <point x="26" y="352" type="curve" smooth="yes"/>
      <point x="26" y="134"/>
      <point x="153" y="-12"/>
    </contour>
    <contour>
      <point x="348" y="135" type="curve" smooth="yes"/>
      <point x="397" y="135"/>
      <point x="440" y="150"/>
      <point x="471" y="176" type="curve"/>
      <point x="436" y="276" type="line"/>
      <point x="418" y="265"/>
      <point x="405" y="255"/>
      <point x="379" y="255" type="curve" smooth="yes"/>
      <point x="335" y="255"/>
      <point x="315" y="285"/>
      <point x="315" y="353" type="curve" smooth="yes"/>
      <point x="315" y="420"/>
      <point x="335" y="450"/>
      <point x="381" y="450" type="curve" smooth="yes"/>
      <point x="399" y="450"/>
      <point x="416" y="444"/>
      <point x="437" y="431" type="curve"/>
      <point x="471" y="531" type="line"/>
      <point x="442" y="556"/>
      <point x="399" y="570"/>
      <point x="351" y="570" type="curve" smooth="yes"/>
      <point x="234" y="570"/>
      <point x="164" y="489"/>
      <point x="164" y="353" type="curve" smooth="yes"/>
      <point x="164" y="216"/>
      <point x="234" y="135"/>
    </contour>
    <contour>
      <point x="334" y="50" type="curve" smooth="yes"/>
      <point x="187" y="50"/>
      <point x="94" y="163"/>
      <point x="94" y="352" type="curve" smooth="yes"/>
      <point x="94" y="541"/>
      <point x="187" y="655"/>
      <point x="334" y="655" type="curve" smooth="yes"/>
      <point x="481" y="655"/>
      <point x="574" y="542"/>
      <point x="574" y="353" type="curve" smooth="yes"/>
      <point x="574" y="164"/>
      <point x="481" y="50"/>
    </contour>
  </outline>
</glyph>
<glyph name="ordmasculine" format="2">
  <advance width="318"/>
  <unicode hex="00BA"/>
  <outline>
    <contour>
      <point x="159" y="407" type="curve" smooth="yes"/>
      <point x="244" y="407"/>
      <point x="308" y="458"/>
      <point x="308" y="562" type="curve" smooth="yes"/>
      <point x="308" y="666"/>
      <point x="244" y="717"/>
      <point x="159" y="717" type="curve" smooth="yes"/>
      <point x="74" y="717"/>
      <point x="10" y="666"/>
      <point x="10" y="562" type="curve" smooth="yes"/>
      <point x="10" y="458"/>
      <point x="74" y="407"/>
    </contour>
    <contour>
      <point x="159" y="495" type="curve" smooth="yes"/>
      <point x="140" y="495"/>
      <point x="127" y="507"/>
      <point x="127" y="562" type="curve" smooth="yes"/>
      <point x="127" y="617"/>
      <point x="140" y="629"/>
      <point x="159" y="629" type="curve" smooth="yes"/>
      <point x="178" y="629"/>
      <point x="191" y="617"/>
      <point x="191" y="562" type="curve" smooth="yes"/>
      <point x="191" y="507"/>
      <point x="178" y="495"/>
    </contour>
  </outline>
</glyph>
<glyph name="multiply" format="2">
  <advance width="498"/>
  <unicode hex="00D7"/>
  <outline>
    <contour>
      <point x="127" y="78" type="line"/>
      <point x="249" y="201" type="line"/>
      <point x="371" y="78" type="line"/>
      <point x="456" y="163" type="line"/>
      <point x="333" y="287" type="line"/>
      <point x="456" y="411" type="line"/>
      <point x="371" y="496" type="line"/>
      <point x="249" y="373" type="line"/>
      <point x="127" y="496" type="line"/>
      <point x="42" y="411" type="line"/>
      <point x="165" y="287" type="line"/>
      <point x="42" y="163" type="line"/>
    </contour>
  </outline>
</glyph>
<glyph name="eth" format="2">
  <advance width="520"/>
  <unicode hex="00F0"/>
  <outline>
    <contour>
      <point x="259" y="-12" type="curve" smooth="yes"/>
      <point x="420" y="-12"/>
      <point x="504" y="84"/>
      <point x="504" y="267" type="curve" smooth="yes"/>
      <point x="504" y="405"/>
      <point x="454" y="520"/>
      <point x="368" y="601" type="curve"/>
      <point x="368" y="586" type="line"/>
      <point x="476" y="643" type="line"/>
      <point x="438" y="717" type="line"/>
      <point x="294" y="640" type="line"/>
      <point x="321" y="639" type="line"/>
      <point x="262" y="680"/>
      <point x="190" y="707"/>
      <point x="108" y="717" type="curve"/>
      <point x="81" y="611" type="line"/>
      <point x="123" y="606"/>
      <point x="161" y="593"/>
      <point x="194" y="574" type="curve"/>
      <point x="196" y="588" type="line"/>
      <point x="77" y="525" type="line"/>
      <point x="115" y="451" type="line"/>
      <point x="269" y="533" type="line"/>
      <point x="249" y="534" type="line"/>
      <point x="301" y="484"/>
      <point x="333" y="414"/>
      <point x="334" y="335" type="curve"/>
      <point x="369" y="335" type="line"/>
      <point x="327" y="421"/>
      <point x="288" y="452"/>
      <point x="217" y="452" type="curve" smooth="yes"/>
      <point x="98" y="452"/>
      <point x="20" y="361"/>
      <point x="20" y="222" type="curve" smooth="yes"/>
      <point x="20" y="74"/>
      <point x="107" y="-12"/>
    </contour>
    <contour>
      <point x="259" y="125" type="curve" smooth="yes"/>
      <point x="225" y="125"/>
      <point x="211" y="153"/>
      <point x="211" y="220" type="curve" smooth="yes"/>
      <point x="211" y="287"/>
      <point x="225" y="315"/>
      <point x="259" y="315" type="curve" smooth="yes"/>
      <point x="293" y="315"/>
      <point x="307" y="287"/>
      <point x="307" y="220" type="curve" smooth="yes"/>
      <point x="307" y="153"/>
      <point x="293" y="125"/>
    </contour>
  </outline>
</glyph>
<glyph name="divide" format="2">
  <advance width="498"/>
  <unicode hex="00F7"/>
  <outline>
    <contour>
      <point x="32" y="225" type="line"/>
      <point x="466" y="225" type="line"/>
      <point x="466" y="349" type="line"/>
      <point x="32" y="349" type="line"/>
    </contour>
    <contour>
      <point x="183" y="27" type="line"/>
      <point x="315" y="27" type="line"/>
      <point x="315" y="160" type="line"/>
      <point x="183" y="160" type="line"/>
    </contour>
    <contour>
      <point x="183" y="414" type="line"/>
      <point x="315" y="414" type="line"/>
      <point x="315" y="547" type="line"/>
      <point x="183" y="547" type="line"/>
    </contour>
  </outline>
</glyph>
<glyph name="dcroat" format="2">
  <advance width="528"/>
  <unicode hex="0111"/>
  <outline>
    <contour>
      <point x="191" y="-12" type="curve" smooth="yes"/>
      <point x="256" y="-12"/>
      <point x="302" y="25"/>
      <point x="316" y="83" type="curve"/>
      <point x="307" y="83" type="line"/>
      <point x="307" y="0" type="line"/>
      <point x="494" y="0" type="line"/>
      <point x="494" y="528" type="line"/>
      <point x="557" y="528" type="line"/>
      <point x="557" y="657" type="line"/>
      <point x="494" y="657" type="line"/>
      <point x="494" y="705" type="line"/>
      <point x="304" y="705" type="line"/>
      <point x="304" y="657" type="line"/>
      <point x="160" y="657" type="line"/>
      <point x="160" y="528" type="line"/>
      <point x="304" y="528" type="line"/>
      <point x="304" y="391" type="line"/>
      <point x="316" y="391" type="line"/>
      <point x="302" y="450"/>
      <point x="256" y="486"/>
      <point x="192" y="486" type="curve" smooth="yes"/>
      <point x="86" y="486"/>
      <point x="20" y="393"/>
      <point x="20" y="237" type="curve" smooth="yes"/>
      <point x="20" y="81"/>
      <point x="86" y="-12"/>
    </contour>
    <contour>
      <point x="259" y="129" type="curve" smooth="yes"/>
      <point x="226" y="129"/>
      <point x="211" y="162"/>
      <point x="211" y="237" type="curve" smooth="yes"/>
      <point x="211" y="312"/>
      <point x="226" y="345"/>
      <point x="259" y="345" type="curve" smooth="yes"/>
      <point x="292" y="345"/>
      <point x="307" y="311"/>
      <point x="307" y="237" type="curve" smooth="yes"/>
      <point x="307" y="163"/>
      <point x="292" y="129"/>
    </contour>
  </outline>
</glyph>
<glyph name="Hbar" format="2">
  <advance width="708"/>
  <unicode hex="0126"/>
  <outline>
    <contour>
      <point x="71" y="0" type="line"/>
      <point x="268" y="0" type="line"/>
      <point x="268" y="266" type="line"/>
      <point x="440" y="266" type="line"/>
      <point x="440" y="0" type="line"/>
      <point x="637" y="0" type="line"/>
      <point x="637" y="503" type="line"/>
      <point x="694" y="503" type="line"/>
      <point x="694" y="641" type="line"/>
      <point x="637" y="641" type="line"/>
      <point x="637" y="705" type="line"/>
      <point x="440" y="705" type="line"/>
      <point x="440" y="641" type="line"/>
      <point x="268" y="641" type="line"/>
      <point x="268" y="705" type="line"/>
      <point x="71" y="705" type="line"/>
      <point x="71" y="641" type="line"/>
      <point x="14" y="641" type="line"/>
      <point x="14" y="503" type="line"/>
      <point x="71" y="503" type="line"/>
    </contour>
    <contour>
      <point x="268" y="428" type="line"/>
      <point x="268" y="503" type="line"/>
      <point x="440" y="503" type="line"/>
      <point x="440" y="428" type="line"/>
    </contour>
  </outline>
</glyph>
<glyph name="Eng" format="2">
  <advance width="630"/>
  <unicode hex="014A"/>
  <anchor x="315" y="0" name="bottom"/>
  <anchor x="315" y="705" name="top"/>
  <outline>
    <contour>
      <point x="333" y="-193" type="line"/>
      <point x="369" y="-190" type="line" smooth="yes"/>
      <point x="548" y="-175"/>
      <point x="585" y="-120"/>
      <point x="585" y="17" type="curve" smooth="yes"/>
      <point x="585" y="705" type="line"/>
      <point x="404" y="705" type="line"/>
      <point x="404" y="271" type="line"/>
      <point x="459" y="271" type="line"/>
      <point x="188" y="705" type="line"/>
      <point x="45" y="705" type="line"/>
      <point x="45" y="0" type="line"/>
      <point x="226" y="0" type="line"/>
      <point x="226" y="434" type="line"/>
      <point x="171" y="434" type="line"/>
      <point x="442" y="0" type="line"/>
      <point x="404" y="127" type="line"/>
      <point x="404" y="-11" type="line" smooth="yes"/>
      <point x="404" y="-39"/>
      <point x="389.877" y="-49.018"/>
      <point x="362" y="-53" type="curve" smooth="yes"/>
      <point x="320" y="-59" type="line"/>
    </contour>
  </outline>
</glyph>
<glyph name="eng" format="2">
  <advance width="517"/>
  <unicode hex="014B"/>
  <outline>
    <contour>
      <point x="232" y="-193" type="line"/>
      <point x="268" y="-190" type="line" smooth="yes"/>
      <point x="439" y="-176"/>
      <point x="481" y="-125"/>
      <point x="484" y="0" type="curve" smooth="yes"/>
      <point x="484" y="329" type="line" smooth="yes"/>
      <point x="484" y="442"/>
      <point x="440" y="506"/>
      <point x="350" y="506" type="curve" smooth="yes"/>
      <point x="285" y="506"/>
      <point x="233" y="470"/>
      <point x="211" y="411" type="curve"/>
      <point x="218" y="411" type="line"/>
      <point x="218" y="494" type="line"/>
      <point x="34" y="494" type="line"/>
      <point x="34" y="0" type="line"/>
      <point x="224" y="0" type="line"/>
      <point x="224" y="304" type="line" smooth="yes"/>
      <point x="224" y="338"/>
      <point x="239" y="360"/>
      <point x="264" y="360" type="curve" smooth="yes"/>
      <point x="282" y="360"/>
      <point x="294" y="348"/>
      <point x="294" y="312" type="curve" smooth="yes"/>
      <point x="294" y="-11" type="line" smooth="yes"/>
      <point x="294" y="-39"/>
      <point x="283" y="-50"/>
      <point x="261" y="-53" type="curve" smooth="yes"/>
      <point x="219" y="-59" type="line"/>
    </contour>
  </outline>
</glyph>
<glyph name="Bhook" format="2">
  <advance width="759"/>
  <unicode hex="0181"/>
  <outline>
    <contour>
      <point x="215" y="0" type="line"/>
      <point x="515" y="0" type="line" smooth="yes"/>
      <point x="645" y="0"/>
      <point x="733" y="79"/>
      <point x="733" y="205" type="curve" smooth="yes"/>
      <point x="733" y="293"/>
      <point x="690" y="356"/>
      <point x="615" y="374" type="curve"/>
      <point x="615" y="357" type="line"/>
      <point x="677" y="377"/>
      <point x="716" y="441"/>
      <point x="716" y="520" type="curve" smooth="yes"/>
      <point x="716" y="635"/>
      <point x="634" y="705"/>
      <point x="508" y="705" type="curve" smooth="yes"/>
      <point x="207" y="705" type="line" smooth="yes"/>
      <point x="66" y="705"/>
      <point x="0" y="641"/>
      <point x="0" y="503" type="curve" smooth="yes"/>
      <point x="0" y="440" type="line"/>
      <point x="156" y="440" type="line"/>
      <point x="156" y="498" type="line" smooth="yes"/>
      <point x="156" y="554"/>
      <point x="171" y="572"/>
      <point x="207" y="572" type="curve" smooth="yes"/>
      <point x="215" y="572" type="line"/>
    </contour>
    <contour>
      <point x="402" y="144" type="line"/>
      <point x="402" y="286" type="line"/>
      <point x="485" y="286" type="line" smooth="yes"/>
      <point x="524" y="286"/>
      <point x="547" y="259"/>
      <point x="547" y="215" type="curve" smooth="yes"/>
      <point x="547" y="171"/>
      <point x="524" y="144"/>
      <point x="485" y="144" type="curve" smooth="yes"/>
    </contour>
    <contour>
      <point x="402" y="430" type="line"/>
      <point x="402" y="561" type="line"/>
      <point x="469" y="561" type="line" smooth="yes"/>
      <point x="509" y="561"/>
      <point x="530" y="538"/>
      <point x="530" y="496" type="curve" smooth="yes"/>
      <point x="530" y="453"/>
      <point x="509" y="430"/>
      <point x="469" y="430" type="curve" smooth="yes"/>
    </contour>
  </outline>
</glyph>
<glyph name="Yhook" format="2">
  <advance width="553"/>
  <unicode hex="01B3"/>
  <outline>
    <contour>
      <point x="178" y="0" type="line"/>
      <point x="375" y="0" type="line"/>
      <point x="376" y="360" type="line"/>
      <point x="336" y="252" type="line"/>
      <point x="498" y="536" type="line" smooth="yes"/>
      <point x="510" y="558"/>
      <point x="525" y="577"/>
      <point x="562" y="577" type="curve" smooth="yes"/>
      <point x="574" y="577"/>
      <point x="587" y="575"/>
      <point x="596" y="572" type="curve"/>
      <point x="596" y="701" type="line"/>
      <point x="581" y="709"/>
      <point x="540" y="717"/>
      <point x="504" y="717" type="curve" smooth="yes"/>
      <point x="423" y="717"/>
      <point x="363" y="676"/>
      <point x="323" y="589" type="curve" smooth="yes"/>
      <point x="262" y="457" type="line"/>
      <point x="298" y="457" type="line"/>
      <point x="184" y="705" type="line"/>
      <point x="-42" y="705" type="line"/>
      <point x="219" y="252" type="line"/>
      <point x="179" y="360" type="line"/>
    </contour>
  </outline>
</glyph>
<glyph name="schwa" format="2">
  <advance width="469"/>
  <unicode hex="0259"/>
  <outline>
    <contour>
      <point x="223" y="-12" type="curve" smooth="yes"/>
      <point x="362" y="-12"/>
      <point x="449" y="87"/>
      <point x="449" y="247" type="curve" smooth="yes"/>
      <point x="449" y="410"/>
      <point x="358" y="506"/>
      <point x="198" y="506" type="curve" smooth="yes"/>
      <point x="136" y="506"/>
      <point x="78" y="489"/>
      <point x="23" y="453" type="curve"/>
      <point x="69" y="328" type="line"/>
      <point x="104" y="351"/>
      <point x="150" y="365"/>
      <point x="190" y="365" type="curve" smooth="yes"/>
      <point x="254" y="365"/>
      <point x="271" y="338"/>
      <point x="271" y="279" type="curve" smooth="yes"/>
      <point x="271" y="230" type="line" smooth="yes"/>
      <point x="271" y="145"/>
      <point x="256" y="114"/>
      <point x="218" y="114" type="curve" smooth="yes"/>
      <point x="190" y="114"/>
      <point x="175" y="135"/>
      <point x="175" y="210" type="curve"/>
      <point x="159" y="196" type="line"/>
      <point x="287" y="196" type="line"/>
      <point x="287" y="290" type="line"/>
      <point x="16" y="290" type="line"/>
      <point x="16" y="236" type="line" smooth="yes"/>
      <point x="16" y="79"/>
      <point x="89" y="-12"/>
    </contour>
  </outline>
</glyph>
<glyph name="commaturnedmod" format="2">
  <advance width="500"/>
  <unicode hex="02BB"/>
  <anchor x="250" y="484" name="_top"/>
  <anchor x="250" y="685" name="top"/>
  <outline>
    <contour>
      <point x="169" y="558" type="line"/>
      <point x="331" y="558" type="line"/>
      <point x="331" y="689" type="line"/>
      <point x="221" y="689" type="line"/>
      <point x="256" y="674" type="line"/>
      <point x="256" y="702"/>
      <point x="265" y="728"/>
      <point x="287" y="752" type="curve"/>
      <point x="227" y="794" type="line"/>
      <point x="182" y="752"/>
      <point x="169" y="704"/>
      <point x="169" y="641" type="curve" smooth="yes"/>
    </contour>
  </outline>
</glyph>
<glyph name="firsttonechinese" format="2">
  <advance width="500"/>
  <unicode hex="02C9"/>
  <anchor x="250" y="484" name="_top"/>
  <anchor x="250" y="685" name="top"/>
  <outline>
    <contour>
      <point x="105" y="603" type="line"/>
      <point x="395" y="603" type="line"/>
      <point x="395" y="705" type="line"/>
      <point x="105" y="705" type="line"/>
    </contour>
  </outline>
</glyph>
<glyph name="tildecomb" format="2">
  <unicode hex="0303"/>
  <anchor x="0" y="484" name="_top"/>
  <anchor x="0" y="685" name="top"/>
  <outline>
    <contour>
      <point x="-107" y="573" type="line"/>
      <point x="-104" y="600"/>
      <point x="-93" y="620"/>
      <point x="-69" y="620" type="curve" smooth="yes"/>
      <point x="-54" y="620"/>
      <point x="-37" y="612"/>
      <point x="-18" y="603" type="curve" smooth="yes"/>
      <point x="6" y="592"/>
      <point x="33" y="579"/>
      <point x="66" y="579" type="curve" smooth="yes"/>
      <point x="139" y="579"/>
      <point x="184" y="642"/>
      <point x="184" y="738" type="curve"/>
      <point x="107" y="744" type="line"/>
      <point x="105" y="713"/>
      <point x="91" y="697"/>
      <point x="68" y="697" type="curve" smooth="yes"/>
      <point x="52" y="697"/>
      <point x="35" y="705"/>
      <point x="16" y="714" type="curve" smooth="yes"/>
      <point x="-7" y="725"/>
      <point x="-35" y="738"/>
      <point x="-67" y="738" type="curve" smooth="yes"/>
      <point x="-140" y="738"/>
      <point x="-184" y="675"/>
      <point x="-184" y="579" type="curve"/>
    </contour>
  </outline>
</glyph>
<glyph name="brevecomb" format="2">
  <unicode hex="0306"/>
  <anchor x="0" y="484" name="_top"/>
  <anchor x="0" y="685" name="top"/>
  <outline>
    <contour>
      <point x="0" y="553" type="curve" smooth="yes"/>
      <point x="104" y="553"/>
      <point x="157" y="615"/>
      <point x="160" y="739" type="curve"/>
      <point x="63" y="747" type="line"/>
      <point x="59" y="683"/>
      <point x="40" y="657"/>
      <point x="0" y="657" type="curve" smooth="yes"/>
      <point x="-40" y="657"/>
      <point x="-59" y="683"/>
      <point x="-63" y="747" type="curve"/>
      <point x="-160" y="739" type="line"/>
      <point x="-157" y="615"/>
      <point x="-104" y="553"/>
    </contour>
  </outline>
</glyph>
<glyph name="hookabovecomb" format="2">
  <unicode hex="0309"/>
  <anchor x="0" y="484" name="_top"/>
  <anchor x="0" y="685" name="top"/>
  <outline>
    <contour>
      <point x="-52" y="558" type="line"/>
      <point x="53" y="558" type="line"/>
      <point x="53" y="575" type="line" smooth="yes"/>
      <point x="53" y="617"/>
      <point x="115" y="631"/>
      <point x="115" y="696" type="curve" smooth="yes"/>
      <point x="115" y="748"/>
      <point x="76" y="775"/>
      <point x="1" y="775" type="curve" smooth="yes"/>
      <point x="-41" y="775"/>
      <point x="-81" y="766"/>
      <point x="-109" y="750" type="curve"/>
      <point x="-84" y="679" type="line"/>
      <point x="-69" y="687"/>
      <point x="-53" y="691"/>
      <point x="-42" y="691" type="curve" smooth="yes"/>
      <point x="-26" y="691"/>
      <point x="-19" y="684"/>
      <point x="-19" y="669" type="curve" smooth="yes"/>
      <point x="-19" y="637"/>
      <point x="-52" y="620"/>
      <point x="-52" y="581" type="curve" smooth="yes"/>
    </contour>
  </outline>
</glyph>
<glyph name="ringcomb" format="2">
  <unicode hex="030A"/>
  <anchor x="0" y="484" name="_top"/>
  <anchor x="0" y="685" name="top"/>
  <outline>
    <contour>
      <point x="0" y="558" type="curve" smooth="yes"/>
      <point x="70" y="558"/>
      <point x="126" y="611"/>
      <point x="126" y="681" type="curve" smooth="yes"/>
      <point x="126" y="751"/>
      <point x="70" y="804"/>
      <point x="0" y="804" type="curve" smooth="yes"/>
      <point x="-71" y="804"/>
      <point x="-125" y="752"/>
      <point x="-125" y="681" type="curve" smooth="yes"/>
      <point x="-125" y="611"/>
      <point x="-70" y="558"/>
    </contour>
    <contour>
      <point x="0" y="622" type="curve" smooth="yes"/>
      <point x="-31" y="622"/>
      <point x="-53" y="646"/>
      <point x="-53" y="681" type="curve" smooth="yes"/>
      <point x="-53" y="716"/>
      <point x="-31" y="740"/>
      <point x="0" y="740" type="curve" smooth="yes"/>
      <point x="31" y="740"/>
      <point x="54" y="716"/>
      <point x="54" y="681" type="curve" smooth="yes"/>
      <point x="54" y="646"/>
      <point x="31" y="622"/>
    </contour>
  </outline>
</glyph>
<glyph name="hungarumlautcomb" format="2">
  <unicode hex="030B"/>
  <anchor x="0" y="484" name="_top"/>
  <anchor x="0" y="685" name="top"/>
  <outline>
    <contour>
      <point x="31" y="558" type="line"/>
      <point x="126" y="558" type="line"/>
      <point x="208" y="749" type="line"/>
      <point x="62" y="749" type="line"/>
    </contour>
    <contour>
      <point x="-132" y="558" type="line"/>
      <point x="-37" y="558" type="line"/>
      <point x="45" y="749" type="line"/>
      <point x="-101" y="749" type="line"/>
    </contour>
  </outline>
</glyph>
<glyph name="dblgravecomb" format="2">
  <unicode hex="030F"/>
  <anchor x="0" y="484" name="_top"/>
  <anchor x="0" y="685" name="top"/>
  <outline>
    <contour>
      <point x="38" y="558" type="line"/>
      <point x="133" y="558" type="line"/>
      <point x="102" y="749" type="line"/>
      <point x="-44" y="749" type="line"/>
    </contour>
    <contour>
      <point x="-125" y="558" type="line"/>
      <point x="-30" y="558" type="line"/>
      <point x="-61" y="749" type="line"/>
      <point x="-207" y="749" type="line"/>
    </contour>
  </outline>
</glyph>
<glyph name="slashshortcomb" format="2">
  <unicode hex="0337"/>
  <anchor x="0" y="359" name="_center"/>
  <outline>
    <contour>
      <point x="-118" y="191" type="line"/>
      <point x="200" y="409" type="line"/>
      <point x="119" y="526" type="line"/>
      <point x="-199" y="308" type="line"/>
    </contour>
  </outline>
</glyph>
<glyph name="slashlongcomb" format="2">
  <unicode hex="0338"/>
  <anchor x="0" y="249" name="_center"/>
  <outline>
    <contour>
      <point x="-104" y="-75" type="line"/>
      <point x="180" y="536" type="line"/>
      <point x="104" y="574" type="line"/>
      <point x="-180" y="-37" type="line"/>
    </contour>
  </outline>
</glyph>
<glyph name="Omega" format="2">
  <advance width="697"/>
  <unicode hex="03A9"/>
  <outline>
    <contour>
      <point x="24" y="0" type="line"/>
      <point x="313" y="0" type="line"/>
      <point x="313" y="153" type="line"/>
      <point x="261" y="206"/>
      <point x="237" y="276"/>
      <point x="237" y="377" type="curve" smooth="yes"/>
      <point x="237" y="498"/>
      <point x="271" y="551"/>
      <point x="347" y="551" type="curve" smooth="yes"/>
      <point x="424" y="551"/>
      <point x="457" y="498"/>
      <point x="457" y="377" type="curve" smooth="yes"/>
      <point x="457" y="276"/>
      <point x="433" y="206"/>
      <point x="381" y="153" type="curve"/>
      <point x="381" y="0" type="line"/>
      <point x="670" y="0" type="line"/>
      <point x="670" y="151" type="line"/>
      <point x="484" y="151" type="line"/>
      <point x="484" y="121" type="line"/>
      <point x="598" y="162"/>
      <point x="661" y="266"/>
      <point x="661" y="407" type="curve" smooth="yes"/>
      <point x="661" y="601"/>
      <point x="541" y="717"/>
      <point x="347" y="717" type="curve" smooth="yes"/>
      <point x="153" y="717"/>
      <point x="33" y="601"/>
      <point x="33" y="407" type="curve" smooth="yes"/>
      <point x="33" y="266"/>
      <point x="96" y="162"/>
      <point x="210" y="121" type="curve"/>
      <point x="210" y="151" type="line"/>
      <point x="24" y="151" type="line"/>
    </contour>
  </outline>
</glyph>
<glyph name="Dje-cy" format="2">
  <advance width="769"/>
  <unicode hex="0402"/>
  <outline>
    <contour>
      <point x="505" y="-192" type="curve" smooth="yes"/>
      <point x="650" y="-192"/>
      <point x="733" y="-104"/>
      <point x="733" y="49" type="curve" smooth="yes"/>
      <point x="733" y="168" type="line" smooth="yes"/>
      <point x="733" y="358"/>
      <point x="651" y="451"/>
      <point x="482" y="451" type="curve" smooth="yes"/>
      <point x="440" y="451"/>
      <point x="402" y="444"/>
      <point x="373" y="432" type="curve"/>
      <point x="373" y="544" type="line"/>
      <point x="539" y="544" type="line"/>
      <point x="539" y="705" type="line"/>
      <point x="10" y="705" type="line"/>
      <point x="10" y="544" type="line"/>
      <point x="176" y="544" type="line"/>
      <point x="176" y="0" type="line"/>
      <point x="373" y="0" type="line"/>
      <point x="373" y="270" type="line"/>
      <point x="389" y="280"/>
      <point x="415" y="286"/>
      <point x="443" y="286" type="curve" smooth="yes"/>
      <point x="511" y="286"/>
      <point x="536" y="253"/>
      <point x="536" y="166" type="curve" smooth="yes"/>
      <point x="536" y="40" type="line" smooth="yes"/>
      <point x="536" y="-15"/>
      <point x="518" y="-40"/>
      <point x="479" y="-40" type="curve" smooth="yes"/>
      <point x="459" y="-40"/>
      <point x="439" y="-35"/>
      <point x="422" y="-31" type="curve"/>
      <point x="393" y="-173" type="line"/>
      <point x="429" y="-185"/>
      <point x="468" y="-192"/>
    </contour>
  </outline>
</glyph>
<glyph name="Lje-cy" format="2">
  <advance width="935"/>
  <unicode hex="0409"/>
  <outline>
    <contour>
      <point x="109" y="-19" type="line"/>
      <point x="239" y="57"/>
      <point x="307" y="213"/>
      <point x="307" y="436" type="curve" smooth="yes"/>
      <point x="307" y="545" type="line"/>
      <point x="400" y="545" type="line"/>
      <point x="400" y="0" type="line"/>
      <point x="695" y="0" type="line" smooth="yes"/>
      <point x="830" y="0"/>
      <point x="918" y="86"/>
      <point x="918" y="218" type="curve" smooth="yes"/>
      <point x="918" y="349"/>
      <point x="830" y="435"/>
      <point x="695" y="435" type="curve" smooth="yes"/>
      <point x="597" y="435" type="line"/>
      <point x="597" y="705" type="line"/>
      <point x="127" y="705" type="line"/>
      <point x="127" y="477" type="line" smooth="yes"/>
      <point x="127" y="276"/>
      <point x="97" y="188"/>
      <point x="6" y="122" type="curve"/>
    </contour>
    <contour>
      <point x="597" y="147" type="line"/>
      <point x="597" y="288" type="line"/>
      <point x="671" y="288" type="line" smooth="yes"/>
      <point x="710" y="288"/>
      <point x="733" y="262"/>
      <point x="733" y="218" type="curve" smooth="yes"/>
      <point x="733" y="173"/>
      <point x="710" y="147"/>
      <point x="671" y="147" type="curve" smooth="yes"/>
    </contour>
  </outline>
</glyph>
<glyph name="Tshe-cy" format="2">
  <advance width="745"/>
  <unicode hex="040B"/>
  <outline>
    <contour>
      <point x="176" y="0" type="line"/>
      <point x="373" y="0" type="line"/>
      <point x="373" y="270" type="line"/>
      <point x="390" y="281"/>
      <point x="411" y="286"/>
      <point x="435" y="286" type="curve" smooth="yes"/>
      <point x="490" y="286"/>
      <point x="512" y="252"/>
      <point x="512" y="166" type="curve" smooth="yes"/>
      <point x="512" y="0" type="line"/>
      <point x="709" y="0" type="line"/>
      <point x="709" y="168" type="line" smooth="yes"/>
      <point x="709" y="357"/>
      <point x="631" y="451"/>
      <point x="474" y="451" type="curve" smooth="yes"/>
      <point x="435" y="451"/>
      <point x="400" y="444"/>
      <point x="373" y="432" type="curve"/>
      <point x="373" y="544" type="line"/>
      <point x="539" y="544" type="line"/>
      <point x="539" y="705" type="line"/>
      <point x="10" y="705" type="line"/>
      <point x="10" y="544" type="line"/>
      <point x="176" y="544" type="line"/>
    </contour>
  </outline>
</glyph>
<glyph name="Be-cy" format="2">
  <advance width="579"/>
  <unicode hex="0411"/>
  <outline>
    <contour>
      <point x="45" y="0" type="line"/>
      <point x="339" y="0" type="line" smooth="yes"/>
      <point x="474" y="0"/>
      <point x="562" y="86"/>
      <point x="562" y="218" type="curve" smooth="yes"/>
      <point x="562" y="349"/>
      <point x="474" y="435"/>
      <point x="339" y="435" type="curve" smooth="yes"/>
      <point x="232" y="435" type="line"/>
      <point x="232" y="555" type="line"/>
      <point x="501" y="555" type="line"/>
      <point x="501" y="705" type="line"/>
      <point x="45" y="705" type="line"/>
    </contour>
    <contour>
      <point x="232" y="147" type="line"/>
      <point x="232" y="288" type="line"/>
      <point x="315" y="288" type="line" smooth="yes"/>
      <point x="354" y="288"/>
      <point x="377" y="262"/>
      <point x="377" y="218" type="curve" smooth="yes"/>
      <point x="377" y="173"/>
      <point x="354" y="147"/>
      <point x="315" y="147" type="curve" smooth="yes"/>
    </contour>
  </outline>
</glyph>
<glyph name="Ge-cy" format="2">
  <advance width="495"/>
  <unicode hex="0413"/>
  <anchor x="58" y="0" name="bottomright"/>
  <anchor x="150" y="358" name="stroke"/>
  <anchor x="236" y="705" name="top"/>
  <outline>
    <contour>
      <point x="45" y="0" type="line"/>
      <point x="242" y="0" type="line"/>
      <point x="242" y="545" type="line"/>
      <point x="475" y="545" type="line"/>
      <point x="475" y="705" type="line"/>
      <point x="45" y="705" type="line"/>
    </contour>
  </outline>
</glyph>
<glyph name="De-cy" format="2">
  <advance width="697"/>
  <unicode hex="0414"/>
  <outline>
    <contour>
      <point x="10" y="-177" type="line"/>
      <point x="178" y="-177" type="line"/>
      <point x="178" y="0" type="line"/>
      <point x="507" y="0" type="line"/>
      <point x="507" y="-177" type="line"/>
      <point x="675" y="-177" type="line"/>
      <point x="675" y="152" type="line"/>
      <point x="594" y="152" type="line"/>
      <point x="594" y="705" type="line"/>
      <point x="127" y="705" type="line"/>
      <point x="127" y="517" type="line" smooth="yes"/>
      <point x="127" y="343"/>
      <point x="107" y="222"/>
      <point x="68" y="153" type="curve"/>
      <point x="10" y="153" type="line"/>
    </contour>
    <contour>
      <point x="261" y="152" type="line"/>
      <point x="290" y="226"/>
      <point x="307" y="338"/>
      <point x="307" y="495" type="curve" smooth="yes"/>
      <point x="307" y="554" type="line"/>
      <point x="397" y="554" type="line"/>
      <point x="397" y="152" type="line"/>
    </contour>
  </outline>
</glyph>
<glyph name="Ze-cy" format="2">
  <advance width="511"/>
  <unicode hex="0417"/>
  <anchor x="240" y="0" name="bottom"/>
  <anchor x="240" y="705" name="top"/>
  <outline>
    <contour>
      <point x="231" y="-12" type="curve" smooth="yes"/>
      <point x="388" y="-12"/>
      <point x="485" y="71"/>
      <point x="485" y="201" type="curve" smooth="yes"/>
      <point x="485" y="290"/>
      <point x="439" y="357"/>
      <point x="365" y="373" type="curve"/>
      <point x="365" y="359" type="line"/>
      <point x="428" y="379"/>
      <point x="466" y="443"/>
      <point x="466" y="524" type="curve" smooth="yes"/>
      <point x="466" y="645"/>
      <point x="380" y="717"/>
      <point x="239" y="717" type="curve" smooth="yes"/>
      <point x="154" y="717"/>
      <point x="71" y="691"/>
      <point x="19" y="647" type="curve"/>
      <point x="73" y="502" type="line"/>
      <point x="116" y="536"/>
      <point x="164" y="555"/>
      <point x="208" y="555" type="curve" smooth="yes"/>
      <point x="256" y="555"/>
      <point x="280" y="535"/>
      <point x="280" y="494" type="curve" smooth="yes"/>
      <point x="280" y="453"/>
      <point x="258" y="432"/>
      <point x="215" y="432" type="curve" smooth="yes"/>
      <point x="108" y="432" type="line"/>
      <point x="108" y="281" type="line"/>
      <point x="227" y="281" type="line" smooth="yes"/>
      <point x="273" y="281"/>
      <point x="299" y="257"/>
      <point x="299" y="215" type="curve" smooth="yes"/>
      <point x="299" y="173"/>
      <point x="271" y="150"/>
      <point x="219" y="150" type="curve" smooth="yes"/>
      <point x="166" y="150"/>
      <point x="102" y="171"/>
      <point x="62" y="202" type="curve"/>
      <point x="10" y="55" type="line"/>
      <point x="54" y="14"/>
      <point x="143" y="-12"/>
    </contour>
  </outline>
</glyph>
<glyph name="Ii-cy" format="2">
  <advance width="630"/>
  <unicode hex="0418"/>
  <anchor x="404" y="0" name="bottomright"/>
  <anchor x="315" y="705" name="top"/>
  <outline>
    <contour>
      <point x="45" y="0" type="line"/>
      <point x="188" y="0" type="line"/>
      <point x="459" y="434" type="line"/>
      <point x="404" y="434" type="line"/>
      <point x="404" y="0" type="line"/>
      <point x="585" y="0" type="line"/>
      <point x="585" y="705" type="line"/>
      <point x="442" y="705" type="line"/>
      <point x="171" y="271" type="line"/>
      <point x="226" y="271" type="line"/>
      <point x="226" y="705" type="line"/>
      <point x="45" y="705" type="line"/>
    </contour>
  </outline>
</glyph>
<glyph name="U-cy" format="2">
  <advance width="578"/>
  <unicode hex="0423"/>
  <anchor x="288" y="705" name="top"/>
  <outline>
    <contour>
      <point x="117" y="0" type="line"/>
      <point x="317" y="0" type="line"/>
      <point x="603" y="705" type="line"/>
      <point x="403" y="705" type="line"/>
      <point x="265" y="365" type="line"/>
      <point x="315" y="365" type="line"/>
      <point x="176" y="705" type="line"/>
      <point x="-32" y="705" type="line"/>
      <point x="217" y="192" type="line"/>
      <point x="216" y="245" type="line"/>
    </contour>
  </outline>
</glyph>
<glyph name="Ef-cy" format="2">
  <advance width="804"/>
  <unicode hex="0424"/>
  <outline>
    <contour>
      <point x="304" y="-29" type="line"/>
      <point x="500" y="-29" type="line"/>
      <point x="500" y="83" type="line"/>
      <point x="455" y="52" type="line"/>
      <point x="486" y="52" type="line" smooth="yes"/>
      <point x="671" y="52"/>
      <point x="770" y="158"/>
      <point x="770" y="357" type="curve" smooth="yes"/>
      <point x="770" y="556"/>
      <point x="671" y="662"/>
      <point x="486" y="662" type="curve" smooth="yes"/>
      <point x="455" y="662" type="line"/>
      <point x="500" y="624" type="line"/>
      <point x="500" y="739" type="line"/>
      <point x="304" y="739" type="line"/>
      <point x="304" y="624" type="line"/>
      <point x="349" y="662" type="line"/>
      <point x="318" y="662" type="line" smooth="yes"/>
      <point x="133" y="662"/>
      <point x="34" y="556"/>
      <point x="34" y="357" type="curve" smooth="yes"/>
      <point x="34" y="158"/>
      <point x="133" y="52"/>
      <point x="318" y="52" type="curve" smooth="yes"/>
      <point x="349" y="52" type="line"/>
      <point x="304" y="83" type="line"/>
    </contour>
    <contour>
      <point x="306" y="168" type="line"/>
      <point x="341" y="196" type="line"/>
      <point x="304" y="196" type="line" smooth="yes"/>
      <point x="259" y="196"/>
      <point x="232" y="257"/>
      <point x="232" y="357" type="curve" smooth="yes"/>
      <point x="232" y="457"/>
      <point x="259" y="518"/>
      <point x="304" y="518" type="curve" smooth="yes"/>
      <point x="341" y="518" type="line"/>
      <point x="306" y="540" type="line"/>
    </contour>
    <contour>
      <point x="498" y="168" type="line"/>
      <point x="498" y="540" type="line"/>
      <point x="463" y="518" type="line"/>
      <point x="500" y="518" type="line" smooth="yes"/>
      <point x="545" y="518"/>
      <point x="572" y="457"/>
      <point x="572" y="357" type="curve" smooth="yes"/>
      <point x="572" y="257"/>
      <point x="545" y="196"/>
      <point x="500" y="196" type="curve" smooth="yes"/>
      <point x="463" y="196" type="line"/>
    </contour>
  </outline>
</glyph>
<glyph name="Tse-cy" format="2">
  <advance width="708"/>
  <unicode hex="0426"/>
  <outline>
    <contour>
      <point x="518" y="-177" type="line"/>
      <point x="686" y="-177" type="line"/>
      <point x="686" y="160" type="line"/>
      <point x="605" y="160" type="line"/>
      <point x="605" y="705" type="line"/>
      <point x="408" y="705" type="line"/>
      <point x="408" y="160" type="line"/>
      <point x="242" y="160" type="line"/>
      <point x="242" y="705" type="line"/>
      <point x="45" y="705" type="line"/>
      <point x="45" y="0" type="line"/>
      <point x="518" y="0" type="line"/>
    </contour>
  </outline>
</glyph>
<glyph name="Che-cy" format="2">
  <advance width="614"/>
  <unicode hex="0427"/>
  <anchor x="372" y="0" name="bottomright"/>
  <anchor x="255" y="295" name="center"/>
  <anchor x="299" y="705" name="top"/>
  <outline>
    <contour>
      <point x="372" y="0" type="line"/>
      <point x="569" y="0" type="line"/>
      <point x="569" y="705" type="line"/>
      <point x="372" y="705" type="line"/>
      <point x="372" y="403" type="line"/>
      <point x="353" y="392"/>
      <point x="332" y="387"/>
      <point x="310" y="387" type="curve" smooth="yes"/>
      <point x="255" y="387"/>
      <point x="233" y="421"/>
      <point x="233" y="507" type="curve" smooth="yes"/>
      <point x="233" y="705" type="line"/>
      <point x="36" y="705" type="line"/>
      <point x="36" y="505" type="line" smooth="yes"/>
      <point x="36" y="318"/>
      <point x="113" y="222"/>
      <point x="271" y="222" type="curve" smooth="yes"/>
      <point x="308" y="222"/>
      <point x="343" y="229"/>
      <point x="372" y="241" type="curve"/>
    </contour>
  </outline>
</glyph>
<glyph name="Hardsign-cy" format="2">
  <advance width="695"/>
  <unicode hex="042A"/>
  <outline>
    <contour>
      <point x="160" y="0" type="line"/>
      <point x="455" y="0" type="line" smooth="yes"/>
      <point x="590" y="0"/>
      <point x="678" y="86"/>
      <point x="678" y="218" type="curve" smooth="yes"/>
      <point x="678" y="349"/>
      <point x="590" y="435"/>
      <point x="455" y="435" type="curve" smooth="yes"/>
      <point x="357" y="435" type="line"/>
      <point x="357" y="705" type="line"/>
      <point x="10" y="705" type="line"/>
      <point x="10" y="544" type="line"/>
      <point x="160" y="544" type="line"/>
    </contour>
    <contour>
      <point x="357" y="147" type="line"/>
      <point x="357" y="288" type="line"/>
      <point x="431" y="288" type="line" smooth="yes"/>
      <point x="470" y="288"/>
      <point x="493" y="262"/>
      <point x="493" y="218" type="curve" smooth="yes"/>
      <point x="493" y="173"/>
      <point x="470" y="147"/>
      <point x="431" y="147" type="curve" smooth="yes"/>
    </contour>
  </outline>
</glyph>
<glyph name="Softsign-cy" format="2">
  <advance width="580"/>
  <unicode hex="042C"/>
  <outline>
    <contour>
      <point x="45" y="0" type="line"/>
      <point x="340" y="0" type="line" smooth="yes"/>
      <point x="475" y="0"/>
      <point x="563" y="86"/>
      <point x="563" y="218" type="curve" smooth="yes"/>
      <point x="563" y="349"/>
      <point x="475" y="435"/>
      <point x="340" y="435" type="curve" smooth="yes"/>
      <point x="242" y="435" type="line"/>
      <point x="242" y="705" type="line"/>
      <point x="45" y="705" type="line"/>
    </contour>
    <contour>
      <point x="242" y="147" type="line"/>
      <point x="242" y="288" type="line"/>
      <point x="316" y="288" type="line" smooth="yes"/>
      <point x="355" y="288"/>
      <point x="378" y="262"/>
      <point x="378" y="218" type="curve" smooth="yes"/>
      <point x="378" y="173"/>
      <point x="355" y="147"/>
      <point x="316" y="147" type="curve" smooth="yes"/>
    </contour>
  </outline>
</glyph>
<glyph name="ve-cy" format="2">
  <advance width="512"/>
  <unicode hex="0432"/>
  <outline>
    <contour>
      <point x="43" y="0" type="line"/>
      <point x="304" y="0" type="line" smooth="yes"/>
      <point x="430" y="0"/>
      <point x="492" y="46"/>
      <point x="492" y="151" type="curve" smooth="yes"/>
      <point x="492" y="217"/>
      <point x="461" y="251"/>
      <point x="391" y="265" type="curve"/>
      <point x="391" y="250" type="line"/>
      <point x="448" y="268"/>
      <point x="475" y="304"/>
      <point x="475" y="364" type="curve" smooth="yes"/>
      <point x="475" y="449"/>
      <point x="425" y="494"/>
      <point x="298" y="494" type="curve" smooth="yes"/>
      <point x="43" y="494" type="line"/>
    </contour>
    <contour>
      <point x="216" y="109" type="line"/>
      <point x="216" y="198" type="line"/>
      <point x="270" y="198" type="line" smooth="yes"/>
      <point x="307" y="198"/>
      <point x="324" y="186"/>
      <point x="324" y="153" type="curve" smooth="yes"/>
      <point x="324" y="120"/>
      <point x="309" y="109"/>
      <point x="270" y="109" type="curve" smooth="yes"/>
    </contour>
    <contour>
      <point x="216" y="307" type="line"/>
      <point x="216" y="385" type="line"/>
      <point x="254" y="385" type="line" smooth="yes"/>
      <point x="294" y="385"/>
      <point x="307" y="378"/>
      <point x="307" y="347" type="curve" smooth="yes"/>
      <point x="307" y="316"/>
      <point x="294" y="307"/>
      <point x="254" y="307" type="curve" smooth="yes"/>
    </contour>
  </outline>
</glyph>
<glyph name="ze-cy" format="2">
  <advance width="475"/>
  <unicode hex="0437"/>
  <anchor x="231" y="0" name="bottom"/>
  <anchor x="231" y="484" name="top"/>
  <outline>
    <contour>
      <point x="226" y="-12" type="curve" smooth="yes"/>
      <point x="366" y="-12"/>
      <point x="455" y="49"/>
      <point x="455" y="144" type="curve" smooth="yes"/>
      <point x="455" y="206"/>
      <point x="418" y="251"/>
      <point x="358" y="265" type="curve"/>
      <point x="358" y="252" type="line"/>
      <point x="408" y="268"/>
      <point x="438" y="312"/>
      <point x="438" y="368" type="curve" smooth="yes"/>
      <point x="438" y="454"/>
      <point x="361" y="506"/>
      <point x="232" y="506" type="curve" smooth="yes"/>
      <point x="152" y="506"/>
      <point x="71" y="486"/>
      <point x="26" y="455" type="curve"/>
      <point x="69" y="337" type="line"/>
      <point x="110" y="361"/>
      <point x="159" y="374"/>
      <point x="206" y="374" type="curve" smooth="yes"/>
      <point x="249" y="374"/>
      <point x="269" y="363"/>
      <point x="269" y="339" type="curve" smooth="yes"/>
      <point x="269" y="320"/>
      <point x="253" y="311"/>
      <point x="217" y="311" type="curve" smooth="yes"/>
      <point x="126" y="311" type="line"/>
      <point x="126" y="187" type="line"/>
      <point x="228" y="187" type="line" smooth="yes"/>
      <point x="269" y="187"/>
      <point x="287" y="178"/>
      <point x="287" y="159" type="curve" smooth="yes"/>
      <point x="287" y="134"/>
      <point x="261" y="120"/>
      <point x="217" y="120" type="curve" smooth="yes"/>
      <point x="166" y="120"/>
      <point x="105" y="139"/>
      <point x="65" y="167" type="curve"/>
      <point x="22" y="45" type="line"/>
      <point x="59" y="11"/>
      <point x="141" y="-12"/>
    </contour>
  </outline>
</glyph>
<glyph name="el-cy" format="2">
  <advance width="536"/>
  <unicode hex="043B"/>
  <anchor x="321" y="0" name="bottomright"/>
  <outline>
    <contour>
      <point x="61" y="-17" type="line"/>
      <point x="199" y="-3"/>
      <point x="264" y="90"/>
      <point x="264" y="271" type="curve" smooth="yes"/>
      <point x="264" y="349" type="line"/>
      <point x="307" y="349" type="line"/>
      <point x="307" y="0" type="line"/>
      <point x="493" y="0" type="line"/>
      <point x="493" y="494" type="line"/>
      <point x="93" y="494" type="line"/>
      <point x="93" y="277" type="line" smooth="yes"/>
      <point x="93" y="185"/>
      <point x="71" y="148"/>
      <point x="9" y="133" type="curve"/>
    </contour>
  </outline>
</glyph>
<glyph name="pe-cy" format="2">
  <advance width="540"/>
  <unicode hex="043F"/>
  <anchor x="307" y="0" name="bottomright"/>
  <outline>
    <contour>
      <point x="43" y="0" type="line"/>
      <point x="233" y="0" type="line"/>
      <point x="233" y="349" type="line"/>
      <point x="307" y="349" type="line"/>
      <point x="307" y="0" type="line"/>
      <point x="497" y="0" type="line"/>
      <point x="497" y="494" type="line"/>
      <point x="43" y="494" type="line"/>
    </contour>
  </outline>
</glyph>
<glyph name="te-cy" format="2">
  <advance width="450"/>
  <unicode hex="0442"/>
  <anchor x="130" y="0" name="bottomright"/>
  <outline>
    <contour>
      <point x="130" y="0" type="line"/>
      <point x="320" y="0" type="line"/>
      <point x="320" y="346" type="line"/>
      <point x="437" y="346" type="line"/>
      <point x="437" y="494" type="line"/>
      <point x="13" y="494" type="line"/>
      <point x="13" y="346" type="line"/>
      <point x="130" y="346" type="line"/>
    </contour>
  </outline>
</glyph>
<glyph name="tse-cy" format="2">
  <advance width="565"/>
  <unicode hex="0446"/>
  <outline>
    <contour>
      <point x="397" y="-130" type="line"/>
      <point x="557" y="-130" type="line"/>
      <point x="557" y="145" type="line"/>
      <point x="487" y="145" type="line"/>
      <point x="487" y="494" type="line"/>
      <point x="297" y="494" type="line"/>
      <point x="297" y="145" type="line"/>
      <point x="233" y="145" type="line"/>
      <point x="233" y="494" type="line"/>
      <point x="43" y="494" type="line"/>
      <point x="43" y="0" type="line"/>
      <point x="397" y="0" type="line"/>
    </contour>
  </outline>
</glyph>
<glyph name="che-cy" format="2">
  <advance width="516"/>
  <unicode hex="0447"/>
  <anchor x="306" y="0" name="bottomright"/>
  <anchor x="251" y="200" name="center"/>
  <anchor x="251" y="484" name="top"/>
  <outline>
    <contour>
      <point x="287" y="0" type="line"/>
      <point x="473" y="0" type="line"/>
      <point x="473" y="494" type="line"/>
      <point x="283" y="494" type="line"/>
      <point x="283" y="290" type="line"/>
      <point x="278" y="286"/>
      <point x="272" y="284"/>
      <point x="262" y="284" type="curve" smooth="yes"/>
      <point x="228" y="284"/>
      <point x="217" y="304"/>
      <point x="217" y="363" type="curve" smooth="yes"/>
      <point x="217" y="494" type="line"/>
      <point x="27" y="494" type="line"/>
      <point x="27" y="337" type="line" smooth="yes"/>
      <point x="27" y="199"/>
      <point x="89" y="133"/>
      <point x="205" y="133" type="curve" smooth="yes"/>
      <point x="235" y="133"/>
      <point x="263" y="138"/>
      <point x="287" y="149" type="curve"/>
    </contour>
  </outline>
</glyph>
<glyph name="hardsign-cy" format="2">
  <advance width="563"/>
  <unicode hex="044A"/>
  <outline>
    <contour>
      <point x="114" y="0" type="line"/>
      <point x="372" y="0" type="line" smooth="yes"/>
      <point x="478" y="0"/>
      <point x="548" y="70"/>
      <point x="548" y="179" type="curve" smooth="yes"/>
      <point x="548" y="285"/>
      <point x="478" y="348"/>
      <point x="367" y="348" type="curve" smooth="yes"/>
      <point x="304" y="348" type="line"/>
      <point x="304" y="494" type="line"/>
      <point x="13" y="494" type="line"/>
      <point x="13" y="346" type="line"/>
      <point x="114" y="346" type="line"/>
    </contour>
    <contour>
      <point x="304" y="119" type="line"/>
      <point x="304" y="229" type="line"/>
      <point x="336" y="229" type="line" smooth="yes"/>
      <point x="360" y="229"/>
      <point x="374" y="209"/>
      <point x="374" y="174" type="curve" smooth="yes"/>
      <point x="374" y="139"/>
      <point x="360" y="119"/>
      <point x="336" y="119" type="curve" smooth="yes"/>
    </contour>
  </outline>
</glyph>
<glyph name="yeru-cy" format="2">
  <advance width="731"/>
  <unicode hex="044B"/>
  <anchor x="364" y="484" name="top"/>
  <outline>
    <contour>
      <point x="43" y="0" type="line"/>
      <point x="301" y="0" type="line" smooth="yes"/>
      <point x="407" y="0"/>
      <point x="477" y="70"/>
      <point x="477" y="179" type="curve" smooth="yes"/>
      <point x="477" y="285"/>
      <point x="407" y="348"/>
      <point x="296" y="348" type="curve" smooth="yes"/>
      <point x="233" y="348" type="line"/>
      <point x="233" y="494" type="line"/>
      <point x="43" y="494" type="line"/>
    </contour>
    <contour>
      <point x="233" y="119" type="line"/>
      <point x="233" y="229" type="line"/>
      <point x="265" y="229" type="line" smooth="yes"/>
      <point x="289" y="229"/>
      <point x="303" y="209"/>
      <point x="303" y="174" type="curve" smooth="yes"/>
      <point x="303" y="139"/>
      <point x="289" y="119"/>
      <point x="265" y="119" type="curve" smooth="yes"/>
    </contour>
    <contour>
      <point x="498" y="0" type="line"/>
      <point x="688" y="0" type="line"/>
      <point x="688" y="494" type="line"/>
      <point x="498" y="494" type="line"/>
    </contour>
  </outline>
</glyph>
<glyph name="ereversed-cy" format="2">
  <advance width="482"/>
  <unicode hex="044D"/>
  <anchor x="214" y="484" name="top"/>
  <outline>
    <contour>
      <point x="197" y="-12" type="curve" smooth="yes"/>
      <point x="355" y="-12"/>
      <point x="453" y="87"/>
      <point x="453" y="245" type="curve" smooth="yes"/>
      <point x="453" y="406"/>
      <point x="351" y="506"/>
      <point x="198" y="506" type="curve" smooth="yes"/>
      <point x="135" y="506"/>
      <point x="76" y="489"/>
      <point x="30" y="458" type="curve"/>
      <point x="78" y="329" type="line"/>
      <point x="110" y="351"/>
      <point x="143" y="363"/>
      <point x="173" y="363" type="curve" smooth="yes"/>
      <point x="230" y="363"/>
      <point x="266" y="325"/>
      <point x="269" y="256" type="curve"/>
      <point x="274" y="310" type="line"/>
      <point x="122" y="310" type="line"/>
      <point x="122" y="187" type="line"/>
      <point x="274" y="187" type="line"/>
      <point x="269" y="233" type="line"/>
      <point x="265" y="167"/>
      <point x="230" y="131"/>
      <point x="174" y="131" type="curve" smooth="yes"/>
      <point x="145" y="131"/>
      <point x="109" y="143"/>
      <point x="78" y="163" type="curve"/>
      <point x="30" y="36" type="line"/>
      <point x="76" y="5"/>
      <point x="135" y="-12"/>
    </contour>
  </outline>
</glyph>
<glyph name="ia-cy" format="2">
  <advance width="497"/>
  <unicode hex="044F"/>
  <outline>
    <contour>
      <point x="5" y="0" type="line"/>
      <point x="217" y="0" type="line"/>
      <point x="273" y="129" type="line" smooth="yes"/>
      <point x="277.507" y="139.383"/>
      <point x="280.538" y="144"/>
      <point x="287" y="144" type="curve"/>
      <point x="290" y="144" type="line"/>
      <point x="290" y="0" type="line"/>
      <point x="454" y="0" type="line"/>
      <point x="454" y="494" type="line"/>
      <point x="188" y="494" type="line" smooth="yes"/>
      <point x="87.816" y="494"/>
      <point x="26" y="433"/>
      <point x="26" y="335" type="curve" smooth="yes"/>
      <point x="26" y="238.491"/>
      <point x="84" y="180"/>
      <point x="183" y="180" type="curve"/>
      <point x="183" y="195" type="line"/>
      <point x="143" y="195" type="line" smooth="yes"/>
      <point x="108.558" y="195"/>
      <point x="82.752" y="172.349"/>
      <point x="65" y="133" type="curve" smooth="yes"/>
    </contour>
    <contour>
      <point x="251" y="264" type="line" smooth="yes"/>
      <point x="221" y="264"/>
      <point x="203" y="283.914"/>
      <point x="203" y="319" type="curve" smooth="yes"/>
      <point x="203" y="354.086"/>
      <point x="221" y="374"/>
      <point x="251" y="374" type="curve" smooth="yes"/>
      <point x="290" y="374" type="line"/>
      <point x="290" y="264" type="line"/>
    </contour>
  </outline>
</glyph>
<glyph name="yat-cy" format="2">
  <advance width="571"/>
  <unicode hex="0463"/>
  <outline>
    <contour>
      <point x="114" y="0" type="line"/>
      <point x="372" y="0" type="line" smooth="yes"/>
      <point x="484" y="0"/>
      <point x="556" y="66"/>
      <point x="556" y="168" type="curve" smooth="yes"/>
      <point x="556" y="266"/>
      <point x="484" y="326"/>
      <point x="367" y="326" type="curve" smooth="yes"/>
      <point x="304" y="326" type="line"/>
      <point x="304" y="372" type="line"/>
      <point x="443" y="372" type="line"/>
      <point x="443" y="494" type="line"/>
      <point x="304" y="494" type="line"/>
      <point x="304" y="705" type="line"/>
      <point x="114" y="705" type="line"/>
      <point x="114" y="494" type="line"/>
      <point x="13" y="494" type="line"/>
      <point x="13" y="372" type="line"/>
      <point x="114" y="372" type="line"/>
    </contour>
    <contour>
      <point x="304" y="120" type="line"/>
      <point x="304" y="206" type="line"/>
      <point x="336" y="206" type="line" smooth="yes"/>
      <point x="365" y="206"/>
      <point x="382" y="191"/>
      <point x="382" y="163" type="curve" smooth="yes"/>
      <point x="382" y="135"/>
      <point x="365" y="120"/>
      <point x="336" y="120" type="curve" smooth="yes"/>
    </contour>
  </outline>
</glyph>
<glyph name="Yusbig-cy" format="2">
  <advance width="921"/>
  <unicode hex="046A"/>
  <outline>
    <contour>
      <point x="-8" y="0" type="line"/>
      <point x="205" y="0" type="line"/>
      <point x="275" y="197" type="line" smooth="yes"/>
      <point x="294" y="252"/>
      <point x="310" y="267"/>
      <point x="351" y="267" type="curve" smooth="yes"/>
      <point x="367" y="267" type="line"/>
      <point x="367" y="0" type="line"/>
      <point x="554" y="0" type="line"/>
      <point x="554" y="267" type="line"/>
      <point x="570" y="267" type="line" smooth="yes"/>
      <point x="611" y="267"/>
      <point x="627" y="252"/>
      <point x="646" y="197" type="curve" smooth="yes"/>
      <point x="716" y="0" type="line"/>
      <point x="929" y="0" type="line"/>
      <point x="823" y="260" type="line" smooth="yes"/>
      <point x="784" y="356"/>
      <point x="728" y="427"/>
      <point x="584" y="427" type="curve" smooth="yes"/>
      <point x="569" y="427" type="line"/>
      <point x="609" y="382" type="line"/>
      <point x="837" y="705" type="line"/>
      <point x="84" y="705" type="line"/>
      <point x="312" y="381" type="line"/>
      <point x="352" y="427" type="line"/>
      <point x="337" y="427" type="line" smooth="yes"/>
      <point x="193" y="427"/>
      <point x="137" y="356"/>
      <point x="98" y="260" type="curve" smooth="yes"/>
    </contour>
    <contour>
      <point x="460" y="429" type="line"/>
      <point x="334" y="615" type="line"/>
      <point x="334" y="575" type="line"/>
      <point x="587" y="575" type="line"/>
      <point x="587" y="615" type="line"/>
      <point x="462" y="429" type="line"/>
    </contour>
  </outline>
</glyph>
<glyph name="yusbig-cy" format="2">
  <advance width="764"/>
  <unicode hex="046B"/>
  <outline>
    <contour>
      <point x="-13" y="0" type="line"/>
      <point x="189" y="0" type="line"/>
      <point x="246" y="125" type="line" smooth="yes"/>
      <point x="258" y="151"/>
      <point x="264" y="157"/>
      <point x="277" y="157" type="curve" smooth="yes"/>
      <point x="287" y="157" type="line"/>
      <point x="287" y="0" type="line"/>
      <point x="477" y="0" type="line"/>
      <point x="477" y="157" type="line"/>
      <point x="487" y="157" type="line" smooth="yes"/>
      <point x="500" y="157"/>
      <point x="506" y="151"/>
      <point x="518" y="125" type="curve" smooth="yes"/>
      <point x="575" y="0" type="line"/>
      <point x="777" y="0" type="line"/>
      <point x="683" y="195" type="line" smooth="yes"/>
      <point x="647" y="270"/>
      <point x="603" y="301"/>
      <point x="521" y="301" type="curve" smooth="yes"/>
      <point x="499" y="301" type="line"/>
      <point x="531" y="245" type="line"/>
      <point x="712" y="494" type="line"/>
      <point x="52" y="494" type="line"/>
      <point x="233" y="245" type="line"/>
      <point x="265" y="301" type="line"/>
      <point x="243" y="301" type="line" smooth="yes"/>
      <point x="161" y="301"/>
      <point x="117" y="270"/>
      <point x="81" y="195" type="curve" smooth="yes"/>
    </contour>
    <contour>
      <point x="381" y="266" type="line"/>
      <point x="269" y="430" type="line"/>
      <point x="269" y="377" type="line"/>
      <point x="495" y="377" type="line"/>
      <point x="495" y="430" type="line"/>
      <point x="383" y="266" type="line"/>
    </contour>
  </outline>
</glyph>
<glyph name="izhitsa-cy" format="2">
  <advance width="518"/>
  <unicode hex="0475"/>
  <outline>
    <contour>
      <point x="161" y="0" type="line"/>
      <point x="318" y="0" type="line"/>
      <point x="413" y="286" type="line" smooth="yes"/>
      <point x="430" y="337"/>
      <point x="458" y="354"/>
      <point x="507" y="353" type="curve"/>
      <point x="491" y="505" type="line"/>
      <point x="357" y="505"/>
      <point x="299" y="477"/>
      <point x="271" y="361" type="curve" smooth="yes"/>
      <point x="228" y="184" type="line"/>
      <point x="259" y="184" type="line"/>
      <point x="182" y="494" type="line"/>
      <point x="-17" y="494" type="line"/>
    </contour>
  </outline>
</glyph>
<glyph name="Iishorttail-cy" format="2">
  <advance width="675"/>
  <unicode hex="048A"/>
  <outline>
    <contour>
      <point x="412" y="-180" type="line"/>
      <point x="577" y="-180" type="line"/>
      <point x="679" y="154" type="line"/>
      <point x="585" y="154" type="line"/>
      <point x="585" y="705" type="line"/>
      <point x="442" y="705" type="line"/>
      <point x="179" y="284" type="line"/>
      <point x="226" y="270" type="line"/>
      <point x="226" y="705" type="line"/>
      <point x="45" y="705" type="line"/>
      <point x="45" y="0" type="line"/>
      <point x="188" y="0" type="line"/>
      <point x="451" y="421" type="line"/>
      <point x="404" y="435" type="line"/>
      <point x="404" y="0" type="line"/>
      <point x="462" y="0" type="line"/>
    </contour>
    <contour>
      <point x="315" y="760" type="curve" smooth="yes"/>
      <point x="415" y="760"/>
      <point x="474" y="812"/>
      <point x="493" y="916" type="curve"/>
      <point x="410" y="941" type="line"/>
      <point x="393" y="878"/>
      <point x="366" y="856"/>
      <point x="315" y="856" type="curve" smooth="yes"/>
      <point x="264" y="856"/>
      <point x="237" y="878"/>
      <point x="220" y="941" type="curve"/>
      <point x="137" y="916" type="line"/>
      <point x="156" y="812"/>
      <point x="215" y="760"/>
    </contour>
  </outline>
</glyph>
<glyph name="ertick-cy" format="2">
  <advance width="546"/>
  <unicode hex="048F"/>
  <outline>
    <contour>
      <point x="43" y="-180" type="line"/>
      <point x="233" y="-180" type="line"/>
      <point x="233" y="83" type="line"/>
      <point x="221" y="83" type="line"/>
      <point x="235" y="25"/>
      <point x="281" y="-12"/>
      <point x="346" y="-12" type="curve" smooth="yes"/>
      <point x="360" y="-12"/>
      <point x="373" y="-10"/>
      <point x="385" y="-7" type="curve"/>
      <point x="365" y="1" type="line"/>
      <point x="411" y="-74" type="line"/>
      <point x="470" y="-37" type="line"/>
      <point x="427" y="31" type="line"/>
      <point x="427" y="12" type="line"/>
      <point x="484" y="50"/>
      <point x="517" y="132"/>
      <point x="517" y="247" type="curve" smooth="yes"/>
      <point x="517" y="409"/>
      <point x="451" y="506"/>
      <point x="345" y="506" type="curve" smooth="yes"/>
      <point x="281" y="506"/>
      <point x="235" y="470"/>
      <point x="221" y="411" type="curve"/>
      <point x="230" y="411" type="line"/>
      <point x="230" y="494" type="line"/>
      <point x="43" y="494" type="line"/>
    </contour>
    <contour>
      <point x="278" y="129" type="curve" smooth="yes"/>
      <point x="245" y="129"/>
      <point x="230" y="166"/>
      <point x="230" y="247" type="curve" smooth="yes"/>
      <point x="230" y="328"/>
      <point x="245" y="365"/>
      <point x="278" y="365" type="curve" smooth="yes"/>
      <point x="311" y="365"/>
      <point x="326" y="329"/>
      <point x="326" y="247" type="curve" smooth="yes"/>
      <point x="326" y="223"/>
      <point x="325" y="202"/>
      <point x="322" y="186" type="curve"/>
      <point x="334" y="177" type="line"/>
      <point x="295" y="239" type="line"/>
      <point x="240" y="206" type="line"/>
      <point x="291" y="122" type="line"/>
      <point x="295" y="133" type="line"/>
      <point x="290" y="130"/>
      <point x="284" y="129"/>
    </contour>
  </outline>
</glyph>
<glyph name="Gheupturn-cy" format="2">
  <advance width="495"/>
  <unicode hex="0490"/>
  <outline>
    <contour>
      <point x="45" y="0" type="line"/>
      <point x="242" y="0" type="line"/>
      <point x="242" y="545" type="line"/>
      <point x="475" y="545" type="line"/>
      <point x="475" y="872" type="line"/>
      <point x="306" y="872" type="line"/>
      <point x="306" y="705" type="line"/>
      <point x="45" y="705" type="line"/>
    </contour>
  </outline>
</glyph>
<glyph name="gheupturn-cy" format="2">
  <advance width="424"/>
  <unicode hex="0491"/>
  <outline>
    <contour>
      <point x="43" y="0" type="line"/>
      <point x="233" y="0" type="line"/>
      <point x="233" y="348" type="line"/>
      <point x="402" y="348" type="line"/>
      <point x="402" y="602" type="line"/>
      <point x="243" y="602" type="line"/>
      <point x="243" y="494" type="line"/>
      <point x="43" y="494" type="line"/>
    </contour>
  </outline>
</glyph>
<glyph name="ghestroke-cy" format="2">
  <advance width="450"/>
  <unicode hex="0493"/>
  <outline>
    <contour>
      <point x="69" y="0" type="line"/>
      <point x="259" y="0" type="line"/>
      <point x="259" y="145" type="line"/>
      <point x="362" y="145" type="line"/>
      <point x="362" y="275" type="line"/>
      <point x="259" y="275" type="line"/>
      <point x="259" y="349" type="line"/>
      <point x="428" y="349" type="line"/>
      <point x="428" y="494" type="line"/>
      <point x="69" y="494" type="line"/>
      <point x="69" y="275" type="line"/>
      <point x="7" y="275" type="line"/>
      <point x="7" y="145" type="line"/>
      <point x="69" y="145" type="line"/>
    </contour>
  </outline>
</glyph>
<glyph name="ghemiddlehook-cy" format="2">
  <advance width="526"/>
  <unicode hex="0495"/>
  <outline>
    <contour>
      <point x="315" y="-188" type="line"/>
      <point x="463" y="-138"/>
      <point x="502" y="-66"/>
      <point x="502" y="52" type="curve" smooth="yes"/>
      <point x="502" y="122" type="line" smooth="yes"/>
      <point x="502" y="252"/>
      <point x="456" y="316"/>
      <point x="362" y="316" type="curve" smooth="yes"/>
      <point x="296" y="316"/>
      <point x="249" y="285"/>
      <point x="220" y="221" type="curve"/>
      <point x="233" y="221" type="line"/>
      <point x="233" y="364" type="line"/>
      <point x="402" y="364" type="line"/>
      <point x="402" y="494" type="line"/>
      <point x="43" y="494" type="line"/>
      <point x="43" y="0" type="line"/>
      <point x="233" y="0" type="line"/>
      <point x="233" y="100" type="line" smooth="yes"/>
      <point x="233" y="144"/>
      <point x="250" y="170"/>
      <point x="279" y="170" type="curve" smooth="yes"/>
      <point x="304" y="170"/>
      <point x="312" y="151"/>
      <point x="312" y="113" type="curve" smooth="yes"/>
      <point x="312" y="52" type="line" smooth="yes"/>
      <point x="312" y="-21"/>
      <point x="301" y="-29"/>
      <point x="252" y="-52" type="curve"/>
    </contour>
  </outline>
</glyph>
<glyph name="Zedescender-cy" format="2">
  <advance width="511"/>
  <unicode hex="0498"/>
  <outline>
    <contour>
      <point x="160" y="-180" type="line"/>
      <point x="318" y="-180" type="line"/>
      <point x="318" y="-2" type="line"/>
      <point x="423" y="23"/>
      <point x="485" y="97"/>
      <point x="485" y="201" type="curve" smooth="yes"/>
      <point x="485" y="305"/>
      <point x="422" y="378"/>
      <point x="326" y="377" type="curve"/>
      <point x="330" y="353" type="line"/>
      <point x="414" y="357"/>
      <point x="466" y="429"/>
      <point x="466" y="524" type="curve" smooth="yes"/>
      <point x="466" y="645"/>
      <point x="380" y="717"/>
      <point x="239" y="717" type="curve" smooth="yes"/>
      <point x="154" y="717"/>
      <point x="71" y="691"/>
      <point x="19" y="647" type="curve"/>
      <point x="73" y="502" type="line"/>
      <point x="116" y="536"/>
      <point x="164" y="555"/>
      <point x="208" y="555" type="curve" smooth="yes"/>
      <point x="256" y="555"/>
      <point x="280" y="535"/>
      <point x="280" y="494" type="curve" smooth="yes"/>
      <point x="280" y="453"/>
      <point x="258" y="432"/>
      <point x="215" y="432" type="curve" smooth="yes"/>
      <point x="108" y="432" type="line"/>
      <point x="108" y="281" type="line"/>
      <point x="227" y="281" type="line" smooth="yes"/>
      <point x="273" y="281"/>
      <point x="299" y="257"/>
      <point x="299" y="215" type="curve" smooth="yes"/>
      <point x="299" y="173"/>
      <point x="271" y="150"/>
      <point x="219" y="150" type="curve" smooth="yes"/>
      <point x="166" y="150"/>
      <point x="102" y="171"/>
      <point x="62" y="202" type="curve"/>
      <point x="10" y="55" type="line"/>
      <point x="42" y="25"/>
      <point x="98" y="3"/>
      <point x="160" y="-6" type="curve"/>
    </contour>
  </outline>
</glyph>
<glyph name="zedescender-cy" format="2">
  <advance width="475"/>
  <unicode hex="0499"/>
  <outline>
    <contour>
      <point x="159" y="-130" type="line"/>
      <point x="303" y="-130" type="line"/>
      <point x="303" y="-5" type="line"/>
      <point x="398" y="14"/>
      <point x="455" y="68"/>
      <point x="455" y="144" type="curve" smooth="yes"/>
      <point x="455" y="221"/>
      <point x="397" y="272"/>
      <point x="310" y="271" type="curve"/>
      <point x="314" y="245" type="line"/>
      <point x="390" y="247"/>
      <point x="438" y="297"/>
      <point x="438" y="368" type="curve" smooth="yes"/>
      <point x="438" y="454"/>
      <point x="361" y="506"/>
      <point x="232" y="506" type="curve" smooth="yes"/>
      <point x="152" y="506"/>
      <point x="71" y="486"/>
      <point x="26" y="455" type="curve"/>
      <point x="69" y="337" type="line"/>
      <point x="110" y="361"/>
      <point x="159" y="374"/>
      <point x="206" y="374" type="curve" smooth="yes"/>
      <point x="249" y="374"/>
      <point x="269" y="363"/>
      <point x="269" y="339" type="curve" smooth="yes"/>
      <point x="269" y="320"/>
      <point x="253" y="311"/>
      <point x="217" y="311" type="curve" smooth="yes"/>
      <point x="126" y="311" type="line"/>
      <point x="126" y="187" type="line"/>
      <point x="228" y="187" type="line" smooth="yes"/>
      <point x="269" y="187"/>
      <point x="287" y="178"/>
      <point x="287" y="159" type="curve" smooth="yes"/>
      <point x="287" y="134"/>
      <point x="261" y="120"/>
      <point x="217" y="120" type="curve" smooth="yes"/>
      <point x="166" y="120"/>
      <point x="105" y="139"/>
      <point x="65" y="167" type="curve"/>
      <point x="22" y="45" type="line"/>
      <point x="49" y="20"/>
      <point x="100" y="1"/>
      <point x="159" y="-7" type="curve"/>
    </contour>
  </outline>
</glyph>
<glyph name="kaverticalstroke-cy" format="2">
  <advance width="651"/>
  <unicode hex="049D"/>
  <outline>
    <contour>
      <point x="43" y="0" type="line"/>
      <point x="233" y="0" type="line"/>
      <point x="233" y="177" type="line"/>
      <point x="265" y="177" type="line"/>
      <point x="265" y="62" type="line"/>
      <point x="367" y="62" type="line"/>
      <point x="367" y="187" type="line"/>
      <point x="357" y="177" type="line"/>
      <point x="374" y="177" type="line" smooth="yes"/>
      <point x="388" y="177"/>
      <point x="396" y="169"/>
      <point x="405" y="145" type="curve" smooth="yes"/>
      <point x="462" y="0" type="line"/>
      <point x="664" y="0" type="line"/>
      <point x="570" y="215" type="line" smooth="yes"/>
      <point x="554" y="251"/>
      <point x="538" y="284"/>
      <point x="483" y="296" type="curve"/>
      <point x="515" y="234" type="line"/>
      <point x="652" y="494" type="line"/>
      <point x="453" y="494" type="line"/>
      <point x="374" y="323" type="line"/>
      <point x="367" y="323" type="line"/>
      <point x="367" y="429" type="line"/>
      <point x="265" y="429" type="line"/>
      <point x="265" y="323" type="line"/>
      <point x="233" y="323" type="line"/>
      <point x="233" y="494" type="line"/>
      <point x="43" y="494" type="line"/>
    </contour>
  </outline>
</glyph>
<glyph name="Kastroke-cy" format="2">
  <advance width="708"/>
  <unicode hex="049E"/>
  <outline>
    <contour>
      <point x="109" y="0" type="line"/>
      <point x="306" y="0" type="line"/>
      <point x="306" y="267" type="line"/>
      <point x="336" y="267" type="line" smooth="yes"/>
      <point x="377" y="267"/>
      <point x="393" y="252"/>
      <point x="412" y="197" type="curve" smooth="yes"/>
      <point x="482" y="0" type="line"/>
      <point x="695" y="0" type="line"/>
      <point x="589" y="260" type="line" smooth="yes"/>
      <point x="550" y="356"/>
      <point x="505" y="399"/>
      <point x="421" y="420" type="curve"/>
      <point x="522" y="338" type="line"/>
      <point x="716" y="705" type="line"/>
      <point x="503" y="705" type="line"/>
      <point x="349" y="379" type="line"/>
      <point x="399" y="427" type="line"/>
      <point x="306" y="427" type="line"/>
      <point x="306" y="510" type="line"/>
      <point x="382" y="510" type="line"/>
      <point x="382" y="637" type="line"/>
      <point x="306" y="637" type="line"/>
      <point x="306" y="705" type="line"/>
      <point x="109" y="705" type="line"/>
      <point x="109" y="637" type="line"/>
      <point x="-4" y="637" type="line"/>
      <point x="-4" y="510" type="line"/>
      <point x="109" y="510" type="line"/>
    </contour>
  </outline>
</glyph>
<glyph name="endescender-cy" format="2">
  <advance width="550"/>
  <unicode hex="04A3"/>
  <outline>
    <contour>
      <point x="415" y="-130" type="line"/>
      <point x="570" y="-130" type="line"/>
      <point x="570" y="140" type="line"/>
      <point x="499" y="140" type="line"/>
      <point x="499" y="494" type="line"/>
      <point x="309" y="494" type="line"/>
      <point x="309" y="323" type="line"/>
      <point x="233" y="323" type="line"/>
      <point x="233" y="494" type="line"/>
      <point x="43" y="494" type="line"/>
      <point x="43" y="0" type="line"/>
      <point x="233" y="0" type="line"/>
      <point x="233" y="177" type="line"/>
      <point x="309" y="177" type="line"/>
      <point x="309" y="0" type="line"/>
      <point x="415" y="0" type="line"/>
    </contour>
  </outline>
</glyph>
<glyph name="Enghe-cy" format="2">
  <advance width="787"/>
  <unicode hex="04A4"/>
  <outline>
    <contour>
      <point x="45" y="0" type="line"/>
      <point x="242" y="0" type="line"/>
      <point x="242" y="276" type="line"/>
      <point x="414" y="276" type="line"/>
      <point x="414" y="0" type="line"/>
      <point x="611" y="0" type="line"/>
      <point x="611" y="544" type="line"/>
      <point x="777" y="544" type="line"/>
      <point x="777" y="705" type="line"/>
      <point x="414" y="705" type="line"/>
      <point x="414" y="438" type="line"/>
      <point x="242" y="438" type="line"/>
      <point x="242" y="705" type="line"/>
      <point x="45" y="705" type="line"/>
    </contour>
  </outline>
</glyph>
<glyph name="Haabkhasian-cy" format="2">
  <advance width="738"/>
  <unicode hex="04A8"/>
  <outline>
    <contour>
      <point x="338" y="-12" type="curve" smooth="yes"/>
      <point x="532" y="-12"/>
      <point x="679" y="132"/>
      <point x="679" y="339" type="curve" smooth="yes"/>
      <point x="679" y="459"/>
      <point x="612" y="540"/>
      <point x="484" y="540" type="curve" smooth="yes"/>
      <point x="356" y="540"/>
      <point x="289" y="459"/>
      <point x="289" y="339" type="curve" smooth="yes"/>
      <point x="289" y="131"/>
      <point x="436" y="-12"/>
      <point x="609" y="-12" type="curve" smooth="yes"/>
      <point x="665" y="-12"/>
      <point x="729" y="4"/>
      <point x="772" y="31" type="curve"/>
      <point x="719" y="175" type="line"/>
      <point x="674" y="153"/>
      <point x="630.674" y="144"/>
      <point x="588" y="144" type="curve" smooth="yes"/>
      <point x="492" y="144"/>
      <point x="459" y="173"/>
      <point x="459" y="332" type="curve" smooth="yes"/>
      <point x="459" y="379"/>
      <point x="466" y="397"/>
      <point x="484" y="397" type="curve" smooth="yes"/>
      <point x="502" y="397"/>
      <point x="509" y="379"/>
      <point x="509" y="332" type="curve" smooth="yes"/>
      <point x="509" y="173"/>
      <point x="473" y="144"/>
      <point x="378" y="144" type="curve" smooth="yes"/>
      <point x="271" y="144"/>
      <point x="234" y="190.465"/>
      <point x="234" y="344" type="curve" smooth="yes"/>
      <point x="234" y="493.423"/>
      <point x="269" y="554"/>
      <point x="355" y="554" type="curve" smooth="yes"/>
      <point x="367" y="554"/>
      <point x="385" y="552"/>
      <point x="390" y="550" type="curve"/>
      <point x="412" y="709" type="line"/>
      <point x="394" y="714"/>
      <point x="370" y="717"/>
      <point x="343" y="717" type="curve" smooth="yes"/>
      <point x="149" y="717"/>
      <point x="34" y="575"/>
      <point x="34" y="352" type="curve" smooth="yes"/>
      <point x="34" y="125"/>
      <point x="153" y="-12"/>
    </contour>
  </outline>
</glyph>
<glyph name="haabkhasian-cy" format="2">
  <advance width="686"/>
  <unicode hex="04A9"/>
  <outline>
    <contour>
      <point x="303" y="-12" type="curve" smooth="yes"/>
      <point x="451" y="-12"/>
      <point x="599" y="90"/>
      <point x="599" y="220" type="curve" smooth="yes"/>
      <point x="599" y="329"/>
      <point x="530" y="388"/>
      <point x="432" y="388" type="curve" smooth="yes"/>
      <point x="334" y="388"/>
      <point x="265" y="329"/>
      <point x="265" y="220" type="curve" smooth="yes"/>
      <point x="265" y="90"/>
      <point x="409" y="-12"/>
      <point x="547" y="-12" type="curve" smooth="yes"/>
      <point x="598" y="-12"/>
      <point x="648" y="-2"/>
      <point x="687" y="16" type="curve"/>
      <point x="663" y="144" type="line"/>
      <point x="623" y="124"/>
      <point x="589" y="115"/>
      <point x="542" y="115" type="curve" smooth="yes"/>
      <point x="445" y="115"/>
      <point x="404" y="146"/>
      <point x="404" y="209" type="curve" smooth="yes"/>
      <point x="404" y="247"/>
      <point x="416" y="264"/>
      <point x="432" y="264" type="curve" smooth="yes"/>
      <point x="448" y="264"/>
      <point x="460" y="247"/>
      <point x="460" y="209" type="curve" smooth="yes"/>
      <point x="460" y="151"/>
      <point x="419" y="115"/>
      <point x="322" y="115" type="curve" smooth="yes"/>
      <point x="257" y="115"/>
      <point x="214" y="149"/>
      <point x="214" y="251" type="curve" smooth="yes"/>
      <point x="214" y="325"/>
      <point x="236" y="365"/>
      <point x="294" y="365" type="curve" smooth="yes"/>
      <point x="299" y="365"/>
      <point x="305" y="364"/>
      <point x="310" y="363" type="curve"/>
      <point x="334" y="498" type="line"/>
      <point x="313" y="503"/>
      <point x="295" y="506"/>
      <point x="274" y="506" type="curve" smooth="yes"/>
      <point x="125" y="506"/>
      <point x="29" y="414"/>
      <point x="29" y="250" type="curve" smooth="yes"/>
      <point x="29" y="80"/>
      <point x="133" y="-12"/>
    </contour>
  </outline>
</glyph>
<glyph name="tedescender-cy" format="2">
  <advance width="450"/>
  <unicode hex="04AD"/>
  <outline>
    <contour>
      <point x="218" y="-130" type="line"/>
      <point x="373" y="-130" type="line"/>
      <point x="373" y="140" type="line"/>
      <point x="320" y="140" type="line"/>
      <point x="320" y="346" type="line"/>
      <point x="437" y="346" type="line"/>
      <point x="437" y="494" type="line"/>
      <point x="13" y="494" type="line"/>
      <point x="13" y="346" type="line"/>
      <point x="130" y="346" type="line"/>
      <point x="130" y="0" type="line"/>
      <point x="218" y="0" type="line"/>
    </contour>
  </outline>
</glyph>
<glyph name="ustraight-cy" format="2">
  <advance width="459"/>
  <unicode hex="04AF"/>
  <anchor x="233" y="26" name="center"/>
  <outline>
    <contour>
      <point x="135" y="-180" type="line"/>
      <point x="325" y="-180" type="line"/>
      <point x="325" y="47" type="line"/>
      <point x="486" y="494" type="line"/>
      <point x="301" y="494" type="line"/>
      <point x="218" y="184" type="line"/>
      <point x="249" y="184" type="line"/>
      <point x="172" y="494" type="line"/>
      <point x="-27" y="494" type="line"/>
      <point x="135" y="44" type="line"/>
    </contour>
  </outline>
</glyph>
<glyph name="ustraightstroke-cy" format="2">
  <advance width="459"/>
  <unicode hex="04B1"/>
  <outline>
    <contour>
      <point x="135" y="-180" type="line"/>
      <point x="325" y="-180" type="line"/>
      <point x="325" y="-64" type="line"/>
      <point x="435" y="-64" type="line"/>
      <point x="435" y="65" type="line"/>
      <point x="295" y="65" type="line"/>
      <point x="325" y="47" type="line"/>
      <point x="486" y="494" type="line"/>
      <point x="301" y="494" type="line"/>
      <point x="218" y="184" type="line"/>
      <point x="249" y="184" type="line"/>
      <point x="172" y="494" type="line"/>
      <point x="-27" y="494" type="line"/>
      <point x="135" y="44" type="line"/>
      <point x="165" y="65" type="line"/>
      <point x="25" y="65" type="line"/>
      <point x="25" y="-64" type="line"/>
      <point x="135" y="-64" type="line"/>
    </contour>
  </outline>
</glyph>
<glyph name="Cheverticalstroke-cy" format="2">
  <advance width="650"/>
  <unicode hex="04B8"/>
  <outline>
    <contour>
      <point x="408" y="0" type="line"/>
      <point x="605" y="0" type="line"/>
      <point x="605" y="705" type="line"/>
      <point x="408" y="705" type="line"/>
      <point x="408" y="403" type="line"/>
      <point x="392" y="394"/>
      <point x="374" y="393"/>
      <point x="356" y="390" type="curve"/>
      <point x="379" y="381" type="line"/>
      <point x="379" y="540" type="line"/>
      <point x="266" y="540" type="line"/>
      <point x="266" y="381" type="line"/>
      <point x="300" y="391" type="line"/>
      <point x="253" y="406"/>
      <point x="233" y="437"/>
      <point x="233" y="507" type="curve" smooth="yes"/>
      <point x="233" y="705" type="line"/>
      <point x="36" y="705" type="line"/>
      <point x="36" y="505" type="line" smooth="yes"/>
      <point x="36" y="318"/>
      <point x="119" y="222"/>
      <point x="289" y="222" type="curve"/>
      <point x="266" y="240" type="line"/>
      <point x="266" y="97" type="line"/>
      <point x="379" y="97" type="line"/>
      <point x="379" y="252" type="line"/>
      <point x="352" y="229" type="line"/>
      <point x="372" y="233"/>
      <point x="391" y="235"/>
      <point x="408" y="241" type="curve"/>
    </contour>
  </outline>
</glyph>
<glyph name="Shha-cy" format="2">
  <advance width="613"/>
  <unicode hex="04BA"/>
  <anchor x="381" y="0" name="bottomright"/>
  <outline>
    <contour>
      <point x="45" y="0" type="line"/>
      <point x="242" y="0" type="line"/>
      <point x="242" y="302" type="line"/>
      <point x="261" y="313"/>
      <point x="282" y="318"/>
      <point x="304" y="318" type="curve" smooth="yes"/>
      <point x="359" y="318"/>
      <point x="381" y="284"/>
      <point x="381" y="198" type="curve" smooth="yes"/>
      <point x="381" y="0" type="line"/>
      <point x="578" y="0" type="line"/>
      <point x="578" y="200" type="line" smooth="yes"/>
      <point x="578" y="387"/>
      <point x="501" y="483"/>
      <point x="343" y="483" type="curve" smooth="yes"/>
      <point x="306" y="483"/>
      <point x="271" y="476"/>
      <point x="242" y="464" type="curve"/>
      <point x="242" y="705" type="line"/>
      <point x="45" y="705" type="line"/>
    </contour>
  </outline>
</glyph>
<glyph name="Cheabkhasian-cy" format="2">
  <advance width="870"/>
  <unicode hex="04BC"/>
  <anchor x="641" y="0" name="ogonek"/>
  <outline>
    <contour>
      <point x="550" y="-12" type="curve" smooth="yes"/>
      <point x="641" y="-12"/>
      <point x="741" y="14"/>
      <point x="809" y="54" type="curve"/>
      <point x="749" y="211" type="line"/>
      <point x="697" y="180"/>
      <point x="636" y="163"/>
      <point x="577" y="163" type="curve" smooth="yes"/>
      <point x="486" y="163"/>
      <point x="441" y="203"/>
      <point x="429" y="300" type="curve"/>
      <point x="407" y="279" type="line"/>
      <point x="836" y="279" type="line"/>
      <point x="836" y="351" type="line" smooth="yes"/>
      <point x="836" y="582"/>
      <point x="724" y="717"/>
      <point x="533" y="717" type="curve" smooth="yes"/>
      <point x="355" y="717"/>
      <point x="241" y="599"/>
      <point x="224" y="401" type="curve"/>
      <point x="254" y="427" type="line"/>
      <point x="235" y="427" type="line" smooth="yes"/>
      <point x="198" y="427"/>
      <point x="176" y="446"/>
      <point x="176" y="494" type="curve" smooth="yes"/>
      <point x="176" y="544" type="line"/>
      <point x="0" y="544" type="line"/>
      <point x="0" y="494" type="line" smooth="yes"/>
      <point x="0" y="342"/>
      <point x="63" y="279"/>
      <point x="198" y="279" type="curve" smooth="yes"/>
      <point x="242" y="279" type="line"/>
      <point x="224" y="300" type="line"/>
      <point x="239" y="99"/>
      <point x="354" y="-12"/>
    </contour>
    <contour>
      <point x="533" y="560" type="curve" smooth="yes"/>
      <point x="595" y="560"/>
      <point x="628" y="510"/>
      <point x="635" y="407" type="curve"/>
      <point x="656" y="427" type="line"/>
      <point x="404" y="427" type="line"/>
      <point x="427" y="403" type="line"/>
      <point x="434" y="508"/>
      <point x="470" y="560"/>
    </contour>
  </outline>
</glyph>
<glyph name="cheabkhasian-cy" format="2">
  <advance width="601"/>
  <unicode hex="04BD"/>
  <anchor x="451" y="0" name="ogonek"/>
  <outline>
    <contour>
      <point x="412" y="-12" type="curve" smooth="yes"/>
      <point x="474" y="-12"/>
      <point x="532" y="5"/>
      <point x="587" y="41" type="curve"/>
      <point x="541" y="166" type="line"/>
      <point x="506" y="143"/>
      <point x="460" y="129"/>
      <point x="420" y="129" type="curve" smooth="yes"/>
      <point x="356" y="129"/>
      <point x="339" y="156"/>
      <point x="339" y="215" type="curve"/>
      <point x="320" y="204" type="line"/>
      <point x="594" y="204" type="line"/>
      <point x="594" y="258" type="line" smooth="yes"/>
      <point x="594" y="415"/>
      <point x="521" y="506"/>
      <point x="387" y="506" type="curve" smooth="yes"/>
      <point x="256" y="506"/>
      <point x="172" y="419"/>
      <point x="162" y="276" type="curve"/>
      <point x="195" y="298" type="line"/>
      <point x="177" y="298" type="line" smooth="yes"/>
      <point x="150" y="298"/>
      <point x="140" y="310"/>
      <point x="140" y="343" type="curve" smooth="yes"/>
      <point x="140" y="383" type="line"/>
      <point x="6" y="383" type="line"/>
      <point x="6" y="342" type="line" smooth="yes"/>
      <point x="6" y="241"/>
      <point x="46" y="204"/>
      <point x="149" y="204" type="curve" smooth="yes"/>
      <point x="182" y="204" type="line"/>
      <point x="162" y="219" type="line"/>
      <point x="172" y="73"/>
      <point x="261" y="-12"/>
    </contour>
    <contour>
      <point x="392" y="380" type="curve" smooth="yes"/>
      <point x="420" y="380"/>
      <point x="435" y="359"/>
      <point x="435" y="284" type="curve"/>
      <point x="451" y="298" type="line"/>
      <point x="319" y="298" type="line"/>
      <point x="339" y="264" type="line"/>
      <point x="339" y="349"/>
      <point x="354" y="380"/>
    </contour>
  </outline>
</glyph>
<glyph name="Kahook-cy" format="2">
  <advance width="638"/>
  <unicode hex="04C3"/>
  <outline>
    <contour>
      <point x="374" y="-192" type="curve" smooth="yes"/>
      <point x="519" y="-192"/>
      <point x="602" y="-104"/>
      <point x="602" y="49" type="curve" smooth="yes"/>
      <point x="602" y="150" type="line" smooth="yes"/>
      <point x="602" y="314"/>
      <point x="541" y="415"/>
      <point x="415" y="434" type="curve"/>
      <point x="451" y="368" type="line"/>
      <point x="618" y="705" type="line"/>
      <point x="405" y="705" type="line"/>
      <point x="278" y="409" type="line"/>
      <point x="313" y="438" type="line"/>
      <point x="242" y="438" type="line"/>
      <point x="242" y="705" type="line"/>
      <point x="45" y="705" type="line"/>
      <point x="45" y="0" type="line"/>
      <point x="242" y="0" type="line"/>
      <point x="242" y="278" type="line"/>
      <point x="312" y="278" type="line" smooth="yes"/>
      <point x="380" y="278"/>
      <point x="405" y="235"/>
      <point x="405" y="148" type="curve" smooth="yes"/>
      <point x="405" y="40" type="line" smooth="yes"/>
      <point x="405" y="-15"/>
      <point x="387" y="-40"/>
      <point x="348" y="-40" type="curve" smooth="yes"/>
      <point x="328" y="-40"/>
      <point x="308" y="-35"/>
      <point x="291" y="-31" type="curve"/>
      <point x="262" y="-173" type="line"/>
      <point x="298" y="-185"/>
      <point x="337" y="-192"/>
    </contour>
  </outline>
</glyph>
<glyph name="Emtail-cy" format="2">
  <advance width="791"/>
  <unicode hex="04CD"/>
  <outline>
    <contour>
      <point x="526" y="-180" type="line"/>
      <point x="691" y="-180" type="line"/>
      <point x="793" y="154" type="line"/>
      <point x="699" y="154" type="line"/>
      <point x="699" y="705" type="line"/>
      <point x="506" y="705" type="line"/>
      <point x="343" y="284" type="line"/>
      <point x="407" y="284" type="line"/>
      <point x="244" y="705" type="line"/>
      <point x="47" y="705" type="line"/>
      <point x="47" y="0" type="line"/>
      <point x="228" y="0" type="line"/>
      <point x="228" y="454" type="line"/>
      <point x="196" y="448" type="line"/>
      <point x="322" y="120" type="line"/>
      <point x="421" y="120" type="line"/>
      <point x="550" y="456" type="line"/>
      <point x="518" y="462" type="line"/>
      <point x="518" y="0" type="line"/>
      <point x="576" y="0" type="line"/>
    </contour>
  </outline>
</glyph>
<glyph name="Dzeabkhasian-cy" format="2">
  <advance width="511"/>
  <unicode hex="04E0"/>
  <outline>
    <contour>
      <point x="232" y="-12" type="curve" smooth="yes"/>
      <point x="391" y="-12"/>
      <point x="485" y="72"/>
      <point x="485" y="220" type="curve" smooth="yes"/>
      <point x="485" y="351"/>
      <point x="407" y="425"/>
      <point x="277" y="425" type="curve" smooth="yes"/>
      <point x="248" y="425" type="line"/>
      <point x="278" y="373" type="line"/>
      <point x="459" y="577" type="line"/>
      <point x="459" y="705" type="line"/>
      <point x="21" y="705" type="line"/>
      <point x="21" y="545" type="line"/>
      <point x="279" y="545" type="line"/>
      <point x="279" y="596" type="line"/>
      <point x="108" y="392" type="line"/>
      <point x="108" y="281" type="line"/>
      <point x="227" y="281" type="line" smooth="yes"/>
      <point x="273" y="281"/>
      <point x="299" y="257"/>
      <point x="299" y="215" type="curve" smooth="yes"/>
      <point x="299" y="173"/>
      <point x="271" y="150"/>
      <point x="219" y="150" type="curve" smooth="yes"/>
      <point x="166" y="150"/>
      <point x="102" y="171"/>
      <point x="62" y="202" type="curve"/>
      <point x="10" y="55" type="line"/>
      <point x="53" y="15"/>
      <point x="142" y="-12"/>
    </contour>
  </outline>
</glyph>
<glyph name="Reversedze-cy" format="2">
  <advance width="511"/>
  <unicode hex="0510"/>
  <outline>
    <contour>
      <point x="280" y="-12" type="curve" smooth="yes"/>
      <point x="368" y="-12"/>
      <point x="457" y="14"/>
      <point x="501" y="55" type="curve"/>
      <point x="449" y="202" type="line"/>
      <point x="409" y="171"/>
      <point x="345" y="150"/>
      <point x="292" y="150" type="curve" smooth="yes"/>
      <point x="240" y="150"/>
      <point x="212" y="173"/>
      <point x="212" y="215" type="curve" smooth="yes"/>
      <point x="212" y="257"/>
      <point x="238" y="281"/>
      <point x="284" y="281" type="curve" smooth="yes"/>
      <point x="403" y="281" type="line"/>
      <point x="403" y="432" type="line"/>
      <point x="297" y="432" type="line" smooth="yes"/>
      <point x="254" y="432"/>
      <point x="231" y="453"/>
      <point x="231" y="494" type="curve" smooth="yes"/>
      <point x="231" y="535"/>
      <point x="255" y="555"/>
      <point x="303" y="555" type="curve" smooth="yes"/>
      <point x="347" y="555"/>
      <point x="395" y="536"/>
      <point x="438" y="502" type="curve"/>
      <point x="492" y="647" type="line"/>
      <point x="440" y="691"/>
      <point x="357" y="717"/>
      <point x="272" y="717" type="curve" smooth="yes"/>
      <point x="131" y="717"/>
      <point x="45" y="645"/>
      <point x="45" y="524" type="curve" smooth="yes"/>
      <point x="45" y="443"/>
      <point x="83" y="379"/>
      <point x="146" y="359" type="curve"/>
      <point x="146" y="373" type="line"/>
      <point x="72" y="357"/>
      <point x="26" y="290"/>
      <point x="26" y="201" type="curve" smooth="yes"/>
      <point x="26" y="71"/>
      <point x="123" y="-12"/>
    </contour>
  </outline>
</glyph>
<glyph name="reversedze-cy" format="2">
  <advance width="475"/>
  <unicode hex="0511"/>
  <outline>
    <contour>
      <point x="249" y="-12" type="curve" smooth="yes"/>
      <point x="334" y="-12"/>
      <point x="416" y="11"/>
      <point x="453" y="45" type="curve"/>
      <point x="410" y="167" type="line"/>
      <point x="370" y="139"/>
      <point x="309" y="120"/>
      <point x="258" y="120" type="curve" smooth="yes"/>
      <point x="214" y="120"/>
      <point x="188" y="134"/>
      <point x="188" y="159" type="curve" smooth="yes"/>
      <point x="188" y="178"/>
      <point x="206" y="187"/>
      <point x="247" y="187" type="curve" smooth="yes"/>
      <point x="349" y="187" type="line"/>
      <point x="349" y="311" type="line"/>
      <point x="258" y="311" type="line" smooth="yes"/>
      <point x="222" y="311"/>
      <point x="206" y="320"/>
      <point x="206" y="339" type="curve" smooth="yes"/>
      <point x="206" y="363"/>
      <point x="226" y="374"/>
      <point x="269" y="374" type="curve" smooth="yes"/>
      <point x="316" y="374"/>
      <point x="365" y="361"/>
      <point x="406" y="337" type="curve"/>
      <point x="449" y="455" type="line"/>
      <point x="404" y="486"/>
      <point x="323" y="506"/>
      <point x="243" y="506" type="curve" smooth="yes"/>
      <point x="114" y="506"/>
      <point x="37" y="454"/>
      <point x="37" y="368" type="curve" smooth="yes"/>
      <point x="37" y="312"/>
      <point x="67" y="268"/>
      <point x="117" y="252" type="curve"/>
      <point x="117" y="265" type="line"/>
      <point x="57" y="251"/>
      <point x="20" y="206"/>
      <point x="20" y="144" type="curve" smooth="yes"/>
      <point x="20" y="49"/>
      <point x="109" y="-12"/>
    </contour>
  </outline>
</glyph>
<glyph name="elhook-cy" format="2">
  <advance width="536"/>
  <unicode hex="0513"/>
  <outline>
    <contour>
      <point x="241" y="-193" type="line"/>
      <point x="277" y="-190" type="line" smooth="yes"/>
      <point x="448" y="-176"/>
      <point x="490" y="-125"/>
      <point x="493" y="0" type="curve" smooth="yes"/>
      <point x="493" y="494" type="line"/>
      <point x="93" y="494" type="line"/>
      <point x="93" y="277" type="line" smooth="yes"/>
      <point x="93" y="185"/>
      <point x="71" y="148"/>
      <point x="9" y="133" type="curve"/>
      <point x="61" y="-17" type="line"/>
      <point x="199" y="-3"/>
      <point x="264" y="90"/>
      <point x="264" y="271" type="curve" smooth="yes"/>
      <point x="264" y="350" type="line"/>
      <point x="307" y="350" type="line"/>
      <point x="307" y="-11" type="line" smooth="yes"/>
      <point x="307" y="-39"/>
      <point x="297" y="-49"/>
      <point x="270" y="-53" type="curve" smooth="yes"/>
      <point x="228" y="-59" type="line"/>
    </contour>
  </outline>
</glyph>
<glyph name="Pedescender-cy" format="2">
  <advance width="706"/>
  <unicode hex="0524"/>
  <outline>
    <contour>
      <point x="504" y="-180" type="line"/>
      <point x="672" y="-180" type="line"/>
      <point x="672" y="154" type="line"/>
      <point x="605" y="154" type="line"/>
      <point x="605" y="705" type="line"/>
      <point x="45" y="705" type="line"/>
      <point x="45" y="0" type="line"/>
      <point x="242" y="0" type="line"/>
      <point x="242" y="545" type="line"/>
      <point x="408" y="545" type="line"/>
      <point x="408" y="0" type="line"/>
      <point x="504" y="0" type="line"/>
    </contour>
  </outline>
</glyph>
<glyph name="pedescender-cy" format="2">
  <advance width="548"/>
  <unicode hex="0525"/>
  <outline>
    <contour>
      <point x="395" y="-130" type="line"/>
      <point x="550" y="-130" type="line"/>
      <point x="550" y="140" type="line"/>
      <point x="497" y="140" type="line"/>
      <point x="497" y="494" type="line"/>
      <point x="43" y="494" type="line"/>
      <point x="43" y="0" type="line"/>
      <point x="233" y="0" type="line"/>
      <point x="233" y="349" type="line"/>
      <point x="307" y="349" type="line"/>
      <point x="307" y="0" type="line"/>
      <point x="395" y="0" type="line"/>
    </contour>
  </outline>
</glyph>
<glyph name="Shhadescender-cy" format="2">
  <advance width="669"/>
  <unicode hex="0526"/>
  <outline>
    <contour>
      <point x="477" y="-180" type="line"/>
      <point x="645" y="-180" type="line"/>
      <point x="645" y="154" type="line"/>
      <point x="578" y="154" type="line"/>
      <point x="578" y="200" type="line" smooth="yes"/>
      <point x="578" y="387"/>
      <point x="501" y="483"/>
      <point x="343" y="483" type="curve" smooth="yes"/>
      <point x="306" y="483"/>
      <point x="271" y="476"/>
      <point x="242" y="464" type="curve"/>
      <point x="242" y="705" type="line"/>
      <point x="45" y="705" type="line"/>
      <point x="45" y="0" type="line"/>
      <point x="242" y="0" type="line"/>
      <point x="242" y="302" type="line"/>
      <point x="261" y="313"/>
      <point x="282" y="318"/>
      <point x="304" y="318" type="curve" smooth="yes"/>
      <point x="359" y="318"/>
      <point x="381" y="284"/>
      <point x="381" y="198" type="curve" smooth="yes"/>
      <point x="381" y="0" type="line"/>
      <point x="477" y="0" type="line"/>
    </contour>
  </outline>
</glyph>
<glyph name="EnLeftHook-cy" format="2">
  <advance width="656"/>
  <unicode hex="0528"/>
  <outline>
    <contour>
      <point x="-16" y="-193" type="line"/>
      <point x="20" y="-190" type="line" smooth="yes"/>
      <point x="204" y="-175"/>
      <point x="242" y="-120"/>
      <point x="242" y="17" type="curve" smooth="yes"/>
      <point x="242" y="276" type="line"/>
      <point x="414" y="276" type="line"/>
      <point x="414" y="0" type="line"/>
      <point x="611" y="0" type="line"/>
      <point x="611" y="705" type="line"/>
      <point x="414" y="705" type="line"/>
      <point x="414" y="438" type="line"/>
      <point x="242" y="438" type="line"/>
      <point x="242" y="705" type="line"/>
      <point x="45" y="705" type="line"/>
      <point x="45" y="-11" type="line" smooth="yes"/>
      <point x="45" y="-39"/>
      <point x="34" y="-50"/>
      <point x="13" y="-53" type="curve" smooth="yes"/>
      <point x="-29" y="-59" type="line"/>
    </contour>
  </outline>
</glyph>
<glyph name="enlefthook-cy" format="2">
  <advance width="542"/>
  <unicode hex="0529"/>
  <anchor x="309" y="0" name="bottomright"/>
  <outline>
    <contour>
      <point x="-19" y="-193" type="line"/>
      <point x="17" y="-190" type="line" smooth="yes"/>
      <point x="188" y="-176"/>
      <point x="230" y="-125"/>
      <point x="233" y="0" type="curve" smooth="yes"/>
      <point x="233" y="177" type="line"/>
      <point x="309" y="177" type="line"/>
      <point x="309" y="0" type="line"/>
      <point x="499" y="0" type="line"/>
      <point x="499" y="494" type="line"/>
      <point x="309" y="494" type="line"/>
      <point x="309" y="323" type="line"/>
      <point x="233" y="323" type="line"/>
      <point x="233" y="494" type="line"/>
      <point x="43" y="494" type="line"/>
      <point x="43" y="-11" type="line" smooth="yes"/>
      <point x="43" y="-39"/>
      <point x="32" y="-50"/>
      <point x="10" y="-53" type="curve" smooth="yes"/>
      <point x="-32" y="-59" type="line"/>
    </contour>
  </outline>
</glyph>
<glyph name="figuredash" format="2">
  <advance width="498"/>
  <unicode hex="2012"/>
  <outline>
    <contour>
      <point x="51" y="215" type="line"/>
      <point x="447" y="215" type="line"/>
      <point x="447" y="322" type="line"/>
      <point x="51" y="322" type="line"/>
    </contour>
  </outline>
</glyph>
<glyph name="emdash" format="2">
  <advance width="818"/>
  <unicode hex="2014"/>
  <outline>
    <contour>
      <point x="0" y="215" type="line"/>
      <point x="818" y="215" type="line"/>
      <point x="818" y="322" type="line"/>
      <point x="0" y="322" type="line"/>
    </contour>
  </outline>
</glyph>
<glyph name="quoteleft" format="2">
  <advance width="249"/>
  <unicode hex="2018"/>
  <outline>
    <contour>
      <point x="30" y="361" type="line"/>
      <point x="219" y="361" type="line"/>
      <point x="219" y="554" type="line"/>
      <point x="88" y="554" type="line"/>
      <point x="130" y="508" type="line"/>
      <point x="130" y="560"/>
      <point x="151" y="604"/>
      <point x="202" y="659" type="curve"/>
      <point x="132" y="715" type="line"/>
      <point x="59" y="638"/>
      <point x="30" y="572"/>
      <point x="30" y="482" type="curve" smooth="yes"/>
    </contour>
  </outline>
</glyph>
<glyph name="quoteright" format="2">
  <advance width="249"/>
  <unicode hex="2019"/>
  <outline>
    <contour>
      <point x="117" y="351" type="line"/>
      <point x="190" y="428"/>
      <point x="219" y="494"/>
      <point x="219" y="584" type="curve" smooth="yes"/>
      <point x="219" y="705" type="line"/>
      <point x="30" y="705" type="line"/>
      <point x="30" y="512" type="line"/>
      <point x="161" y="512" type="line"/>
      <point x="119" y="558" type="line"/>
      <point x="119" y="506"/>
      <point x="98" y="462"/>
      <point x="47" y="407" type="curve"/>
    </contour>
  </outline>
</glyph>
<glyph name="daggerdbl" format="2">
  <advance width="328"/>
  <unicode hex="2021"/>
  <outline>
    <contour>
      <point x="95" y="157" type="line"/>
      <point x="233" y="157" type="line"/>
      <point x="233" y="268" type="line"/>
      <point x="308" y="268" type="line"/>
      <point x="308" y="388" type="line"/>
      <point x="233" y="388" type="line"/>
      <point x="233" y="474" type="line"/>
      <point x="308" y="474" type="line"/>
      <point x="308" y="594" type="line"/>
      <point x="233" y="594" type="line"/>
      <point x="233" y="705" type="line"/>
      <point x="95" y="705" type="line"/>
      <point x="95" y="594" type="line"/>
      <point x="20" y="594" type="line"/>
      <point x="20" y="474" type="line"/>
      <point x="95" y="474" type="line"/>
      <point x="95" y="388" type="line"/>
      <point x="20" y="388" type="line"/>
      <point x="20" y="268" type="line"/>
      <point x="95" y="268" type="line"/>
    </contour>
  </outline>
</glyph>
<glyph name="guilsinglleft" format="2">
  <advance width="295"/>
  <unicode hex="2039"/>
  <outline>
    <contour>
      <point x="144" y="57" type="line"/>
      <point x="266" y="118" type="line"/>
      <point x="214" y="267" type="line"/>
      <point x="266" y="416" type="line"/>
      <point x="144" y="477" type="line"/>
      <point x="55" y="314" type="line"/>
      <point x="55" y="220" type="line"/>
    </contour>
  </outline>
</glyph>
<glyph name="guilsinglright" format="2">
  <advance width="287"/>
  <unicode hex="203A"/>
  <outline>
    <contour>
      <point x="151" y="57" type="line"/>
      <point x="240" y="220" type="line"/>
      <point x="240" y="314" type="line"/>
      <point x="151" y="477" type="line"/>
      <point x="29" y="416" type="line"/>
      <point x="81" y="267" type="line"/>
      <point x="29" y="118" type="line"/>
    </contour>
  </outline>
</glyph>
<glyph name="commercialMinusSign" format="2">
  <advance width="498"/>
  <unicode hex="2052"/>
  <outline>
    <contour>
      <point x="117" y="-87" type="line"/>
      <point x="506" y="714" type="line"/>
      <point x="382" y="775" type="line"/>
      <point x="-8" y="-25" type="line"/>
    </contour>
    <contour>
      <point x="291" y="6" type="line"/>
      <point x="480" y="6" type="line"/>
      <point x="480" y="199" type="line"/>
      <point x="291" y="199" type="line"/>
    </contour>
    <contour>
      <point x="25" y="507" type="line"/>
      <point x="214" y="507" type="line"/>
      <point x="214" y="700" type="line"/>
      <point x="25" y="700" type="line"/>
    </contour>
  </outline>
</glyph>
<glyph name="won" format="2">
  <advance width="498"/>
  <unicode hex="20A9"/>
  <outline>
    <contour>
      <point x="112" y="0" type="line"/>
      <point x="205" y="0" type="line"/>
      <point x="259" y="500" type="line"/>
      <point x="239" y="500" type="line"/>
      <point x="293" y="0" type="line"/>
      <point x="386" y="0" type="line"/>
      <point x="413" y="232" type="line"/>
      <point x="486" y="232" type="line"/>
      <point x="486" y="336" type="line"/>
      <point x="425" y="336" type="line"/>
      <point x="430" y="376" type="line"/>
      <point x="486" y="376" type="line"/>
      <point x="486" y="480" type="line"/>
      <point x="442" y="480" type="line"/>
      <point x="469" y="705" type="line"/>
      <point x="342" y="705" type="line"/>
      <point x="315" y="216" type="line"/>
      <point x="347" y="216" type="line"/>
      <point x="289" y="705" type="line"/>
      <point x="209" y="705" type="line"/>
      <point x="151" y="216" type="line"/>
      <point x="183" y="216" type="line"/>
      <point x="156" y="705" type="line"/>
      <point x="29" y="705" type="line"/>
      <point x="56" y="480" type="line"/>
      <point x="12" y="480" type="line"/>
      <point x="12" y="376" type="line"/>
      <point x="68" y="376" type="line"/>
      <point x="72" y="336" type="line"/>
      <point x="12" y="336" type="line"/>
      <point x="12" y="232" type="line"/>
      <point x="85" y="232" type="line"/>
    </contour>
  </outline>
</glyph>
<glyph name="dong" format="2">
  <advance width="498"/>
  <unicode hex="20AB"/>
  <outline>
    <contour>
      <point x="173" y="-12" type="curve" smooth="yes"/>
      <point x="231" y="-12"/>
      <point x="274" y="23"/>
      <point x="288" y="83" type="curve"/>
      <point x="279" y="83" type="line"/>
      <point x="279" y="0" type="line"/>
      <point x="466" y="0" type="line"/>
      <point x="466" y="534" type="line"/>
      <point x="515" y="534" type="line"/>
      <point x="515" y="642" type="line"/>
      <point x="466" y="642" type="line"/>
      <point x="466" y="705" type="line"/>
      <point x="276" y="705" type="line"/>
      <point x="276" y="642" type="line"/>
      <point x="174" y="642" type="line"/>
      <point x="174" y="534" type="line"/>
      <point x="276" y="534" type="line"/>
      <point x="276" y="411" type="line"/>
      <point x="288" y="411" type="line"/>
      <point x="274" y="471"/>
      <point x="232" y="506"/>
      <point x="174" y="506" type="curve" smooth="yes"/>
      <point x="76" y="506"/>
      <point x="16" y="408"/>
      <point x="16" y="247" type="curve" smooth="yes"/>
      <point x="16" y="87"/>
      <point x="76" y="-12"/>
    </contour>
    <contour>
      <point x="41" y="-165" type="line"/>
      <point x="466" y="-165" type="line"/>
      <point x="466" y="-57" type="line"/>
      <point x="41" y="-57" type="line"/>
    </contour>
    <contour>
      <point x="243" y="129" type="curve" smooth="yes"/>
      <point x="218" y="129"/>
      <point x="207" y="166"/>
      <point x="207" y="247" type="curve" smooth="yes"/>
      <point x="207" y="328"/>
      <point x="218" y="365"/>
      <point x="243" y="365" type="curve" smooth="yes"/>
      <point x="268" y="365"/>
      <point x="279" y="328"/>
      <point x="279" y="247" type="curve" smooth="yes"/>
      <point x="279" y="166"/>
      <point x="268" y="129"/>
    </contour>
  </outline>
</glyph>
<glyph name="peso" format="2">
  <advance width="498"/>
  <unicode hex="20B1"/>
  <outline>
    <contour>
      <point x="64" y="0" type="line"/>
      <point x="230" y="0" type="line"/>
      <point x="230" y="208" type="line"/>
      <point x="273" y="208" type="line" smooth="yes"/>
      <point x="348" y="208"/>
      <point x="401" y="258"/>
      <point x="425" y="344" type="curve"/>
      <point x="393" y="334" type="line"/>
      <point x="486" y="334" type="line"/>
      <point x="486" y="438" type="line"/>
      <point x="414" y="438" type="line"/>
      <point x="436" y="401" type="line"/>
      <point x="440" y="430"/>
      <point x="440" y="469"/>
      <point x="437" y="502" type="curve"/>
      <point x="413" y="478" type="line"/>
      <point x="486" y="478" type="line"/>
      <point x="486" y="582" type="line"/>
      <point x="394" y="582" type="line"/>
      <point x="424" y="573" type="line"/>
      <point x="400" y="657"/>
      <point x="346" y="705"/>
      <point x="273" y="705" type="curve" smooth="yes"/>
      <point x="64" y="705" type="line"/>
      <point x="64" y="582" type="line"/>
      <point x="12" y="582" type="line"/>
      <point x="12" y="478" type="line"/>
      <point x="64" y="478" type="line"/>
      <point x="64" y="438" type="line"/>
      <point x="12" y="438" type="line"/>
      <point x="12" y="334" type="line"/>
      <point x="64" y="334" type="line"/>
    </contour>
    <contour>
      <point x="230" y="359" type="line"/>
      <point x="230" y="554" type="line"/>
      <point x="246" y="554" type="line" smooth="yes"/>
      <point x="268" y="554"/>
      <point x="281" y="517"/>
      <point x="281" y="456" type="curve" smooth="yes"/>
      <point x="281" y="395"/>
      <point x="268" y="359"/>
      <point x="246" y="359" type="curve" smooth="yes"/>
    </contour>
  </outline>
</glyph>
<glyph name="guarani" format="2">
  <advance width="498"/>
  <unicode hex="20B2"/>
  <outline>
    <contour>
      <point x="198" y="-115" type="line"/>
      <point x="342" y="-115" type="line"/>
      <point x="342" y="25" type="line"/>
      <point x="319" y="-1" type="line"/>
      <point x="371" y="3"/>
      <point x="422" y="17"/>
      <point x="471" y="44" type="curve"/>
      <point x="471" y="401" type="line"/>
      <point x="255" y="401" type="line"/>
      <point x="255" y="277" type="line"/>
      <point x="313" y="277" type="line"/>
      <point x="313" y="135" type="line"/>
      <point x="386" y="178" type="line"/>
      <point x="353" y="168"/>
      <point x="327" y="163"/>
      <point x="307" y="163" type="curve" smooth="yes"/>
      <point x="240" y="163"/>
      <point x="209" y="222"/>
      <point x="209" y="350" type="curve" smooth="yes"/>
      <point x="209" y="480"/>
      <point x="241" y="538"/>
      <point x="312" y="538" type="curve" smooth="yes"/>
      <point x="347" y="538"/>
      <point x="384" y="522"/>
      <point x="414" y="495" type="curve"/>
      <point x="467" y="649" type="line"/>
      <point x="429" y="680"/>
      <point x="381" y="699"/>
      <point x="328" y="705" type="curve"/>
      <point x="342" y="682" type="line"/>
      <point x="342" y="820" type="line"/>
      <point x="198" y="820" type="line"/>
      <point x="198" y="682" type="line"/>
      <point x="246" y="704" type="line"/>
      <point x="99" y="683"/>
      <point x="13" y="555"/>
      <point x="13" y="352" type="curve" smooth="yes"/>
      <point x="13" y="162"/>
      <point x="88" y="38"/>
      <point x="222" y="6" type="curve"/>
      <point x="198" y="25" type="line"/>
    </contour>
  </outline>
</glyph>
<glyph name="cedi" format="2">
  <advance width="498"/>
  <unicode hex="20B5"/>
  <outline>
    <contour>
      <point x="210" y="-115" type="line"/>
      <point x="354" y="-115" type="line"/>
      <point x="354" y="24" type="line"/>
      <point x="338" y="0" type="line"/>
      <point x="393" y="7"/>
      <point x="441" y="29"/>
      <point x="474" y="63" type="curve"/>
      <point x="413" y="212" type="line"/>
      <point x="379" y="182"/>
      <point x="351" y="169"/>
      <point x="318" y="169" type="curve" smooth="yes"/>
      <point x="252" y="169"/>
      <point x="224" y="223"/>
      <point x="224" y="353" type="curve" smooth="yes"/>
      <point x="224" y="482"/>
      <point x="252" y="536"/>
      <point x="318" y="536" type="curve" smooth="yes"/>
      <point x="351" y="536"/>
      <point x="379" y="523"/>
      <point x="413" y="493" type="curve"/>
      <point x="474" y="642" type="line"/>
      <point x="442" y="675"/>
      <point x="391" y="698"/>
      <point x="333" y="705" type="curve"/>
      <point x="354" y="681" type="line"/>
      <point x="354" y="820" type="line"/>
      <point x="210" y="820" type="line"/>
      <point x="210" y="681" type="line"/>
      <point x="230" y="702" type="line"/>
      <point x="97" y="674"/>
      <point x="21" y="546"/>
      <point x="21" y="351" type="curve" smooth="yes"/>
      <point x="21" y="148"/>
      <point x="103" y="21"/>
      <point x="249" y="0" type="curve"/>
      <point x="210" y="24" type="line"/>
    </contour>
  </outline>
</glyph>
<glyph name="tenge" format="2">
  <advance width="498"/>
  <unicode hex="20B8"/>
  <outline>
    <contour>
      <point x="150" y="0" type="line"/>
      <point x="348" y="0" type="line"/>
      <point x="348" y="440" type="line"/>
      <point x="486" y="440" type="line"/>
      <point x="486" y="544" type="line"/>
      <point x="12" y="544" type="line"/>
      <point x="12" y="440" type="line"/>
      <point x="150" y="440" type="line"/>
    </contour>
    <contour>
      <point x="12" y="601" type="line"/>
      <point x="486" y="601" type="line"/>
      <point x="486" y="705" type="line"/>
      <point x="12" y="705" type="line"/>
    </contour>
  </outline>
</glyph>
<glyph name="rupeeIndian" format="2">
  <advance width="498"/>
  <unicode hex="20B9"/>
  <outline>
    <contour>
      <point x="273" y="0" type="line"/>
      <point x="495" y="0" type="line"/>
      <point x="382" y="196" type="line" smooth="yes"/>
      <point x="350" y="252"/>
      <point x="314" y="279"/>
      <point x="270" y="279" type="curve" smooth="yes"/>
      <point x="218" y="279" type="line"/>
      <point x="238" y="260" type="line"/>
      <point x="345" y="260"/>
      <point x="412" y="331"/>
      <point x="421" y="451" type="curve"/>
      <point x="392" y="440" type="line"/>
      <point x="471" y="440" type="line"/>
      <point x="471" y="544" type="line"/>
      <point x="389" y="544" type="line"/>
      <point x="418" y="534" type="line"/>
      <point x="413" y="563"/>
      <point x="405" y="588"/>
      <point x="394" y="610" type="curve"/>
      <point x="384" y="601" type="line"/>
      <point x="471" y="601" type="line"/>
      <point x="471" y="705" type="line"/>
      <point x="17" y="705" type="line"/>
      <point x="17" y="601" type="line"/>
      <point x="168" y="601" type="line" smooth="yes"/>
      <point x="201" y="601"/>
      <point x="223" y="578"/>
      <point x="232" y="536" type="curve"/>
      <point x="254" y="544" type="line"/>
      <point x="17" y="544" type="line"/>
      <point x="17" y="440" type="line"/>
      <point x="254" y="440" type="line"/>
      <point x="233" y="455" type="line"/>
      <point x="225" y="410"/>
      <point x="202" y="384"/>
      <point x="168" y="384" type="curve" smooth="yes"/>
      <point x="17" y="384" type="line"/>
      <point x="17" y="258" type="line"/>
      <point x="92" y="258" type="line" smooth="yes"/>
      <point x="120" y="258"/>
      <point x="135" y="249"/>
      <point x="149" y="224" type="curve" smooth="yes"/>
    </contour>
  </outline>
</glyph>
<glyph name="manat" format="2">
  <advance width="498"/>
  <unicode hex="20BC"/>
  <outline>
    <contour>
      <point x="9" y="0" type="line"/>
      <point x="151" y="0" type="line"/>
      <point x="151" y="249" type="line" smooth="yes"/>
      <point x="151" y="380"/>
      <point x="166" y="444"/>
      <point x="199" y="454" type="curve"/>
      <point x="185" y="454" type="line"/>
      <point x="185" y="160" type="line"/>
      <point x="313" y="160" type="line"/>
      <point x="313" y="454" type="line"/>
      <point x="299" y="454" type="line"/>
      <point x="332" y="444"/>
      <point x="347" y="380"/>
      <point x="347" y="249" type="curve" smooth="yes"/>
      <point x="347" y="0" type="line"/>
      <point x="489" y="0" type="line"/>
      <point x="489" y="249" type="line" smooth="yes"/>
      <point x="489" y="468"/>
      <point x="433" y="570"/>
      <point x="299" y="596" type="curve"/>
      <point x="321" y="565" type="line"/>
      <point x="321" y="705" type="line"/>
      <point x="177" y="705" type="line"/>
      <point x="177" y="565" type="line"/>
      <point x="199" y="596" type="line"/>
      <point x="65" y="570"/>
      <point x="9" y="468"/>
      <point x="9" y="249" type="curve" smooth="yes"/>
    </contour>
  </outline>
</glyph>
<glyph name="trademark" format="2">
  <advance width="840"/>
  <unicode hex="2122"/>
  <outline>
    <contour>
      <point x="106" y="284" type="line"/>
      <point x="254" y="284" type="line"/>
      <point x="254" y="573" type="line"/>
      <point x="338" y="573" type="line"/>
      <point x="338" y="705" type="line"/>
      <point x="22" y="705" type="line"/>
      <point x="22" y="573" type="line"/>
      <point x="106" y="573" type="line"/>
    </contour>
    <contour>
      <point x="379" y="284" type="line"/>
      <point x="519" y="284" type="line"/>
      <point x="519" y="520" type="line"/>
      <point x="503" y="520" type="line"/>
      <point x="553" y="364" type="line"/>
      <point x="617" y="364" type="line"/>
      <point x="669" y="520" type="line"/>
      <point x="653" y="520" type="line"/>
      <point x="653" y="284" type="line"/>
      <point x="793" y="284" type="line"/>
      <point x="793" y="705" type="line"/>
      <point x="651" y="705" type="line"/>
      <point x="576" y="482" type="line"/>
      <point x="597" y="482" type="line"/>
      <point x="521" y="705" type="line"/>
      <point x="379" y="705" type="line"/>
    </contour>
  </outline>
</glyph>
<glyph name="Ohm" format="2">
  <advance width="498"/>
  <unicode hex="2126"/>
  <outline>
    <contour>
      <point x="10" y="0" type="line"/>
      <point x="235" y="0" type="line"/>
      <point x="235" y="153" type="line"/>
      <point x="213" y="202"/>
      <point x="199" y="300"/>
      <point x="199" y="404" type="curve" smooth="yes"/>
      <point x="199" y="514"/>
      <point x="214" y="561"/>
      <point x="249" y="561" type="curve" smooth="yes"/>
      <point x="284" y="561"/>
      <point x="299" y="514"/>
      <point x="299" y="404" type="curve" smooth="yes"/>
      <point x="299" y="300"/>
      <point x="285" y="202"/>
      <point x="263" y="153" type="curve"/>
      <point x="263" y="0" type="line"/>
      <point x="488" y="0" type="line"/>
      <point x="488" y="151" type="line"/>
      <point x="346" y="151" type="line"/>
      <point x="346" y="121" type="line"/>
      <point x="432" y="182"/>
      <point x="479" y="292"/>
      <point x="479" y="432" type="curve" smooth="yes"/>
      <point x="479" y="616"/>
      <point x="397" y="717"/>
      <point x="249" y="717" type="curve" smooth="yes"/>
      <point x="101" y="717"/>
      <point x="19" y="616"/>
      <point x="19" y="432" type="curve" smooth="yes"/>
      <point x="19" y="292"/>
      <point x="66" y="182"/>
      <point x="152" y="121" type="curve"/>
      <point x="152" y="151" type="line"/>
      <point x="10" y="151" type="line"/>
    </contour>
  </outline>
</glyph>
<glyph name="partialdiff" format="2">
  <advance width="486"/>
  <unicode hex="2202"/>
  <outline>
    <contour>
      <point x="227" y="-12" type="curve" smooth="yes"/>
      <point x="386" y="-12"/>
      <point x="471" y="105"/>
      <point x="471" y="327" type="curve" smooth="yes"/>
      <point x="471" y="574"/>
      <point x="366" y="717"/>
      <point x="159" y="717" type="curve" smooth="yes"/>
      <point x="129" y="717"/>
      <point x="98" y="714"/>
      <point x="82" y="709" type="curve"/>
      <point x="82" y="570" type="line"/>
      <point x="101" y="570" type="line" smooth="yes"/>
      <point x="232" y="570"/>
      <point x="287" y="512"/>
      <point x="286" y="374" type="curve"/>
      <point x="301" y="374" type="line"/>
      <point x="290" y="435"/>
      <point x="255" y="462"/>
      <point x="192" y="462" type="curve" smooth="yes"/>
      <point x="79" y="462"/>
      <point x="12" y="374"/>
      <point x="12" y="230" type="curve" smooth="yes"/>
      <point x="12" y="76"/>
      <point x="89" y="-12"/>
    </contour>
    <contour>
      <point x="237" y="128" type="curve" smooth="yes"/>
      <point x="214" y="128"/>
      <point x="203" y="163"/>
      <point x="203" y="230" type="curve" smooth="yes"/>
      <point x="203" y="296"/>
      <point x="214" y="328"/>
      <point x="237" y="328" type="curve" smooth="yes"/>
      <point x="260" y="328"/>
      <point x="272" y="296"/>
      <point x="272" y="231" type="curve" smooth="yes"/>
      <point x="272" y="165"/>
      <point x="260" y="128"/>
    </contour>
  </outline>
</glyph>
<glyph name="emptyset" format="2">
  <advance width="498"/>
  <unicode hex="2205"/>
  <outline>
    <contour>
      <point x="71" y="51" type="line"/>
      <point x="133" y="132" type="line"/>
      <point x="168" y="114"/>
      <point x="207" y="104"/>
      <point x="250" y="104" type="curve" smooth="yes"/>
      <point x="391" y="104"/>
      <point x="496" y="213"/>
      <point x="496" y="339" type="curve" smooth="yes"/>
      <point x="496" y="403"/>
      <point x="469" y="463"/>
      <point x="423" y="506" type="curve"/>
      <point x="488" y="590" type="line"/>
      <point x="438" y="624" type="line"/>
      <point x="375" y="542" type="line"/>
      <point x="339" y="562"/>
      <point x="296" y="574"/>
      <point x="250" y="574" type="curve" smooth="yes"/>
      <point x="109" y="574"/>
      <point x="4" y="465"/>
      <point x="4" y="339" type="curve" smooth="yes"/>
      <point x="4" y="272"/>
      <point x="34" y="209"/>
      <point x="83" y="166" type="curve"/>
      <point x="21" y="85" type="line"/>
    </contour>
    <contour>
      <point x="132" y="228" type="line"/>
      <point x="104" y="256"/>
      <point x="88" y="294"/>
      <point x="88" y="339" type="curve" smooth="yes"/>
      <point x="88" y="431"/>
      <point x="158" y="496"/>
      <point x="250" y="496" type="curve" smooth="yes"/>
      <point x="278" y="496"/>
      <point x="304" y="490"/>
      <point x="326" y="479" type="curve"/>
    </contour>
    <contour>
      <point x="250" y="182" type="curve" smooth="yes"/>
      <point x="226" y="182"/>
      <point x="203" y="187"/>
      <point x="182" y="195" type="curve"/>
      <point x="374" y="443" type="line"/>
      <point x="398" y="416"/>
      <point x="412" y="380"/>
      <point x="412" y="339" type="curve" smooth="yes"/>
      <point x="412" y="247"/>
      <point x="342" y="182"/>
    </contour>
  </outline>
</glyph>
<glyph name="bulletoperator" format="2">
  <advance width="498"/>
  <unicode hex="2219"/>
  <outline>
    <contour>
      <point x="155" y="173" type="line"/>
      <point x="344" y="173" type="line"/>
      <point x="344" y="366" type="line"/>
      <point x="155" y="366" type="line"/>
    </contour>
  </outline>
</glyph>
<glyph name="radical" format="2">
  <advance width="498"/>
  <unicode hex="221A"/>
  <outline>
    <contour>
      <point x="153" y="-180" type="line"/>
      <point x="348" y="-180" type="line"/>
      <point x="496" y="758" type="line"/>
      <point x="345" y="758" type="line"/>
      <point x="239" y="-40" type="line"/>
      <point x="252" y="-40" type="line"/>
      <point x="199" y="351" type="line"/>
      <point x="8" y="351" type="line"/>
      <point x="8" y="213" type="line"/>
      <point x="152" y="213" type="line"/>
      <point x="65" y="278" type="line"/>
    </contour>
  </outline>
</glyph>
<glyph name="infinity" format="2">
  <advance width="498"/>
  <unicode hex="221E"/>
  <outline>
    <contour>
      <point x="144" y="95" type="curve" smooth="yes"/>
      <point x="191" y="95"/>
      <point x="225" y="118"/>
      <point x="249" y="167" type="curve"/>
      <point x="273" y="118"/>
      <point x="307" y="95"/>
      <point x="354" y="95" type="curve" smooth="yes"/>
      <point x="436" y="95"/>
      <point x="486" y="167"/>
      <point x="486" y="284" type="curve" smooth="yes"/>
      <point x="486" y="400"/>
      <point x="435" y="473"/>
      <point x="354" y="473" type="curve" smooth="yes"/>
      <point x="307" y="473"/>
      <point x="273" y="450"/>
      <point x="249" y="401" type="curve"/>
      <point x="225" y="450"/>
      <point x="191" y="473"/>
      <point x="144" y="473" type="curve" smooth="yes"/>
      <point x="63" y="473"/>
      <point x="12" y="400"/>
      <point x="12" y="284" type="curve" smooth="yes"/>
      <point x="12" y="167"/>
      <point x="62" y="95"/>
    </contour>
    <contour>
      <point x="163" y="201" type="curve" smooth="yes"/>
      <point x="135" y="201"/>
      <point x="118" y="232"/>
      <point x="118" y="284" type="curve" smooth="yes"/>
      <point x="118" y="336"/>
      <point x="135" y="367"/>
      <point x="163" y="367" type="curve" smooth="yes"/>
      <point x="190" y="367"/>
      <point x="209" y="335"/>
      <point x="213" y="285" type="curve" smooth="yes"/>
      <point x="209" y="233"/>
      <point x="190" y="201"/>
    </contour>
    <contour>
      <point x="335" y="201" type="curve" smooth="yes"/>
      <point x="308" y="201"/>
      <point x="289" y="233"/>
      <point x="285" y="285" type="curve"/>
      <point x="289" y="335"/>
      <point x="308" y="367"/>
      <point x="335" y="367" type="curve" smooth="yes"/>
      <point x="363" y="367"/>
      <point x="380" y="336"/>
      <point x="380" y="284" type="curve" smooth="yes"/>
      <point x="380" y="232"/>
      <point x="363" y="201"/>
    </contour>
  </outline>
</glyph>
<glyph name="integral" format="2">
  <advance width="498"/>
  <unicode hex="222B"/>
  <outline>
    <contour>
      <point x="48" y="-192" type="line"/>
      <point x="134" y="-192" type="line" smooth="yes"/>
      <point x="278" y="-192"/>
      <point x="344" y="-126"/>
      <point x="344" y="17" type="curve" smooth="yes"/>
      <point x="344" y="504" type="line" smooth="yes"/>
      <point x="344" y="547"/>
      <point x="363" y="570"/>
      <point x="398" y="570" type="curve" smooth="yes"/>
      <point x="450" y="570" type="line"/>
      <point x="450" y="717" type="line"/>
      <point x="364" y="717" type="line" smooth="yes"/>
      <point x="220" y="717"/>
      <point x="154" y="651"/>
      <point x="154" y="508" type="curve" smooth="yes"/>
      <point x="154" y="21" type="line" smooth="yes"/>
      <point x="154" y="-22"/>
      <point x="135" y="-45"/>
      <point x="100" y="-45" type="curve" smooth="yes"/>
      <point x="48" y="-45" type="line"/>
    </contour>
  </outline>
</glyph>
<glyph name="lessequal" format="2">
  <advance width="498"/>
  <unicode hex="2264"/>
  <outline>
    <contour>
      <point x="466" y="149" type="line"/>
      <point x="466" y="287" type="line"/>
      <point x="73" y="387" type="line"/>
      <point x="73" y="307" type="line"/>
      <point x="466" y="407" type="line"/>
      <point x="466" y="545" type="line"/>
      <point x="32" y="413" type="line"/>
      <point x="32" y="281" type="line"/>
    </contour>
    <contour>
      <point x="32" y="0" type="line"/>
      <point x="466" y="0" type="line"/>
      <point x="466" y="124" type="line"/>
      <point x="32" y="124" type="line"/>
    </contour>
  </outline>
</glyph>
<glyph name="greaterequal" format="2">
  <advance width="498"/>
  <unicode hex="2265"/>
  <outline>
    <contour>
      <point x="32" y="149" type="line"/>
      <point x="466" y="281" type="line"/>
      <point x="466" y="413" type="line"/>
      <point x="32" y="545" type="line"/>
      <point x="32" y="407" type="line"/>
      <point x="425" y="307" type="line"/>
      <point x="425" y="387" type="line"/>
      <point x="32" y="287" type="line"/>
    </contour>
    <contour>
      <point x="32" y="0" type="line"/>
      <point x="466" y="0" type="line"/>
      <point x="466" y="124" type="line"/>
      <point x="32" y="124" type="line"/>
    </contour>
  </outline>
</glyph>
<glyph name="lozenge" format="2">
  <advance width="498"/>
  <unicode hex="25CA"/>
  <outline>
    <contour>
      <point x="172" y="-200" type="line"/>
      <point x="326" y="-200" type="line"/>
      <point x="484" y="279" type="line"/>
      <point x="326" y="758" type="line"/>
      <point x="172" y="758" type="line"/>
      <point x="14" y="279" type="line"/>
    </contour>
    <contour>
      <point x="249" y="-46" type="line"/>
      <point x="151" y="279" type="line"/>
      <point x="249" y="604" type="line"/>
      <point x="347" y="279" type="line"/>
    </contour>
  </outline>
</glyph>
<glyph name="leftanglebracket-math" format="2">
  <advance width="498"/>
  <unicode hex="27E8"/>
  <outline>
    <contour>
      <point x="266" y="-32" type="line"/>
      <point x="331" y="-13" type="line"/>
      <point x="236" y="348" type="line"/>
      <point x="331" y="708" type="line"/>
      <point x="266" y="727" type="line"/>
      <point x="165" y="355" type="line"/>
      <point x="165" y="339" type="line"/>
    </contour>
  </outline>
</glyph>
<glyph name="fi" format="2">
  <advance width="608"/>
  <unicode hex="FB01"/>
  <anchor x="132.732" y="0" name="bottom"/>
  <anchor x="325" y="0" name="caret_1"/>
  <anchor x="492.394" y="0" name="ogonek"/>
  <anchor x="227.786" y="705" name="top"/>
  <outline>
    <contour>
      <point x="76" y="0" type="line"/>
      <point x="266" y="0" type="line"/>
      <point x="266" y="356" type="line"/>
      <point x="384" y="356" type="line"/>
      <point x="384" y="0" type="line"/>
      <point x="574" y="0" type="line"/>
      <point x="574" y="494" type="line"/>
      <point x="216" y="494" type="line"/>
      <point x="266" y="444" type="line"/>
      <point x="266" y="517" type="line" smooth="yes"/>
      <point x="266" y="561"/>
      <point x="288" y="570"/>
      <point x="340" y="574" type="curve" smooth="yes"/>
      <point x="364" y="576" type="line"/>
      <point x="355" y="711" type="line"/>
      <point x="310" y="709" type="line" smooth="yes"/>
      <point x="148" y="702"/>
      <point x="76" y="628"/>
      <point x="76" y="480" type="curve" smooth="yes"/>
      <point x="76" y="444" type="line"/>
      <point x="126" y="494" type="line"/>
      <point x="3" y="494" type="line"/>
      <point x="3" y="356" type="line"/>
      <point x="76" y="356" type="line"/>
    </contour>
    <contour>
      <point x="383" y="573" type="line"/>
      <point x="576" y="573" type="line"/>
      <point x="576" y="743" type="line"/>
      <point x="383" y="743" type="line"/>
    </contour>
  </outline>
</glyph>
<glyph name="__bar.Obarred-cy" format="2">
  <advance width="668"/>
  <anchor x="334" y="353" name="_center"/>
  <outline>
    <contour>
      <point x="142" y="287" type="line"/>
      <point x="526" y="287" type="line"/>
      <point x="526" y="429" type="line"/>
      <point x="142" y="429" type="line"/>
    </contour>
  </outline>
</glyph>
<glyph name="__tail-cy" format="2">
  <advance width="41"/>
  <anchor x="4" y="0" name="_bottomright"/>
  <outline>
    <contour>
      <point x="28" y="-130" type="line"/>
      <point x="183" y="-130" type="line"/>
      <point x="263" y="140" type="line"/>
      <point x="4" y="140" type="line"/>
      <point x="4" y="0" type="line"/>
      <point x="60" y="0" type="line"/>
    </contour>
  </outline>
</glyph>
<glyph name="_part.Qtail" format="2">
  <advance width="668"/>
  <anchor x="335" y="-10" name="_Qtail"/>
  <outline>
    <contour>
      <point x="488" y="-234" type="line"/>
      <point x="654" y="-154" type="line"/>
      <point x="585" y="-23" type="line" smooth="yes"/>
      <point x="565" y="15"/>
      <point x="535" y="44"/>
      <point x="478" y="44" type="curve"/>
      <point x="335" y="-10" type="line"/>
      <point x="356" y="-10"/>
      <point x="368" y="-16"/>
      <point x="379" y="-36" type="curve" smooth="yes"/>
    </contour>
  </outline>
</glyph>
<glyph name="acutecomb_dotaccentcomb.case" format="2">
  <anchor x="0" y="705" name="_top"/>
  <outline>
    <contour>
      <point x="-149" y="906" type="line"/>
      <point x="0" y="906" type="line"/>
      <point x="0" y="1021" type="line"/>
      <point x="-149" y="1021" type="line"/>
    </contour>
    <contour>
      <point x="-59" y="764" type="line"/>
      <point x="60" y="764" type="line"/>
      <point x="205" y="939" type="line"/>
      <point x="32" y="939" type="line"/>
    </contour>
  </outline>
</glyph>
<glyph name="acutecomb_dotaccentcomb" format="2">
  <anchor x="0" y="484" name="_top"/>
  <outline>
    <contour>
      <point x="-58" y="554" type="line"/>
      <point x="61" y="554" type="line"/>
      <point x="206" y="757" type="line"/>
      <point x="32" y="757" type="line"/>
    </contour>
    <contour>
      <point x="-148" y="727" type="line"/>
      <point x="0" y="727" type="line"/>
      <point x="0" y="839" type="line"/>
      <point x="-148" y="839" type="line"/>
    </contour>
  </outline>
</glyph>
<glyph name="brevecomb.case" format="2">
  <anchor x="0" y="705" name="_top"/>
  <anchor x="0" y="865" name="top"/>
  <outline>
    <contour>
      <point x="0" y="760" type="curve" smooth="yes"/>
      <point x="107" y="760"/>
      <point x="171" y="819"/>
      <point x="174" y="921" type="curve"/>
      <point x="75" y="929" type="line"/>
      <point x="72" y="890"/>
      <point x="44" y="868"/>
      <point x="0" y="868" type="curve" smooth="yes"/>
      <point x="-44" y="868"/>
      <point x="-72" y="890"/>
      <point x="-75" y="929" type="curve"/>
      <point x="-174" y="921" type="line"/>
      <point x="-171" y="819"/>
      <point x="-107" y="760"/>
    </contour>
  </outline>
</glyph>
<glyph name="brevecomb_gravecomb.case" format="2">
  <anchor x="0" y="705" name="_top"/>
  <outline>
    <contour>
      <point x="0" y="760" type="curve" smooth="yes"/>
      <point x="104" y="760"/>
      <point x="163" y="813"/>
      <point x="167" y="903" type="curve"/>
      <point x="86" y="911" type="line"/>
      <point x="81" y="876"/>
      <point x="51" y="856"/>
      <point x="0" y="856" type="curve" smooth="yes"/>
      <point x="-51" y="856"/>
      <point x="-81" y="876"/>
      <point x="-86" y="911" type="curve"/>
      <point x="-167" y="903" type="line"/>
      <point x="-163" y="813"/>
      <point x="-104" y="760"/>
    </contour>
    <contour>
      <point x="-42" y="902" type="line"/>
      <point x="57" y="902" type="line"/>
      <point x="24" y="1027" type="line"/>
      <point x="-133" y="1027" type="line"/>
    </contour>
  </outline>
</glyph>
<glyph name="brevecomb_tildecomb.case" format="2">
  <anchor x="0" y="705" name="_top"/>
  <outline>
    <contour>
      <point x="0" y="760" type="curve" smooth="yes"/>
      <point x="94" y="760"/>
      <point x="154" y="806"/>
      <point x="167" y="887" type="curve"/>
      <point x="89" y="905" type="line"/>
      <point x="75" y="874"/>
      <point x="44" y="858"/>
      <point x="0" y="858" type="curve" smooth="yes"/>
      <point x="-44" y="858"/>
      <point x="-75" y="874"/>
      <point x="-89" y="905" type="curve"/>
      <point x="-167" y="887" type="line"/>
      <point x="-154" y="806"/>
      <point x="-94" y="760"/>
    </contour>
    <contour>
      <point x="-93" y="922" type="line"/>
      <point x="-90" y="943"/>
      <point x="-74" y="956"/>
      <point x="-53" y="956" type="curve" smooth="yes"/>
      <point x="-39" y="956"/>
      <point x="-26" y="949"/>
      <point x="-12" y="942" type="curve" smooth="yes"/>
      <point x="6" y="933"/>
      <point x="27" y="922"/>
      <point x="57" y="922" type="curve" smooth="yes"/>
      <point x="121" y="922"/>
      <point x="165" y="966"/>
      <point x="168" y="1036" type="curve"/>
      <point x="94" y="1041" type="line"/>
      <point x="90" y="1020"/>
      <point x="74" y="1005"/>
      <point x="54" y="1005" type="curve" smooth="yes"/>
      <point x="39" y="1005"/>
      <point x="27" y="1012"/>
      <point x="12" y="1019" type="curve" smooth="yes"/>
      <point x="-7" y="1028"/>
      <point x="-26" y="1040"/>
      <point x="-56" y="1040" type="curve" smooth="yes"/>
      <point x="-120" y="1040"/>
      <point x="-164" y="994"/>
      <point x="-167" y="927" type="curve"/>
    </contour>
  </outline>
</glyph>
<glyph name="caroncomb_dotaccentcomb.case" format="2">
  <anchor x="0" y="705" name="_top"/>
  <outline>
    <contour>
      <point x="-76" y="769" type="line"/>
      <point x="76" y="769" type="line"/>
      <point x="164" y="926" type="line"/>
      <point x="52" y="926" type="line"/>
      <point x="0" y="853" type="line"/>
      <point x="-52" y="926" type="line"/>
      <point x="-164" y="926" type="line"/>
    </contour>
    <contour>
      <point x="-74" y="957" type="line"/>
      <point x="74" y="957" type="line"/>
      <point x="74" y="1069" type="line"/>
      <point x="-74" y="1069" type="line"/>
    </contour>
  </outline>
</glyph>
<glyph name="circumflexcomb_acutecomb" format="2">
  <anchor x="0" y="484" name="_top"/>
  <outline>
    <contour>
      <point x="-160" y="558" type="line"/>
      <point x="-48" y="558" type="line"/>
      <point x="4" y="625" type="line"/>
      <point x="56" y="558" type="line"/>
      <point x="168" y="558" type="line"/>
      <point x="80" y="709" type="line"/>
      <point x="-72" y="709" type="line"/>
    </contour>
    <contour>
      <point x="123" y="671" type="line"/>
      <point x="222" y="671" type="line"/>
      <point x="317" y="820" type="line"/>
      <point x="190" y="820" type="line"/>
    </contour>
  </outline>
</glyph>
<glyph name="circumflexcomb_hookabovecomb" format="2">
  <anchor x="0" y="484" name="_top"/>
  <outline>
    <contour>
      <point x="-160" y="558" type="line"/>
      <point x="-48" y="558" type="line"/>
      <point x="4" y="625" type="line"/>
      <point x="56" y="558" type="line"/>
      <point x="168" y="558" type="line"/>
      <point x="80" y="709" type="line"/>
      <point x="-72" y="709" type="line"/>
    </contour>
    <contour>
      <point x="113" y="671" type="curve"/>
      <point x="201" y="671" type="line"/>
      <point x="204" y="709"/>
      <point x="249" y="727"/>
      <point x="249" y="768" type="curve" smooth="yes"/>
      <point x="249" y="803"/>
      <point x="218" y="824"/>
      <point x="160" y="824" type="curve" smooth="yes"/>
      <point x="125" y="824"/>
      <point x="88" y="816"/>
      <point x="63" y="802" type="curve"/>
      <point x="82" y="741" type="line"/>
      <point x="91" y="747"/>
      <point x="106" y="752"/>
      <point x="117" y="752" type="curve" smooth="yes"/>
      <point x="128" y="752"/>
      <point x="134" y="747"/>
      <point x="134" y="738" type="curve" smooth="yes"/>
      <point x="134" y="720"/>
      <point x="113" y="700"/>
    </contour>
  </outline>
</glyph>
<glyph name="commaaccentcomb.alt" format="2">
  <anchor x="0" y="0" name="_bottom"/>
  <anchor x="0" y="-170" name="bottom"/>
  <outline>
    <contour>
      <point x="22" y="-301" type="line"/>
      <point x="67" y="-259"/>
      <point x="80" y="-211"/>
      <point x="80" y="-148" type="curve" smooth="yes"/>
      <point x="80" y="-65" type="line"/>
      <point x="-82" y="-65" type="line"/>
      <point x="-82" y="-196" type="line"/>
      <point x="28" y="-196" type="line"/>
      <point x="-7" y="-181" type="line"/>
      <point x="-7" y="-209"/>
      <point x="-16" y="-235"/>
      <point x="-38" y="-259" type="curve"/>
    </contour>
  </outline>
</glyph>
<glyph name="commaturnedabovecomb.case" format="2">
  <anchor x="0" y="705" name="_top"/>
  <anchor x="0" y="865" name="top"/>
  <outline>
    <contour>
      <point x="-81" y="765" type="line"/>
      <point x="81" y="765" type="line"/>
      <point x="81" y="896" type="line"/>
      <point x="-29" y="896" type="line"/>
      <point x="6" y="881" type="line"/>
      <point x="6" y="909"/>
      <point x="15" y="935"/>
      <point x="37" y="959" type="curve"/>
      <point x="-23" y="1001" type="line"/>
      <point x="-68" y="959"/>
      <point x="-81" y="911"/>
      <point x="-81" y="848" type="curve" smooth="yes"/>
    </contour>
  </outline>
</glyph>
<glyph name="dieresiscomb_acutecomb.case" format="2">
  <anchor x="0" y="705" name="_top"/>
  <outline>
    <contour>
      <point x="-54" y="906" type="line"/>
      <point x="55" y="906" type="line"/>
      <point x="166" y="1031" type="line"/>
      <point x="-1" y="1031" type="line"/>
    </contour>
    <contour>
      <point x="-165" y="769" type="line"/>
      <point x="-17" y="769" type="line"/>
      <point x="-17" y="881" type="line"/>
      <point x="-165" y="881" type="line"/>
    </contour>
    <contour>
      <point x="17" y="769" type="line"/>
      <point x="165" y="769" type="line"/>
      <point x="165" y="881" type="line"/>
      <point x="17" y="881" type="line"/>
    </contour>
  </outline>
</glyph>
<glyph name="dieresiscomb_macroncomb" format="2">
  <anchor x="0" y="484" name="_top"/>
  <outline>
    <contour>
      <point x="-145" y="712" type="line"/>
      <point x="145" y="712" type="line"/>
      <point x="145" y="812" type="line"/>
      <point x="-145" y="812" type="line"/>
    </contour>
    <contour>
      <point x="-165" y="558" type="line"/>
      <point x="-17" y="558" type="line"/>
      <point x="-17" y="670" type="line"/>
      <point x="-165" y="670" type="line"/>
    </contour>
    <contour>
      <point x="17" y="558" type="line"/>
      <point x="165" y="558" type="line"/>
      <point x="165" y="670" type="line"/>
      <point x="17" y="670" type="line"/>
    </contour>
  </outline>
</glyph>
<glyph name="dotaccentcomb_macroncomb.case" format="2">
  <anchor x="0" y="705" name="_top"/>
  <outline>
    <contour>
      <point x="-145" y="923" type="line"/>
      <point x="145" y="923" type="line"/>
      <point x="145" y="1023" type="line"/>
      <point x="-145" y="1023" type="line"/>
    </contour>
    <contour>
      <point x="-74" y="769" type="line"/>
      <point x="74" y="769" type="line"/>
      <point x="74" y="881" type="line"/>
      <point x="-74" y="881" type="line"/>
    </contour>
  </outline>
</glyph>
<glyph name="eight.dnom" format="2">
  <advance width="320"/>
  <outline>
    <contour>
      <point x="159" y="-6" type="curve" smooth="yes"/>
      <point x="255" y="-6"/>
      <point x="311" y="39"/>
      <point x="311" y="116" type="curve" smooth="yes"/>
      <point x="311" y="184"/>
      <point x="268" y="230"/>
      <point x="212" y="223" type="curve"/>
      <point x="212" y="213" type="line"/>
      <point x="265" y="212"/>
      <point x="301" y="252"/>
      <point x="301" y="310" type="curve" smooth="yes"/>
      <point x="301" y="382"/>
      <point x="247" y="427"/>
      <point x="159" y="427" type="curve" smooth="yes"/>
      <point x="71" y="427"/>
      <point x="17" y="382"/>
      <point x="17" y="310" type="curve" smooth="yes"/>
      <point x="17" y="252"/>
      <point x="53" y="212"/>
      <point x="106" y="213" type="curve"/>
      <point x="106" y="223" type="line"/>
      <point x="49" y="230"/>
      <point x="7" y="184"/>
      <point x="7" y="116" type="curve" smooth="yes"/>
      <point x="7" y="39"/>
      <point x="63" y="-6"/>
    </contour>
    <contour>
      <point x="159" y="89" type="curve" smooth="yes"/>
      <point x="139" y="89"/>
      <point x="127" y="103"/>
      <point x="127" y="127" type="curve" smooth="yes"/>
      <point x="127" y="151"/>
      <point x="138" y="165"/>
      <point x="159" y="165" type="curve" smooth="yes"/>
      <point x="180" y="165"/>
      <point x="191" y="151"/>
      <point x="191" y="127" type="curve" smooth="yes"/>
      <point x="191" y="103"/>
      <point x="179" y="89"/>
    </contour>
    <contour>
      <point x="159" y="258" type="curve" smooth="yes"/>
      <point x="143" y="258"/>
      <point x="135" y="270"/>
      <point x="135" y="295" type="curve" smooth="yes"/>
      <point x="135" y="321"/>
      <point x="142" y="332"/>
      <point x="159" y="332" type="curve" smooth="yes"/>
      <point x="176" y="332"/>
      <point x="183" y="321"/>
      <point x="183" y="295" type="curve" smooth="yes"/>
      <point x="183" y="270"/>
      <point x="175" y="258"/>
    </contour>
  </outline>
</glyph>
<glyph name="eight.tosf" format="2">
  <advance width="498"/>
  <outline>
    <contour>
      <point x="249" y="-12" type="curve" smooth="yes"/>
      <point x="394" y="-12"/>
      <point x="479" y="63"/>
      <point x="479" y="192" type="curve" smooth="yes"/>
      <point x="479" y="284"/>
      <point x="435" y="363"/>
      <point x="353" y="377" type="curve"/>
      <point x="353" y="346" type="line"/>
      <point x="421" y="363"/>
      <point x="463" y="439"/>
      <point x="463" y="521" type="curve" smooth="yes"/>
      <point x="463" y="642"/>
      <point x="383" y="717"/>
      <point x="249" y="717" type="curve" smooth="yes"/>
      <point x="115" y="717"/>
      <point x="35" y="642"/>
      <point x="35" y="521" type="curve" smooth="yes"/>
      <point x="35" y="439"/>
      <point x="77" y="363"/>
      <point x="145" y="346" type="curve"/>
      <point x="145" y="377" type="line"/>
      <point x="63" y="363"/>
      <point x="19" y="284"/>
      <point x="19" y="192" type="curve" smooth="yes"/>
      <point x="19" y="63"/>
      <point x="104" y="-12"/>
    </contour>
    <contour>
      <point x="249" y="132" type="curve" smooth="yes"/>
      <point x="211" y="132"/>
      <point x="191" y="158"/>
      <point x="191" y="209" type="curve" smooth="yes"/>
      <point x="191" y="259"/>
      <point x="211" y="285"/>
      <point x="249" y="285" type="curve" smooth="yes"/>
      <point x="287" y="285"/>
      <point x="307" y="259"/>
      <point x="307" y="209" type="curve" smooth="yes"/>
      <point x="307" y="158"/>
      <point x="287" y="132"/>
    </contour>
    <contour>
      <point x="249" y="427" type="curve" smooth="yes"/>
      <point x="222" y="427"/>
      <point x="208" y="451"/>
      <point x="208" y="500" type="curve" smooth="yes"/>
      <point x="208" y="548"/>
      <point x="222" y="573"/>
      <point x="249" y="573" type="curve" smooth="yes"/>
      <point x="276" y="573"/>
      <point x="290" y="548"/>
      <point x="290" y="500" type="curve" smooth="yes"/>
      <point x="290" y="451"/>
      <point x="276" y="427"/>
    </contour>
  </outline>
</glyph>
<glyph name="five.dnom" format="2">
  <advance width="320"/>
  <outline>
    <contour>
      <point x="136" y="-6" type="curve" smooth="yes"/>
      <point x="243" y="-6"/>
      <point x="308" y="52"/>
      <point x="308" y="151" type="curve" smooth="yes"/>
      <point x="308" y="228"/>
      <point x="268" y="274"/>
      <point x="197" y="274" type="curve" smooth="yes"/>
      <point x="168" y="274"/>
      <point x="147" y="266"/>
      <point x="131" y="249" type="curve"/>
      <point x="148" y="249" type="line"/>
      <point x="148" y="315" type="line"/>
      <point x="284" y="315" type="line"/>
      <point x="284" y="423" type="line"/>
      <point x="26" y="423" type="line"/>
      <point x="26" y="166" type="line"/>
      <point x="95" y="166" type="line"/>
      <point x="108" y="175"/>
      <point x="120" y="179"/>
      <point x="132" y="179" type="curve" smooth="yes"/>
      <point x="155" y="179"/>
      <point x="168" y="165"/>
      <point x="168" y="142" type="curve" smooth="yes"/>
      <point x="168" y="117"/>
      <point x="153" y="104"/>
      <point x="125" y="104" type="curve" smooth="yes"/>
      <point x="101" y="104"/>
      <point x="75" y="114"/>
      <point x="46" y="131" type="curve"/>
      <point x="7" y="32" type="line"/>
      <point x="37" y="8"/>
      <point x="83" y="-6"/>
    </contour>
  </outline>
</glyph>
<glyph name="five.tosf" format="2">
  <advance width="498"/>
  <outline>
    <contour>
      <point x="234" y="-192" type="curve" smooth="yes"/>
      <point x="385" y="-192"/>
      <point x="471" y="-100"/>
      <point x="471" y="54" type="curve" smooth="yes"/>
      <point x="471" y="181"/>
      <point x="413" y="254"/>
      <point x="313" y="254" type="curve" smooth="yes"/>
      <point x="265" y="254"/>
      <point x="231" y="236"/>
      <point x="205" y="199" type="curve"/>
      <point x="231" y="199" type="line"/>
      <point x="231" y="346" type="line"/>
      <point x="442" y="346" type="line"/>
      <point x="442" y="494" type="line"/>
      <point x="59" y="494" type="line"/>
      <point x="59" y="74" type="line"/>
      <point x="178" y="74" type="line"/>
      <point x="198" y="101"/>
      <point x="215" y="112"/>
      <point x="238" y="112" type="curve" smooth="yes"/>
      <point x="270" y="112"/>
      <point x="285" y="90"/>
      <point x="285" y="40" type="curve" smooth="yes"/>
      <point x="285" y="-20"/>
      <point x="262" y="-50"/>
      <point x="219" y="-50" type="curve" smooth="yes"/>
      <point x="182" y="-50"/>
      <point x="132" y="-28"/>
      <point x="87" y="5" type="curve"/>
      <point x="38" y="-128" type="line"/>
      <point x="86" y="-169"/>
      <point x="159" y="-192"/>
    </contour>
  </outline>
</glyph>
<glyph name="four.tosf" format="2">
  <advance width="498"/>
  <outline>
    <contour>
      <point x="244" y="-180" type="line"/>
      <point x="420" y="-180" type="line"/>
      <point x="420" y="0" type="line"/>
      <point x="477" y="0" type="line"/>
      <point x="477" y="138" type="line"/>
      <point x="420" y="138" type="line"/>
      <point x="420" y="493" type="line"/>
      <point x="277" y="493" type="line"/>
      <point x="20" y="118" type="line"/>
      <point x="20" y="0" type="line"/>
      <point x="244" y="0" type="line"/>
    </contour>
    <contour>
      <point x="244" y="138" type="line"/>
      <point x="152" y="138" type="line"/>
      <point x="152" y="118" type="line"/>
      <point x="262" y="282" type="line"/>
      <point x="244" y="282" type="line"/>
    </contour>
  </outline>
</glyph>
<glyph name="hookabovecomb.case" format="2">
  <anchor x="0" y="705" name="_top"/>
  <anchor x="0" y="865" name="top"/>
  <outline>
    <contour>
      <point x="-52" y="765" type="line"/>
      <point x="53" y="765" type="line"/>
      <point x="53" y="782" type="line" smooth="yes"/>
      <point x="53" y="817"/>
      <point x="115" y="825"/>
      <point x="115" y="881" type="curve" smooth="yes"/>
      <point x="115" y="927"/>
      <point x="75" y="952"/>
      <point x="2" y="952" type="curve" smooth="yes"/>
      <point x="-41" y="952"/>
      <point x="-81" y="943"/>
      <point x="-109" y="927" type="curve"/>
      <point x="-84" y="856" type="line"/>
      <point x="-69" y="864"/>
      <point x="-54" y="868"/>
      <point x="-41" y="868" type="curve" smooth="yes"/>
      <point x="-26" y="868"/>
      <point x="-19" y="863"/>
      <point x="-19" y="853" type="curve" smooth="yes"/>
      <point x="-19" y="830"/>
      <point x="-52" y="817"/>
      <point x="-52" y="783" type="curve" smooth="yes"/>
    </contour>
  </outline>
</glyph>
<glyph name="horncomb.O.case" format="2">
  <anchor x="0" y="705" name="_topright"/>
  <outline>
    <contour>
      <point x="24" y="619" type="line"/>
      <point x="137" y="619" type="line" smooth="yes"/>
      <point x="199" y="619"/>
      <point x="252" y="693"/>
      <point x="252" y="778" type="curve" smooth="yes"/>
      <point x="252" y="828" type="line"/>
      <point x="90" y="828" type="line"/>
      <point x="90" y="789" type="line" smooth="yes"/>
      <point x="90" y="736"/>
      <point x="73" y="705"/>
      <point x="35" y="705" type="curve" smooth="yes"/>
      <point x="28" y="705"/>
      <point x="16" y="706"/>
      <point x="0" y="709" type="curve"/>
    </contour>
  </outline>
</glyph>
<glyph name="horncomb.case" format="2">
  <anchor x="0" y="705" name="_topright"/>
  <outline>
    <contour>
      <point x="117" y="619" type="line"/>
      <point x="173" y="631"/>
      <point x="213" y="697"/>
      <point x="213" y="777" type="curve" smooth="yes"/>
      <point x="213" y="827" type="line"/>
      <point x="55" y="827" type="line"/>
      <point x="55" y="799" type="line" smooth="yes"/>
      <point x="55" y="731"/>
      <point x="40" y="705"/>
      <point x="0" y="705" type="curve"/>
      <point x="0" y="691" type="line"/>
    </contour>
  </outline>
</glyph>
<glyph name="macroncomb_dieresiscomb.case" format="2">
  <anchor x="0" y="705" name="_top"/>
  <outline>
    <contour>
      <point x="-145" y="769" type="line"/>
      <point x="145" y="769" type="line"/>
      <point x="145" y="869" type="line"/>
      <point x="-145" y="869" type="line"/>
    </contour>
    <contour>
      <point x="-165" y="911" type="line"/>
      <point x="-17" y="911" type="line"/>
      <point x="-17" y="1023" type="line"/>
      <point x="-165" y="1023" type="line"/>
    </contour>
    <contour>
      <point x="17" y="911" type="line"/>
      <point x="165" y="911" type="line"/>
      <point x="165" y="1023" type="line"/>
      <point x="17" y="1023" type="line"/>
    </contour>
  </outline>
</glyph>
<glyph name="one.dnom" format="2">
  <advance width="320"/>
  <outline>
    <contour>
      <point x="27" y="0" type="line"/>
      <point x="326" y="0" type="line"/>
      <point x="326" y="120" type="line"/>
      <point x="253" y="120" type="line"/>
      <point x="253" y="423" type="line"/>
      <point x="140" y="423" type="line"/>
      <point x="2" y="352" type="line"/>
      <point x="52" y="244" type="line"/>
      <point x="160" y="298" type="line"/>
      <point x="105" y="298" type="line"/>
      <point x="105" y="120" type="line"/>
      <point x="27" y="120" type="line"/>
    </contour>
  </outline>
</glyph>
<glyph name="one.ss01" format="2">
  <advance width="498"/>
  <outline>
    <contour>
      <point x="209" y="0" type="line"/>
      <point x="406" y="0" type="line"/>
      <point x="406" y="705" type="line"/>
      <point x="254" y="705" type="line"/>
      <point x="23" y="577" type="line"/>
      <point x="96" y="440" type="line"/>
      <point x="283" y="543" type="line"/>
      <point x="209" y="543" type="line"/>
    </contour>
  </outline>
</glyph>
<glyph name="one.tosf.ss01" format="2">
  <advance width="498"/>
  <outline>
    <contour>
      <point x="208" y="0" type="line"/>
      <point x="398" y="0" type="line"/>
      <point x="398" y="494" type="line"/>
      <point x="260" y="494" type="line"/>
      <point x="37" y="371" type="line"/>
      <point x="105" y="234" type="line"/>
      <point x="288" y="335" type="line"/>
      <point x="208" y="335" type="line"/>
    </contour>
  </outline>
</glyph>
<glyph name="periodcentered.loclCAT" format="2">
  <advance width="200"/>
  <anchor x="100" y="350" name="_dot"/>
  <outline>
    <contour>
      <point x="6" y="267" type="line"/>
      <point x="194" y="267" type="line"/>
      <point x="194" y="434" type="line"/>
      <point x="6" y="434" type="line"/>
    </contour>
  </outline>
</glyph>
<glyph name="ringcomb.case" format="2">
  <anchor x="0" y="705" name="_top"/>
  <anchor x="0" y="865" name="top"/>
  <outline>
    <contour>
      <point x="0" y="750" type="curve" smooth="yes"/>
      <point x="70" y="750"/>
      <point x="126" y="803"/>
      <point x="126" y="873" type="curve" smooth="yes"/>
      <point x="126" y="943"/>
      <point x="70" y="996"/>
      <point x="0" y="996" type="curve" smooth="yes"/>
      <point x="-71" y="996"/>
      <point x="-126" y="944"/>
      <point x="-126" y="873" type="curve" smooth="yes"/>
      <point x="-126" y="803"/>
      <point x="-70" y="750"/>
    </contour>
    <contour>
      <point x="0" y="814" type="curve" smooth="yes"/>
      <point x="-31" y="814"/>
      <point x="-54" y="838"/>
      <point x="-54" y="873" type="curve" smooth="yes"/>
      <point x="-54" y="908"/>
      <point x="-31" y="932"/>
      <point x="0" y="932" type="curve" smooth="yes"/>
      <point x="31" y="932"/>
      <point x="54" y="908"/>
      <point x="54" y="873" type="curve" smooth="yes"/>
      <point x="54" y="838"/>
      <point x="31" y="814"/>
    </contour>
  </outline>
</glyph>
<glyph name="ringhalfleft.case" format="2">
  <advance width="500"/>
  <anchor x="250" y="705" name="_top"/>
  <anchor x="250" y="865" name="top"/>
  <outline>
    <contour>
      <point x="248" y="763" type="curve"/>
      <point x="248" y="832" type="line"/>
      <point x="226" y="832"/>
      <point x="211" y="851"/>
      <point x="211" y="874" type="curve" smooth="yes"/>
      <point x="211" y="897"/>
      <point x="226" y="915"/>
      <point x="248" y="915" type="curve"/>
      <point x="248" y="984" type="line"/>
      <point x="186" y="984"/>
      <point x="136" y="934"/>
      <point x="136" y="874" type="curve" smooth="yes"/>
      <point x="136" y="814"/>
      <point x="185" y="763"/>
    </contour>
  </outline>
</glyph>
<glyph name="ringhalfright.case" format="2">
  <advance width="500"/>
  <anchor x="250" y="705" name="_top"/>
  <anchor x="250" y="865" name="top"/>
  <outline>
    <contour>
      <point x="250" y="763" type="line"/>
      <point x="313" y="763"/>
      <point x="362" y="814"/>
      <point x="362" y="874" type="curve" smooth="yes"/>
      <point x="362" y="934"/>
      <point x="312" y="984"/>
      <point x="250" y="984" type="curve"/>
      <point x="250" y="915" type="line"/>
      <point x="272" y="915"/>
      <point x="287" y="897"/>
      <point x="287" y="874" type="curve" smooth="yes"/>
      <point x="287" y="851"/>
      <point x="272" y="832"/>
      <point x="250" y="832" type="curve"/>
    </contour>
  </outline>
</glyph>
<glyph name="seven.dnom" format="2">
  <advance width="320"/>
  <outline>
    <contour>
      <point x="9" y="0" type="line"/>
      <point x="163" y="0" type="line"/>
      <point x="308" y="308" type="line"/>
      <point x="308" y="423" type="line"/>
      <point x="10" y="423" type="line"/>
      <point x="10" y="301" type="line"/>
      <point x="173" y="301" type="line"/>
      <point x="181" y="339" type="line"/>
    </contour>
  </outline>
</glyph>
